<svg width="21" height="20" viewBox="0 0 21 20" fill="none" xmlns="http://www.w3.org/2000/svg">
<path d="M7.95703 17V11C7.95703 9.89543 7.0616 9 5.95703 9H3.95703C2.85246 9 1.95703 9.89543 1.95703 11V17C1.95703 18.1046 2.85246 19 3.95703 19H5.95703C7.0616 19 7.95703 18.1046 7.95703 17ZM7.95703 17V7C7.95703 5.89543 8.85246 5 9.95703 5H11.957C13.0616 5 13.957 5.89543 13.957 7V17M7.95703 17C7.95703 18.1046 8.85246 19 9.95703 19H11.957C13.0616 19 13.957 18.1046 13.957 17M13.957 17V3C13.957 1.89543 14.8525 1 15.957 1H17.957C19.0616 1 19.957 1.89543 19.957 3V17C19.957 18.1046 19.0616 19 17.957 19H15.957C14.8525 19 13.957 18.1046 13.957 17Z" stroke="white" stroke-width="2" stroke-linecap="round" stroke-linejoin="round"/>
</svg>
