<svg width="40" height="40" viewBox="0 0 40 40" fill="none" xmlns="http://www.w3.org/2000/svg">
<rect width="40" height="40" rx="6" fill="#53BFBF"/>
<path d="M17 27V21C17 19.8954 16.1046 19 15 19H13C11.8954 19 11 19.8954 11 21V27C11 28.1046 11.8954 29 13 29H15C16.1046 29 17 28.1046 17 27ZM17 27V17C17 15.8954 17.8954 15 19 15H21C22.1046 15 23 15.8954 23 17V27M17 27C17 28.1046 17.8954 29 19 29H21C22.1046 29 23 28.1046 23 27M23 27V13C23 11.8954 23.8954 11 25 11H27C28.1046 11 29 11.8954 29 13V27C29 28.1046 28.1046 29 27 29H25C23.8954 29 23 28.1046 23 27Z" stroke="white" stroke-width="2" stroke-linecap="round" stroke-linejoin="round"/>
</svg>
