<svg width="20" height="20" viewBox="0 0 20 20" fill="none" xmlns="http://www.w3.org/2000/svg">
<path d="M4.0004 3.79844H5.0004V2.79844V1.59844C5.0004 1.48798 5.08994 1.39844 5.2004 1.39844C5.31086 1.39844 5.4004 1.48798 5.4004 1.59844V2.79844V3.79844H6.4004H13.6004H14.6004V2.79844V1.59844C14.6004 1.48798 14.69 1.39844 14.8004 1.39844C14.9109 1.39844 15.0004 1.48798 15.0004 1.59844V2.79844V3.79844H16.0004H17.2004C17.9736 3.79844 18.6004 4.42524 18.6004 5.19844V17.1984C18.6004 17.9716 17.9736 18.5984 17.2004 18.5984H2.80039C2.02719 18.5984 1.40039 17.9716 1.40039 17.1984V5.19844C1.40039 4.42524 2.02719 3.79844 2.80039 3.79844H4.0004ZM5.2004 5.39844C3.98537 5.39844 3.0004 6.38341 3.0004 7.59844C3.0004 8.81347 3.98537 9.79844 5.2004 9.79844H14.8004C16.0154 9.79844 17.0004 8.81347 17.0004 7.59844C17.0004 6.38341 16.0154 5.39844 14.8004 5.39844H5.2004Z" fill="#41A6AC" stroke="#41A6AC" stroke-width="2"/>
</svg>
