<svg width="40" height="40" viewBox="0 0 40 40" fill="none" xmlns="http://www.w3.org/2000/svg">
<g clip-path="url(#clip0_1100_31238)">
<rect width="40" height="40" rx="20" fill="#F3F4F6"/>
<path d="M40 34.99V40.0017H0V35.0084C2.32658 31.8991 5.34651 29.3756 8.81965 27.6385C12.2928 25.9013 16.1233 24.9985 20.0067 25.0017C28.18 25.0017 35.44 28.925 40 34.99ZM26.67 15C26.67 16.7681 25.9676 18.4638 24.7174 19.7141C23.4671 20.9643 21.7714 21.6667 20.0033 21.6667C18.2352 21.6667 16.5395 20.9643 15.2893 19.7141C14.039 18.4638 13.3367 16.7681 13.3367 15C13.3367 13.2319 14.039 11.5362 15.2893 10.286C16.5395 9.03575 18.2352 8.33337 20.0033 8.33337C21.7714 8.33337 23.4671 9.03575 24.7174 10.286C25.9676 11.5362 26.67 13.2319 26.67 15Z" fill="#D1D5DB"/>
</g>
<defs>
<clipPath id="clip0_1100_31238">
<rect width="40" height="40" rx="20" fill="white"/>
</clipPath>
</defs>
</svg>
