<svg width="264" height="264" viewBox="0 0 264 264" fill="none" xmlns="http://www.w3.org/2000/svg">
<path d="M0 0H4V4H0V0Z" class="current-fill"/>
<path d="M20 0H24V4H20V0Z" class="current-fill"/>
<path d="M40 0H44V4H40V0Z" class="current-fill"/>
<path d="M60 0H64V4H60V0Z" class="current-fill"/>
<path d="M80 0H84V4H80V0Z" class="current-fill"/>
<path d="M100 0H104V4H100V0Z" class="current-fill"/>
<path d="M120 0H124V4H120V0Z" class="current-fill"/>
<path d="M140 0H144V4H140V0Z" class="current-fill"/>
<path d="M160 0H164V4H160V0Z" class="current-fill"/>
<path d="M180 0H184V4H180V0Z" class="current-fill"/>
<path d="M200 0H204V4H200V0Z" class="current-fill"/>
<path d="M220 0H224V4H220V0Z" class="current-fill"/>
<path d="M240 0H244V4H240V0Z" class="current-fill"/>
<path d="M260 0H264V4H260V0Z" class="current-fill"/>
<path d="M0 20H4V24H0V20Z" class="current-fill"/>
<path d="M20 20H24V24H20V20Z" class="current-fill"/>
<path d="M40 20H44V24H40V20Z" class="current-fill"/>
<path d="M60 20H64V24H60V20Z" class="current-fill"/>
<path d="M80 20H84V24H80V20Z" class="current-fill"/>
<path d="M100 20H104V24H100V20Z" class="current-fill"/>
<path d="M120 20H124V24H120V20Z" class="current-fill"/>
<path d="M140 20H144V24H140V20Z" class="current-fill"/>
<path d="M160 20H164V24H160V20Z" class="current-fill"/>
<path d="M180 20H184V24H180V20Z" class="current-fill"/>
<path d="M200 20H204V24H200V20Z" class="current-fill"/>
<path d="M220 20H224V24H220V20Z" class="current-fill"/>
<path d="M240 20H244V24H240V20Z" class="current-fill"/>
<path d="M260 20H264V24H260V20Z" class="current-fill"/>
<path d="M0 40H4V44H0V40Z" class="current-fill"/>
<path d="M20 40H24V44H20V40Z" class="current-fill"/>
<path d="M40 40H44V44H40V40Z" class="current-fill"/>
<path d="M60 40H64V44H60V40Z" class="current-fill"/>
<path d="M80 40H84V44H80V40Z" class="current-fill"/>
<path d="M100 40H104V44H100V40Z" class="current-fill"/>
<path d="M120 40H124V44H120V40Z" class="current-fill"/>
<path d="M140 40H144V44H140V40Z" class="current-fill"/>
<path d="M160 40H164V44H160V40Z" class="current-fill"/>
<path d="M180 40H184V44H180V40Z" class="current-fill"/>
<path d="M200 40H204V44H200V40Z" class="current-fill"/>
<path d="M220 40H224V44H220V40Z" class="current-fill"/>
<path d="M240 40H244V44H240V40Z" class="current-fill"/>
<path d="M260 40H264V44H260V40Z" class="current-fill"/>
<path d="M0 60H4V64H0V60Z" class="current-fill"/>
<path d="M20 60H24V64H20V60Z" class="current-fill"/>
<path d="M40 60H44V64H40V60Z" class="current-fill"/>
<path d="M60 60H64V64H60V60Z" class="current-fill"/>
<path d="M80 60H84V64H80V60Z" class="current-fill"/>
<path d="M100 60H104V64H100V60Z" class="current-fill"/>
<path d="M120 60H124V64H120V60Z" class="current-fill"/>
<path d="M140 60H144V64H140V60Z" class="current-fill"/>
<path d="M160 60H164V64H160V60Z" class="current-fill"/>
<path d="M180 60H184V64H180V60Z" class="current-fill"/>
<path d="M200 60H204V64H200V60Z" class="current-fill"/>
<path d="M220 60H224V64H220V60Z" class="current-fill"/>
<path d="M240 60H244V64H240V60Z" class="current-fill"/>
<path d="M260 60H264V64H260V60Z" class="current-fill"/>
<path d="M0 80H4V84H0V80Z" class="current-fill"/>
<path d="M20 80H24V84H20V80Z" class="current-fill"/>
<path d="M40 80H44V84H40V80Z" class="current-fill"/>
<path d="M60 80H64V84H60V80Z" class="current-fill"/>
<path d="M80 80H84V84H80V80Z" class="current-fill"/>
<path d="M100 80H104V84H100V80Z" class="current-fill"/>
<path d="M120 80H124V84H120V80Z" class="current-fill"/>
<path d="M140 80H144V84H140V80Z" class="current-fill"/>
<path d="M160 80H164V84H160V80Z" class="current-fill"/>
<path d="M180 80H184V84H180V80Z" class="current-fill"/>
<path d="M200 80H204V84H200V80Z" class="current-fill"/>
<path d="M220 80H224V84H220V80Z" class="current-fill"/>
<path d="M240 80H244V84H240V80Z" class="current-fill"/>
<path d="M260 80H264V84H260V80Z" class="current-fill"/>
<path d="M0 100H4V104H0V100Z" class="current-fill"/>
<path d="M20 100H24V104H20V100Z" class="current-fill"/>
<path d="M40 100H44V104H40V100Z" class="current-fill"/>
<path d="M60 100H64V104H60V100Z" class="current-fill"/>
<path d="M80 100H84V104H80V100Z" class="current-fill"/>
<path d="M100 100H104V104H100V100Z" class="current-fill"/>
<path d="M120 100H124V104H120V100Z" class="current-fill"/>
<path d="M140 100H144V104H140V100Z" class="current-fill"/>
<path d="M160 100H164V104H160V100Z" class="current-fill"/>
<path d="M180 100H184V104H180V100Z" class="current-fill"/>
<path d="M200 100H204V104H200V100Z" class="current-fill"/>
<path d="M220 100H224V104H220V100Z" class="current-fill"/>
<path d="M240 100H244V104H240V100Z" class="current-fill"/>
<path d="M260 100H264V104H260V100Z" class="current-fill"/>
<path d="M0 120H4V124H0V120Z" class="current-fill"/>
<path d="M20 120H24V124H20V120Z" class="current-fill"/>
<path d="M40 120H44V124H40V120Z" class="current-fill"/>
<path d="M60 120H64V124H60V120Z" class="current-fill"/>
<path d="M80 120H84V124H80V120Z" class="current-fill"/>
<path d="M100 120H104V124H100V120Z" class="current-fill"/>
<path d="M120 120H124V124H120V120Z" class="current-fill"/>
<path d="M140 120H144V124H140V120Z" class="current-fill"/>
<path d="M160 120H164V124H160V120Z" class="current-fill"/>
<path d="M180 120H184V124H180V120Z" class="current-fill"/>
<path d="M200 120H204V124H200V120Z" class="current-fill"/>
<path d="M220 120H224V124H220V120Z" class="current-fill"/>
<path d="M240 120H244V124H240V120Z" class="current-fill"/>
<path d="M260 120H264V124H260V120Z" class="current-fill"/>
<path d="M0 140H4V144H0V140Z" class="current-fill"/>
<path d="M20 140H24V144H20V140Z" class="current-fill"/>
<path d="M40 140H44V144H40V140Z" class="current-fill"/>
<path d="M60 140H64V144H60V140Z" class="current-fill"/>
<path d="M80 140H84V144H80V140Z" class="current-fill"/>
<path d="M100 140H104V144H100V140Z" class="current-fill"/>
<path d="M120 140H124V144H120V140Z" class="current-fill"/>
<path d="M140 140H144V144H140V140Z" class="current-fill"/>
<path d="M160 140H164V144H160V140Z" class="current-fill"/>
<path d="M180 140H184V144H180V140Z" class="current-fill"/>
<path d="M200 140H204V144H200V140Z" class="current-fill"/>
<path d="M220 140H224V144H220V140Z" class="current-fill"/>
<path d="M240 140H244V144H240V140Z" class="current-fill"/>
<path d="M260 140H264V144H260V140Z" class="current-fill"/>
<path d="M0 160H4V164H0V160Z" class="current-fill"/>
<path d="M20 160H24V164H20V160Z" class="current-fill"/>
<path d="M40 160H44V164H40V160Z" class="current-fill"/>
<path d="M60 160H64V164H60V160Z" class="current-fill"/>
<path d="M80 160H84V164H80V160Z" class="current-fill"/>
<path d="M100 160H104V164H100V160Z" class="current-fill"/>
<path d="M120 160H124V164H120V160Z" class="current-fill"/>
<path d="M140 160H144V164H140V160Z" class="current-fill"/>
<path d="M160 160H164V164H160V160Z" class="current-fill"/>
<path d="M180 160H184V164H180V160Z" class="current-fill"/>
<path d="M200 160H204V164H200V160Z" class="current-fill"/>
<path d="M220 160H224V164H220V160Z" class="current-fill"/>
<path d="M240 160H244V164H240V160Z" class="current-fill"/>
<path d="M260 160H264V164H260V160Z" class="current-fill"/>
<path d="M0 180H4V184H0V180Z" class="current-fill"/>
<path d="M20 180H24V184H20V180Z" class="current-fill"/>
<path d="M40 180H44V184H40V180Z" class="current-fill"/>
<path d="M60 180H64V184H60V180Z" class="current-fill"/>
<path d="M80 180H84V184H80V180Z" class="current-fill"/>
<path d="M100 180H104V184H100V180Z" class="current-fill"/>
<path d="M120 180H124V184H120V180Z" class="current-fill"/>
<path d="M140 180H144V184H140V180Z" class="current-fill"/>
<path d="M160 180H164V184H160V180Z" class="current-fill"/>
<path d="M180 180H184V184H180V180Z" class="current-fill"/>
<path d="M200 180H204V184H200V180Z" class="current-fill"/>
<path d="M220 180H224V184H220V180Z" class="current-fill"/>
<path d="M240 180H244V184H240V180Z" class="current-fill"/>
<path d="M260 180H264V184H260V180Z" class="current-fill"/>
<path d="M0 200H4V204H0V200Z" class="current-fill"/>
<path d="M20 200H24V204H20V200Z" class="current-fill"/>
<path d="M40 200H44V204H40V200Z" class="current-fill"/>
<path d="M60 200H64V204H60V200Z" class="current-fill"/>
<path d="M80 200H84V204H80V200Z" class="current-fill"/>
<path d="M100 200H104V204H100V200Z" class="current-fill"/>
<path d="M120 200H124V204H120V200Z" class="current-fill"/>
<path d="M140 200H144V204H140V200Z" class="current-fill"/>
<path d="M160 200H164V204H160V200Z" class="current-fill"/>
<path d="M180 200H184V204H180V200Z" class="current-fill"/>
<path d="M200 200H204V204H200V200Z" class="current-fill"/>
<path d="M220 200H224V204H220V200Z" class="current-fill"/>
<path d="M240 200H244V204H240V200Z" class="current-fill"/>
<path d="M260 200H264V204H260V200Z" class="current-fill"/>
<path d="M0 220H4V224H0V220Z" class="current-fill"/>
<path d="M20 220H24V224H20V220Z" class="current-fill"/>
<path d="M40 220H44V224H40V220Z" class="current-fill"/>
<path d="M60 220H64V224H60V220Z" class="current-fill"/>
<path d="M80 220H84V224H80V220Z" class="current-fill"/>
<path d="M100 220H104V224H100V220Z" class="current-fill"/>
<path d="M120 220H124V224H120V220Z" class="current-fill"/>
<path d="M140 220H144V224H140V220Z" class="current-fill"/>
<path d="M160 220H164V224H160V220Z" class="current-fill"/>
<path d="M180 220H184V224H180V220Z" class="current-fill"/>
<path d="M200 220H204V224H200V220Z" class="current-fill"/>
<path d="M220 220H224V224H220V220Z" class="current-fill"/>
<path d="M240 220H244V224H240V220Z" class="current-fill"/>
<path d="M260 220H264V224H260V220Z" class="current-fill"/>
<path d="M0 240H4V244H0V240Z" class="current-fill"/>
<path d="M20 240H24V244H20V240Z" class="current-fill"/>
<path d="M40 240H44V244H40V240Z" class="current-fill"/>
<path d="M60 240H64V244H60V240Z" class="current-fill"/>
<path d="M80 240H84V244H80V240Z" class="current-fill"/>
<path d="M100 240H104V244H100V240Z" class="current-fill"/>
<path d="M120 240H124V244H120V240Z" class="current-fill"/>
<path d="M140 240H144V244H140V240Z" class="current-fill"/>
<path d="M160 240H164V244H160V240Z" class="current-fill"/>
<path d="M180 240H184V244H180V240Z" class="current-fill"/>
<path d="M200 240H204V244H200V240Z" class="current-fill"/>
<path d="M220 240H224V244H220V240Z" class="current-fill"/>
<path d="M240 240H244V244H240V240Z" class="current-fill"/>
<path d="M260 240H264V244H260V240Z" class="current-fill"/>
<path d="M0 260H4V264H0V260Z" class="current-fill"/>
<path d="M20 260H24V264H20V260Z" class="current-fill"/>
<path d="M40 260H44V264H40V260Z" class="current-fill"/>
<path d="M60 260H64V264H60V260Z" class="current-fill"/>
<path d="M80 260H84V264H80V260Z" class="current-fill"/>
<path d="M100 260H104V264H100V260Z" class="current-fill"/>
<path d="M120 260H124V264H120V260Z" class="current-fill"/>
<path d="M140 260H144V264H140V260Z" class="current-fill"/>
<path d="M160 260H164V264H160V260Z" class="current-fill"/>
<path d="M180 260H184V264H180V260Z" class="current-fill"/>
<path d="M200 260H204V264H200V260Z" class="current-fill"/>
<path d="M220 260H224V264H220V260Z" class="current-fill"/>
<path d="M240 260H244V264H240V260Z" class="current-fill"/>
<path d="M260 260H264V264H260V260Z" class="current-fill"/>
</svg>
