<svg width="20" height="16" viewBox="0 0 20 16" fill="none" xmlns="http://www.w3.org/2000/svg">
<path d="M0.403502 3.06158L9.9999 7.85918L19.5963 3.06158C19.5608 2.45011 19.2928 1.87537 18.8473 1.45505C18.4018 1.03474 17.8124 0.800669 17.1999 0.800781H2.7999C2.1874 0.800669 1.59804 1.03474 1.15252 1.45505C0.706992 1.87537 0.439027 2.45011 0.403502 3.06158Z" fill="#41A6AC"/>
<path d="M19.5999 5.74238L9.9999 10.5424L0.399902 5.74238V12.8008C0.399902 13.4373 0.652759 14.0478 1.10285 14.4978C1.55293 14.9479 2.16338 15.2008 2.7999 15.2008H17.1999C17.8364 15.2008 18.4469 14.9479 18.897 14.4978C19.347 14.0478 19.5999 13.4373 19.5999 12.8008V5.74238Z" fill="#41A6AC"/>
</svg>
