<svg width="33" height="32" viewBox="0 0 33 32" fill="none" xmlns="http://www.w3.org/2000/svg">
<rect x="1.18637" y="0.641939" width="30.5643" height="30.5643" rx="15.2821" fill="white"/>
<path d="M19.0414 10.5345C19.8187 9.75711 21.0791 9.75711 21.8564 10.5345C22.6338 11.3118 22.6338 12.5721 21.8564 13.3495L18.8706 16.3352C18.0933 17.1126 16.833 17.1126 16.0556 16.3352C15.667 15.9466 15.0368 15.9466 14.6481 16.3352C14.2595 16.7239 14.2595 17.3541 14.6481 17.7427C16.2028 19.2974 18.7235 19.2974 20.2781 17.7427L23.2639 14.757C24.8186 13.2023 24.8186 10.6816 23.2639 9.12695C21.7092 7.57227 19.1886 7.57227 17.6339 9.12695L16.141 10.6198C15.7523 11.0085 15.7523 11.6387 16.141 12.0273C16.5297 12.416 17.1598 12.416 17.5485 12.0273L19.0414 10.5345Z" fill="#53BFBF"/>
<path d="M14.0651 15.5107C14.8425 14.7334 16.1028 14.7334 16.8801 15.5107C17.2688 15.8994 17.899 15.8994 18.2877 15.5107C18.6763 15.1221 18.6763 14.4919 18.2877 14.1032C16.733 12.5485 14.2123 12.5485 12.6576 14.1032L9.67187 17.089C8.11719 18.6437 8.11719 21.1643 9.67187 22.719C11.2266 24.2737 13.7472 24.2737 15.3019 22.719L16.7948 21.2261C17.1834 20.8375 17.1834 20.2073 16.7948 19.8186C16.4061 19.4299 15.7759 19.4299 15.3873 19.8186L13.8944 21.3115C13.117 22.0888 11.8567 22.0888 11.0794 21.3115C10.302 20.5342 10.302 19.2738 11.0794 18.4965L14.0651 15.5107Z" fill="#53BFBF"/>
<rect x="1.18637" y="0.641939" width="30.5643" height="30.5643" rx="15.2821" stroke="#53BFBF" stroke-width="1.28388"/>
</svg>
