<svg width="16" height="16" viewBox="0 0 16 16" fill="none" xmlns="http://www.w3.org/2000/svg">
<path d="M14.75 8C14.75 11.7279 11.7279 14.75 8 14.75M14.75 8C14.75 4.27208 11.7279 1.25 8 1.25M14.75 8H1.25M8 14.75C4.27208 14.75 1.25 11.7279 1.25 8M8 14.75C9.24264 14.75 10.25 11.7279 10.25 8C10.25 4.27208 9.24264 1.25 8 1.25M8 14.75C6.75736 14.75 5.75 11.7279 5.75 8C5.75 4.27208 6.75736 1.25 8 1.25M1.25 8C1.25 4.27208 4.27208 1.25 8 1.25" stroke="white" stroke-width="2" stroke-linecap="round" stroke-linejoin="round"/>
</svg>
