<svg width="48" height="48" viewBox="0 0 48 48" fill="none" xmlns="http://www.w3.org/2000/svg">
<rect width="48" height="48" rx="12" fill="#C1E8E8" fill-opacity="0.25"/>
<path fill-rule="evenodd" clip-rule="evenodd" d="M16.8995 22.7984H19.2343C19.3413 20.9428 19.6946 19.2333 20.2396 17.8572C18.5009 18.9241 17.2501 20.7086 16.8995 22.7984ZM23.9999 14.3984C18.698 14.3984 14.3999 18.6965 14.3999 23.9984C14.3999 29.3004 18.698 33.5984 23.9999 33.5984C29.3018 33.5984 33.5999 29.3004 33.5999 23.9984C33.5999 18.6965 29.3018 14.3984 23.9999 14.3984ZM23.9999 16.7984C23.9086 16.7984 23.7213 16.8365 23.4415 17.1126C23.1566 17.3939 22.8449 17.8603 22.5573 18.5314C22.0909 19.6198 21.7498 21.1011 21.6387 22.7984H26.3611C26.25 21.1011 25.9089 19.6198 25.4425 18.5314C25.1549 17.8603 24.8432 17.3939 24.5583 17.1126C24.2785 16.8365 24.0912 16.7984 23.9999 16.7984ZM28.7655 22.7984C28.6585 20.9428 28.3052 19.2333 27.7602 17.8572C29.4989 18.9241 30.7497 20.7086 31.1004 22.7984H28.7655ZM26.3611 25.1984H21.6387C21.7498 26.8957 22.0909 28.3771 22.5573 29.4654C22.8449 30.1366 23.1566 30.603 23.4415 30.8842C23.7213 31.1604 23.9086 31.1984 23.9999 31.1984C24.0912 31.1984 24.2785 31.1604 24.5583 30.8842C24.8432 30.603 25.1549 30.1366 25.4425 29.4654C25.9089 28.3771 26.25 26.8957 26.3611 25.1984ZM27.7602 30.1397C28.3052 28.7636 28.6585 27.0541 28.7655 25.1984H31.1004C30.7497 27.2883 29.4989 29.0728 27.7602 30.1397ZM20.2396 30.1397C19.6946 28.7636 19.3413 27.0541 19.2343 25.1984H16.8995C17.2501 27.2883 18.5009 29.0728 20.2396 30.1397Z" fill="#41A6AC"/>
</svg>
