<svg width="36" height="36" viewBox="0 0 36 36" fill="none" xmlns="http://www.w3.org/2000/svg">
<rect width="36" height="36" rx="6" fill="#53BFBF"/>
<path d="M24.75 18C24.75 21.7279 21.7279 24.75 18 24.75M24.75 18C24.75 14.2721 21.7279 11.25 18 11.25M24.75 18H11.25M18 24.75C14.2721 24.75 11.25 21.7279 11.25 18M18 24.75C19.2426 24.75 20.25 21.7279 20.25 18C20.25 14.2721 19.2426 11.25 18 11.25M18 24.75C16.7574 24.75 15.75 21.7279 15.75 18C15.75 14.2721 16.7574 11.25 18 11.25M11.25 18C11.25 14.2721 14.2721 11.25 18 11.25" stroke="white" stroke-width="2" stroke-linecap="round" stroke-linejoin="round"/>
</svg>
