<svg width="683" height="672" viewBox="0 0 683 672" fill="none" xmlns="http://www.w3.org/2000/svg">
<path d="M0 408H4V412H0V408Z" fill="#5DAFAA" fill-opacity="0.5"/>
<path d="M20 408H24V412H20V408Z" fill="#5DAFAA" fill-opacity="0.5"/>
<path d="M40 408H44V412H40V408Z" fill="#5DAFAA" fill-opacity="0.5"/>
<path d="M60 408H64V412H60V408Z" fill="#5DAFAA" fill-opacity="0.5"/>
<path d="M80 408H84V412H80V408Z" fill="#5DAFAA" fill-opacity="0.5"/>
<path d="M100 408H104V412H100V408Z" fill="#5DAFAA" fill-opacity="0.5"/>
<path d="M120 408H124V412H120V408Z" fill="#5DAFAA" fill-opacity="0.5"/>
<path d="M140 408H144V412H140V408Z" fill="#5DAFAA" fill-opacity="0.5"/>
<path d="M160 408H164V412H160V408Z" fill="#5DAFAA" fill-opacity="0.5"/>
<path d="M180 408H184V412H180V408Z" fill="#5DAFAA" fill-opacity="0.5"/>
<path d="M200 408H204V412H200V408Z" fill="#5DAFAA" fill-opacity="0.5"/>
<path d="M220 408H224V412H220V408Z" fill="#5DAFAA" fill-opacity="0.5"/>
<path d="M240 408H244V412H240V408Z" fill="#5DAFAA" fill-opacity="0.5"/>
<path d="M260 408H264V412H260V408Z" fill="#5DAFAA" fill-opacity="0.5"/>
<path d="M0 428H4V432H0V428Z" fill="#5DAFAA" fill-opacity="0.5"/>
<path d="M20 428H24V432H20V428Z" fill="#5DAFAA" fill-opacity="0.5"/>
<path d="M40 428H44V432H40V428Z" fill="#5DAFAA" fill-opacity="0.5"/>
<path d="M60 428H64V432H60V428Z" fill="#5DAFAA" fill-opacity="0.5"/>
<path d="M80 428H84V432H80V428Z" fill="#5DAFAA" fill-opacity="0.5"/>
<path d="M100 428H104V432H100V428Z" fill="#5DAFAA" fill-opacity="0.5"/>
<path d="M120 428H124V432H120V428Z" fill="#5DAFAA" fill-opacity="0.5"/>
<path d="M140 428H144V432H140V428Z" fill="#5DAFAA" fill-opacity="0.5"/>
<path d="M160 428H164V432H160V428Z" fill="#5DAFAA" fill-opacity="0.5"/>
<path d="M180 428H184V432H180V428Z" fill="#5DAFAA" fill-opacity="0.5"/>
<path d="M200 428H204V432H200V428Z" fill="#5DAFAA" fill-opacity="0.5"/>
<path d="M220 428H224V432H220V428Z" fill="#5DAFAA" fill-opacity="0.5"/>
<path d="M240 428H244V432H240V428Z" fill="#5DAFAA" fill-opacity="0.5"/>
<path d="M260 428H264V432H260V428Z" fill="#5DAFAA" fill-opacity="0.5"/>
<path d="M0 448H4V452H0V448Z" fill="#5DAFAA" fill-opacity="0.5"/>
<path d="M20 448H24V452H20V448Z" fill="#5DAFAA" fill-opacity="0.5"/>
<path d="M40 448H44V452H40V448Z" fill="#5DAFAA" fill-opacity="0.5"/>
<path d="M60 448H64V452H60V448Z" fill="#5DAFAA" fill-opacity="0.5"/>
<path d="M80 448H84V452H80V448Z" fill="#5DAFAA" fill-opacity="0.5"/>
<path d="M100 448H104V452H100V448Z" fill="#5DAFAA" fill-opacity="0.5"/>
<path d="M120 448H124V452H120V448Z" fill="#5DAFAA" fill-opacity="0.5"/>
<path d="M140 448H144V452H140V448Z" fill="#5DAFAA" fill-opacity="0.5"/>
<path d="M160 448H164V452H160V448Z" fill="#5DAFAA" fill-opacity="0.5"/>
<path d="M180 448H184V452H180V448Z" fill="#5DAFAA" fill-opacity="0.5"/>
<path d="M200 448H204V452H200V448Z" fill="#5DAFAA" fill-opacity="0.5"/>
<path d="M220 448H224V452H220V448Z" fill="#5DAFAA" fill-opacity="0.5"/>
<path d="M240 448H244V452H240V448Z" fill="#5DAFAA" fill-opacity="0.5"/>
<path d="M260 448H264V452H260V448Z" fill="#5DAFAA" fill-opacity="0.5"/>
<path d="M0 468H4V472H0V468Z" fill="#5DAFAA" fill-opacity="0.5"/>
<path d="M20 468H24V472H20V468Z" fill="#5DAFAA" fill-opacity="0.5"/>
<path d="M40 468H44V472H40V468Z" fill="#5DAFAA" fill-opacity="0.5"/>
<path d="M60 468H64V472H60V468Z" fill="#5DAFAA" fill-opacity="0.5"/>
<path d="M80 468H84V472H80V468Z" fill="#5DAFAA" fill-opacity="0.5"/>
<path d="M100 468H104V472H100V468Z" fill="#5DAFAA" fill-opacity="0.5"/>
<path d="M120 468H124V472H120V468Z" fill="#5DAFAA" fill-opacity="0.5"/>
<path d="M140 468H144V472H140V468Z" fill="#5DAFAA" fill-opacity="0.5"/>
<path d="M160 468H164V472H160V468Z" fill="#5DAFAA" fill-opacity="0.5"/>
<path d="M180 468H184V472H180V468Z" fill="#5DAFAA" fill-opacity="0.5"/>
<path d="M200 468H204V472H200V468Z" fill="#5DAFAA" fill-opacity="0.5"/>
<path d="M220 468H224V472H220V468Z" fill="#5DAFAA" fill-opacity="0.5"/>
<path d="M240 468H244V472H240V468Z" fill="#5DAFAA" fill-opacity="0.5"/>
<path d="M260 468H264V472H260V468Z" fill="#5DAFAA" fill-opacity="0.5"/>
<path d="M0 488H4V492H0V488Z" fill="#5DAFAA" fill-opacity="0.5"/>
<path d="M20 488H24V492H20V488Z" fill="#5DAFAA" fill-opacity="0.5"/>
<path d="M40 488H44V492H40V488Z" fill="#5DAFAA" fill-opacity="0.5"/>
<path d="M60 488H64V492H60V488Z" fill="#5DAFAA" fill-opacity="0.5"/>
<path d="M80 488H84V492H80V488Z" fill="#5DAFAA" fill-opacity="0.5"/>
<path d="M100 488H104V492H100V488Z" fill="#5DAFAA" fill-opacity="0.5"/>
<path d="M120 488H124V492H120V488Z" fill="#5DAFAA" fill-opacity="0.5"/>
<path d="M140 488H144V492H140V488Z" fill="#5DAFAA" fill-opacity="0.5"/>
<path d="M160 488H164V492H160V488Z" fill="#5DAFAA" fill-opacity="0.5"/>
<path d="M180 488H184V492H180V488Z" fill="#5DAFAA" fill-opacity="0.5"/>
<path d="M200 488H204V492H200V488Z" fill="#5DAFAA" fill-opacity="0.5"/>
<path d="M220 488H224V492H220V488Z" fill="#5DAFAA" fill-opacity="0.5"/>
<path d="M240 488H244V492H240V488Z" fill="#5DAFAA" fill-opacity="0.5"/>
<path d="M260 488H264V492H260V488Z" fill="#5DAFAA" fill-opacity="0.5"/>
<path d="M0 508H4V512H0V508Z" fill="#5DAFAA" fill-opacity="0.5"/>
<path d="M20 508H24V512H20V508Z" fill="#5DAFAA" fill-opacity="0.5"/>
<path d="M40 508H44V512H40V508Z" fill="#5DAFAA" fill-opacity="0.5"/>
<path d="M60 508H64V512H60V508Z" fill="#5DAFAA" fill-opacity="0.5"/>
<path d="M80 508H84V512H80V508Z" fill="#5DAFAA" fill-opacity="0.5"/>
<path d="M100 508H104V512H100V508Z" fill="#5DAFAA" fill-opacity="0.5"/>
<path d="M120 508H124V512H120V508Z" fill="#5DAFAA" fill-opacity="0.5"/>
<path d="M140 508H144V512H140V508Z" fill="#5DAFAA" fill-opacity="0.5"/>
<path d="M160 508H164V512H160V508Z" fill="#5DAFAA" fill-opacity="0.5"/>
<path d="M180 508H184V512H180V508Z" fill="#5DAFAA" fill-opacity="0.5"/>
<path d="M200 508H204V512H200V508Z" fill="#5DAFAA" fill-opacity="0.5"/>
<path d="M220 508H224V512H220V508Z" fill="#5DAFAA" fill-opacity="0.5"/>
<path d="M240 508H244V512H240V508Z" fill="#5DAFAA" fill-opacity="0.5"/>
<path d="M260 508H264V512H260V508Z" fill="#5DAFAA" fill-opacity="0.5"/>
<path d="M0 528H4V532H0V528Z" fill="#5DAFAA" fill-opacity="0.5"/>
<path d="M20 528H24V532H20V528Z" fill="#5DAFAA" fill-opacity="0.5"/>
<path d="M40 528H44V532H40V528Z" fill="#5DAFAA" fill-opacity="0.5"/>
<path d="M60 528H64V532H60V528Z" fill="#5DAFAA" fill-opacity="0.5"/>
<path d="M80 528H84V532H80V528Z" fill="#5DAFAA" fill-opacity="0.5"/>
<path d="M100 528H104V532H100V528Z" fill="#5DAFAA" fill-opacity="0.5"/>
<path d="M120 528H124V532H120V528Z" fill="#5DAFAA" fill-opacity="0.5"/>
<path d="M140 528H144V532H140V528Z" fill="#5DAFAA" fill-opacity="0.5"/>
<path d="M160 528H164V532H160V528Z" fill="#5DAFAA" fill-opacity="0.5"/>
<path d="M180 528H184V532H180V528Z" fill="#5DAFAA" fill-opacity="0.5"/>
<path d="M200 528H204V532H200V528Z" fill="#5DAFAA" fill-opacity="0.5"/>
<path d="M220 528H224V532H220V528Z" fill="#5DAFAA" fill-opacity="0.5"/>
<path d="M240 528H244V532H240V528Z" fill="#5DAFAA" fill-opacity="0.5"/>
<path d="M260 528H264V532H260V528Z" fill="#5DAFAA" fill-opacity="0.5"/>
<path d="M0 548H4V552H0V548Z" fill="#5DAFAA" fill-opacity="0.5"/>
<path d="M20 548H24V552H20V548Z" fill="#5DAFAA" fill-opacity="0.5"/>
<path d="M40 548H44V552H40V548Z" fill="#5DAFAA" fill-opacity="0.5"/>
<path d="M60 548H64V552H60V548Z" fill="#5DAFAA" fill-opacity="0.5"/>
<path d="M80 548H84V552H80V548Z" fill="#5DAFAA" fill-opacity="0.5"/>
<path d="M100 548H104V552H100V548Z" fill="#5DAFAA" fill-opacity="0.5"/>
<path d="M120 548H124V552H120V548Z" fill="#5DAFAA" fill-opacity="0.5"/>
<path d="M140 548H144V552H140V548Z" fill="#5DAFAA" fill-opacity="0.5"/>
<path d="M160 548H164V552H160V548Z" fill="#5DAFAA" fill-opacity="0.5"/>
<path d="M180 548H184V552H180V548Z" fill="#5DAFAA" fill-opacity="0.5"/>
<path d="M200 548H204V552H200V548Z" fill="#5DAFAA" fill-opacity="0.5"/>
<path d="M220 548H224V552H220V548Z" fill="#5DAFAA" fill-opacity="0.5"/>
<path d="M240 548H244V552H240V548Z" fill="#5DAFAA" fill-opacity="0.5"/>
<path d="M260 548H264V552H260V548Z" fill="#5DAFAA" fill-opacity="0.5"/>
<path d="M0 568H4V572H0V568Z" fill="#5DAFAA" fill-opacity="0.5"/>
<path d="M20 568H24V572H20V568Z" fill="#5DAFAA" fill-opacity="0.5"/>
<path d="M40 568H44V572H40V568Z" fill="#5DAFAA" fill-opacity="0.5"/>
<path d="M60 568H64V572H60V568Z" fill="#5DAFAA" fill-opacity="0.5"/>
<path d="M80 568H84V572H80V568Z" fill="#5DAFAA" fill-opacity="0.5"/>
<path d="M100 568H104V572H100V568Z" fill="#5DAFAA" fill-opacity="0.5"/>
<path d="M120 568H124V572H120V568Z" fill="#5DAFAA" fill-opacity="0.5"/>
<path d="M140 568H144V572H140V568Z" fill="#5DAFAA" fill-opacity="0.5"/>
<path d="M160 568H164V572H160V568Z" fill="#5DAFAA" fill-opacity="0.5"/>
<path d="M180 568H184V572H180V568Z" fill="#5DAFAA" fill-opacity="0.5"/>
<path d="M200 568H204V572H200V568Z" fill="#5DAFAA" fill-opacity="0.5"/>
<path d="M220 568H224V572H220V568Z" fill="#5DAFAA" fill-opacity="0.5"/>
<path d="M240 568H244V572H240V568Z" fill="#5DAFAA" fill-opacity="0.5"/>
<path d="M260 568H264V572H260V568Z" fill="#5DAFAA" fill-opacity="0.5"/>
<path d="M0 588H4V592H0V588Z" fill="#5DAFAA" fill-opacity="0.5"/>
<path d="M20 588H24V592H20V588Z" fill="#5DAFAA" fill-opacity="0.5"/>
<path d="M40 588H44V592H40V588Z" fill="#5DAFAA" fill-opacity="0.5"/>
<path d="M60 588H64V592H60V588Z" fill="#5DAFAA" fill-opacity="0.5"/>
<path d="M80 588H84V592H80V588Z" fill="#5DAFAA" fill-opacity="0.5"/>
<path d="M100 588H104V592H100V588Z" fill="#5DAFAA" fill-opacity="0.5"/>
<path d="M120 588H124V592H120V588Z" fill="#5DAFAA" fill-opacity="0.5"/>
<path d="M140 588H144V592H140V588Z" fill="#5DAFAA" fill-opacity="0.5"/>
<path d="M160 588H164V592H160V588Z" fill="#5DAFAA" fill-opacity="0.5"/>
<path d="M180 588H184V592H180V588Z" fill="#5DAFAA" fill-opacity="0.5"/>
<path d="M200 588H204V592H200V588Z" fill="#5DAFAA" fill-opacity="0.5"/>
<path d="M220 588H224V592H220V588Z" fill="#5DAFAA" fill-opacity="0.5"/>
<path d="M240 588H244V592H240V588Z" fill="#5DAFAA" fill-opacity="0.5"/>
<path d="M260 588H264V592H260V588Z" fill="#5DAFAA" fill-opacity="0.5"/>
<path d="M0 608H4V612H0V608Z" fill="#5DAFAA" fill-opacity="0.5"/>
<path d="M20 608H24V612H20V608Z" fill="#5DAFAA" fill-opacity="0.5"/>
<path d="M40 608H44V612H40V608Z" fill="#5DAFAA" fill-opacity="0.5"/>
<path d="M60 608H64V612H60V608Z" fill="#5DAFAA" fill-opacity="0.5"/>
<path d="M80 608H84V612H80V608Z" fill="#5DAFAA" fill-opacity="0.5"/>
<path d="M100 608H104V612H100V608Z" fill="#5DAFAA" fill-opacity="0.5"/>
<path d="M120 608H124V612H120V608Z" fill="#5DAFAA" fill-opacity="0.5"/>
<path d="M140 608H144V612H140V608Z" fill="#5DAFAA" fill-opacity="0.5"/>
<path d="M160 608H164V612H160V608Z" fill="#5DAFAA" fill-opacity="0.5"/>
<path d="M180 608H184V612H180V608Z" fill="#5DAFAA" fill-opacity="0.5"/>
<path d="M200 608H204V612H200V608Z" fill="#5DAFAA" fill-opacity="0.5"/>
<path d="M220 608H224V612H220V608Z" fill="#5DAFAA" fill-opacity="0.5"/>
<path d="M240 608H244V612H240V608Z" fill="#5DAFAA" fill-opacity="0.5"/>
<path d="M260 608H264V612H260V608Z" fill="#5DAFAA" fill-opacity="0.5"/>
<path d="M0 628H4V632H0V628Z" fill="#5DAFAA" fill-opacity="0.5"/>
<path d="M20 628H24V632H20V628Z" fill="#5DAFAA" fill-opacity="0.5"/>
<path d="M40 628H44V632H40V628Z" fill="#5DAFAA" fill-opacity="0.5"/>
<path d="M60 628H64V632H60V628Z" fill="#5DAFAA" fill-opacity="0.5"/>
<path d="M80 628H84V632H80V628Z" fill="#5DAFAA" fill-opacity="0.5"/>
<path d="M100 628H104V632H100V628Z" fill="#5DAFAA" fill-opacity="0.5"/>
<path d="M120 628H124V632H120V628Z" fill="#5DAFAA" fill-opacity="0.5"/>
<path d="M140 628H144V632H140V628Z" fill="#5DAFAA" fill-opacity="0.5"/>
<path d="M160 628H164V632H160V628Z" fill="#5DAFAA" fill-opacity="0.5"/>
<path d="M180 628H184V632H180V628Z" fill="#5DAFAA" fill-opacity="0.5"/>
<path d="M200 628H204V632H200V628Z" fill="#5DAFAA" fill-opacity="0.5"/>
<path d="M220 628H224V632H220V628Z" fill="#5DAFAA" fill-opacity="0.5"/>
<path d="M240 628H244V632H240V628Z" fill="#5DAFAA" fill-opacity="0.5"/>
<path d="M260 628H264V632H260V628Z" fill="#5DAFAA" fill-opacity="0.5"/>
<path d="M0 648H4V652H0V648Z" fill="#5DAFAA" fill-opacity="0.5"/>
<path d="M20 648H24V652H20V648Z" fill="#5DAFAA" fill-opacity="0.5"/>
<path d="M40 648H44V652H40V648Z" fill="#5DAFAA" fill-opacity="0.5"/>
<path d="M60 648H64V652H60V648Z" fill="#5DAFAA" fill-opacity="0.5"/>
<path d="M80 648H84V652H80V648Z" fill="#5DAFAA" fill-opacity="0.5"/>
<path d="M100 648H104V652H100V648Z" fill="#5DAFAA" fill-opacity="0.5"/>
<path d="M120 648H124V652H120V648Z" fill="#5DAFAA" fill-opacity="0.5"/>
<path d="M140 648H144V652H140V648Z" fill="#5DAFAA" fill-opacity="0.5"/>
<path d="M160 648H164V652H160V648Z" fill="#5DAFAA" fill-opacity="0.5"/>
<path d="M180 648H184V652H180V648Z" fill="#5DAFAA" fill-opacity="0.5"/>
<path d="M200 648H204V652H200V648Z" fill="#5DAFAA" fill-opacity="0.5"/>
<path d="M220 648H224V652H220V648Z" fill="#5DAFAA" fill-opacity="0.5"/>
<path d="M240 648H244V652H240V648Z" fill="#5DAFAA" fill-opacity="0.5"/>
<path d="M260 648H264V652H260V648Z" fill="#5DAFAA" fill-opacity="0.5"/>
<path d="M0 668H4V672H0V668Z" fill="#5DAFAA" fill-opacity="0.5"/>
<path d="M20 668H24V672H20V668Z" fill="#5DAFAA" fill-opacity="0.5"/>
<path d="M40 668H44V672H40V668Z" fill="#5DAFAA" fill-opacity="0.5"/>
<path d="M60 668H64V672H60V668Z" fill="#5DAFAA" fill-opacity="0.5"/>
<path d="M80 668H84V672H80V668Z" fill="#5DAFAA" fill-opacity="0.5"/>
<path d="M100 668H104V672H100V668Z" fill="#5DAFAA" fill-opacity="0.5"/>
<path d="M120 668H124V672H120V668Z" fill="#5DAFAA" fill-opacity="0.5"/>
<path d="M140 668H144V672H140V668Z" fill="#5DAFAA" fill-opacity="0.5"/>
<path d="M160 668H164V672H160V668Z" fill="#5DAFAA" fill-opacity="0.5"/>
<path d="M180 668H184V672H180V668Z" fill="#5DAFAA" fill-opacity="0.5"/>
<path d="M200 668H204V672H200V668Z" fill="#5DAFAA" fill-opacity="0.5"/>
<path d="M220 668H224V672H220V668Z" fill="#5DAFAA" fill-opacity="0.5"/>
<path d="M240 668H244V672H240V668Z" fill="#5DAFAA" fill-opacity="0.5"/>
<path d="M260 668H264V672H260V668Z" fill="#5DAFAA" fill-opacity="0.5"/>
<path d="M116 -43H120V-39H116V-43Z" fill="#5DAFAA" fill-opacity="0.5"/>
<path d="M136 -43H140V-39H136V-43Z" fill="#5DAFAA" fill-opacity="0.5"/>
<path d="M156 -43H160V-39H156V-43Z" fill="#5DAFAA" fill-opacity="0.5"/>
<path d="M176 -43H180V-39H176V-43Z" fill="#5DAFAA" fill-opacity="0.5"/>
<path d="M196 -43H200V-39H196V-43Z" fill="#5DAFAA" fill-opacity="0.5"/>
<path d="M216 -43H220V-39H216V-43Z" fill="#5DAFAA" fill-opacity="0.5"/>
<path d="M236 -43H240V-39H236V-43Z" fill="#5DAFAA" fill-opacity="0.5"/>
<path d="M256 -43H260V-39H256V-43Z" fill="#5DAFAA" fill-opacity="0.5"/>
<path d="M276 -43H280V-39H276V-43Z" fill="#5DAFAA" fill-opacity="0.5"/>
<path d="M296 -43H300V-39H296V-43Z" fill="#5DAFAA" fill-opacity="0.5"/>
<path d="M316 -43H320V-39H316V-43Z" fill="#5DAFAA" fill-opacity="0.5"/>
<path d="M336 -43H340V-39H336V-43Z" fill="#5DAFAA" fill-opacity="0.5"/>
<path d="M356 -43H360V-39H356V-43Z" fill="#5DAFAA" fill-opacity="0.5"/>
<path d="M376 -43H380V-39H376V-43Z" fill="#5DAFAA" fill-opacity="0.5"/>
<path d="M116 -23H120V-19H116V-23Z" fill="#5DAFAA" fill-opacity="0.5"/>
<path d="M136 -23H140V-19H136V-23Z" fill="#5DAFAA" fill-opacity="0.5"/>
<path d="M156 -23H160V-19H156V-23Z" fill="#5DAFAA" fill-opacity="0.5"/>
<path d="M176 -23H180V-19H176V-23Z" fill="#5DAFAA" fill-opacity="0.5"/>
<path d="M196 -23H200V-19H196V-23Z" fill="#5DAFAA" fill-opacity="0.5"/>
<path d="M216 -23H220V-19H216V-23Z" fill="#5DAFAA" fill-opacity="0.5"/>
<path d="M236 -23H240V-19H236V-23Z" fill="#5DAFAA" fill-opacity="0.5"/>
<path d="M256 -23H260V-19H256V-23Z" fill="#5DAFAA" fill-opacity="0.5"/>
<path d="M276 -23H280V-19H276V-23Z" fill="#5DAFAA" fill-opacity="0.5"/>
<path d="M296 -23H300V-19H296V-23Z" fill="#5DAFAA" fill-opacity="0.5"/>
<path d="M316 -23H320V-19H316V-23Z" fill="#5DAFAA" fill-opacity="0.5"/>
<path d="M336 -23H340V-19H336V-23Z" fill="#5DAFAA" fill-opacity="0.5"/>
<path d="M356 -23H360V-19H356V-23Z" fill="#5DAFAA" fill-opacity="0.5"/>
<path d="M376 -23H380V-19H376V-23Z" fill="#5DAFAA" fill-opacity="0.5"/>
<path d="M116 -3H120V1H116V-3Z" fill="#5DAFAA" fill-opacity="0.5"/>
<path d="M136 -3H140V1H136V-3Z" fill="#5DAFAA" fill-opacity="0.5"/>
<path d="M156 -3H160V1H156V-3Z" fill="#5DAFAA" fill-opacity="0.5"/>
<path d="M176 -3H180V1H176V-3Z" fill="#5DAFAA" fill-opacity="0.5"/>
<path d="M196 -3H200V1H196V-3Z" fill="#5DAFAA" fill-opacity="0.5"/>
<path d="M216 -3H220V1H216V-3Z" fill="#5DAFAA" fill-opacity="0.5"/>
<path d="M236 -3H240V1H236V-3Z" fill="#5DAFAA" fill-opacity="0.5"/>
<path d="M256 -3H260V1H256V-3Z" fill="#5DAFAA" fill-opacity="0.5"/>
<path d="M276 -3H280V1H276V-3Z" fill="#5DAFAA" fill-opacity="0.5"/>
<path d="M296 -3H300V1H296V-3Z" fill="#5DAFAA" fill-opacity="0.5"/>
<path d="M316 -3H320V1H316V-3Z" fill="#5DAFAA" fill-opacity="0.5"/>
<path d="M336 -3H340V1H336V-3Z" fill="#5DAFAA" fill-opacity="0.5"/>
<path d="M356 -3H360V1H356V-3Z" fill="#5DAFAA" fill-opacity="0.5"/>
<path d="M376 -3H380V1H376V-3Z" fill="#5DAFAA" fill-opacity="0.5"/>
<path d="M116 17H120V21H116V17Z" fill="#5DAFAA" fill-opacity="0.5"/>
<path d="M136 17H140V21H136V17Z" fill="#5DAFAA" fill-opacity="0.5"/>
<path d="M156 17H160V21H156V17Z" fill="#5DAFAA" fill-opacity="0.5"/>
<path d="M176 17H180V21H176V17Z" fill="#5DAFAA" fill-opacity="0.5"/>
<path d="M196 17H200V21H196V17Z" fill="#5DAFAA" fill-opacity="0.5"/>
<path d="M216 17H220V21H216V17Z" fill="#5DAFAA" fill-opacity="0.5"/>
<path d="M236 17H240V21H236V17Z" fill="#5DAFAA" fill-opacity="0.5"/>
<path d="M256 17H260V21H256V17Z" fill="#5DAFAA" fill-opacity="0.5"/>
<path d="M276 17H280V21H276V17Z" fill="#5DAFAA" fill-opacity="0.5"/>
<path d="M296 17H300V21H296V17Z" fill="#5DAFAA" fill-opacity="0.5"/>
<path d="M316 17H320V21H316V17Z" fill="#5DAFAA" fill-opacity="0.5"/>
<path d="M336 17H340V21H336V17Z" fill="#5DAFAA" fill-opacity="0.5"/>
<path d="M356 17H360V21H356V17Z" fill="#5DAFAA" fill-opacity="0.5"/>
<path d="M376 17H380V21H376V17Z" fill="#5DAFAA" fill-opacity="0.5"/>
<path d="M116 37H120V41H116V37Z" fill="#5DAFAA" fill-opacity="0.5"/>
<path d="M136 37H140V41H136V37Z" fill="#5DAFAA" fill-opacity="0.5"/>
<path d="M156 37H160V41H156V37Z" fill="#5DAFAA" fill-opacity="0.5"/>
<path d="M176 37H180V41H176V37Z" fill="#5DAFAA" fill-opacity="0.5"/>
<path d="M196 37H200V41H196V37Z" fill="#5DAFAA" fill-opacity="0.5"/>
<path d="M216 37H220V41H216V37Z" fill="#5DAFAA" fill-opacity="0.5"/>
<path d="M236 37H240V41H236V37Z" fill="#5DAFAA" fill-opacity="0.5"/>
<path d="M256 37H260V41H256V37Z" fill="#5DAFAA" fill-opacity="0.5"/>
<path d="M276 37H280V41H276V37Z" fill="#5DAFAA" fill-opacity="0.5"/>
<path d="M296 37H300V41H296V37Z" fill="#5DAFAA" fill-opacity="0.5"/>
<path d="M316 37H320V41H316V37Z" fill="#5DAFAA" fill-opacity="0.5"/>
<path d="M336 37H340V41H336V37Z" fill="#5DAFAA" fill-opacity="0.5"/>
<path d="M356 37H360V41H356V37Z" fill="#5DAFAA" fill-opacity="0.5"/>
<path d="M376 37H380V41H376V37Z" fill="#5DAFAA" fill-opacity="0.5"/>
<path d="M116 57H120V61H116V57Z" fill="#5DAFAA" fill-opacity="0.5"/>
<path d="M136 57H140V61H136V57Z" fill="#5DAFAA" fill-opacity="0.5"/>
<path d="M156 57H160V61H156V57Z" fill="#5DAFAA" fill-opacity="0.5"/>
<path d="M176 57H180V61H176V57Z" fill="#5DAFAA" fill-opacity="0.5"/>
<path d="M196 57H200V61H196V57Z" fill="#5DAFAA" fill-opacity="0.5"/>
<path d="M216 57H220V61H216V57Z" fill="#5DAFAA" fill-opacity="0.5"/>
<path d="M236 57H240V61H236V57Z" fill="#5DAFAA" fill-opacity="0.5"/>
<path d="M256 57H260V61H256V57Z" fill="#5DAFAA" fill-opacity="0.5"/>
<path d="M276 57H280V61H276V57Z" fill="#5DAFAA" fill-opacity="0.5"/>
<path d="M296 57H300V61H296V57Z" fill="#5DAFAA" fill-opacity="0.5"/>
<path d="M316 57H320V61H316V57Z" fill="#5DAFAA" fill-opacity="0.5"/>
<path d="M336 57H340V61H336V57Z" fill="#5DAFAA" fill-opacity="0.5"/>
<path d="M356 57H360V61H356V57Z" fill="#5DAFAA" fill-opacity="0.5"/>
<path d="M376 57H380V61H376V57Z" fill="#5DAFAA" fill-opacity="0.5"/>
<path d="M116 77H120V81H116V77Z" fill="#5DAFAA" fill-opacity="0.5"/>
<path d="M136 77H140V81H136V77Z" fill="#5DAFAA" fill-opacity="0.5"/>
<path d="M156 77H160V81H156V77Z" fill="#5DAFAA" fill-opacity="0.5"/>
<path d="M176 77H180V81H176V77Z" fill="#5DAFAA" fill-opacity="0.5"/>
<path d="M196 77H200V81H196V77Z" fill="#5DAFAA" fill-opacity="0.5"/>
<path d="M216 77H220V81H216V77Z" fill="#5DAFAA" fill-opacity="0.5"/>
<path d="M236 77H240V81H236V77Z" fill="#5DAFAA" fill-opacity="0.5"/>
<path d="M256 77H260V81H256V77Z" fill="#5DAFAA" fill-opacity="0.5"/>
<path d="M276 77H280V81H276V77Z" fill="#5DAFAA" fill-opacity="0.5"/>
<path d="M296 77H300V81H296V77Z" fill="#5DAFAA" fill-opacity="0.5"/>
<path d="M316 77H320V81H316V77Z" fill="#5DAFAA" fill-opacity="0.5"/>
<path d="M336 77H340V81H336V77Z" fill="#5DAFAA" fill-opacity="0.5"/>
<path d="M356 77H360V81H356V77Z" fill="#5DAFAA" fill-opacity="0.5"/>
<path d="M376 77H380V81H376V77Z" fill="#5DAFAA" fill-opacity="0.5"/>
<path d="M116 97H120V101H116V97Z" fill="#5DAFAA" fill-opacity="0.5"/>
<path d="M136 97H140V101H136V97Z" fill="#5DAFAA" fill-opacity="0.5"/>
<path d="M156 97H160V101H156V97Z" fill="#5DAFAA" fill-opacity="0.5"/>
<path d="M176 97H180V101H176V97Z" fill="#5DAFAA" fill-opacity="0.5"/>
<path d="M196 97H200V101H196V97Z" fill="#5DAFAA" fill-opacity="0.5"/>
<path d="M216 97H220V101H216V97Z" fill="#5DAFAA" fill-opacity="0.5"/>
<path d="M236 97H240V101H236V97Z" fill="#5DAFAA" fill-opacity="0.5"/>
<path d="M256 97H260V101H256V97Z" fill="#5DAFAA" fill-opacity="0.5"/>
<path d="M276 97H280V101H276V97Z" fill="#5DAFAA" fill-opacity="0.5"/>
<path d="M296 97H300V101H296V97Z" fill="#5DAFAA" fill-opacity="0.5"/>
<path d="M316 97H320V101H316V97Z" fill="#5DAFAA" fill-opacity="0.5"/>
<path d="M336 97H340V101H336V97Z" fill="#5DAFAA" fill-opacity="0.5"/>
<path d="M356 97H360V101H356V97Z" fill="#5DAFAA" fill-opacity="0.5"/>
<path d="M376 97H380V101H376V97Z" fill="#5DAFAA" fill-opacity="0.5"/>
<path d="M116 117H120V121H116V117Z" fill="#5DAFAA" fill-opacity="0.5"/>
<path d="M136 117H140V121H136V117Z" fill="#5DAFAA" fill-opacity="0.5"/>
<path d="M156 117H160V121H156V117Z" fill="#5DAFAA" fill-opacity="0.5"/>
<path d="M176 117H180V121H176V117Z" fill="#5DAFAA" fill-opacity="0.5"/>
<path d="M196 117H200V121H196V117Z" fill="#5DAFAA" fill-opacity="0.5"/>
<path d="M216 117H220V121H216V117Z" fill="#5DAFAA" fill-opacity="0.5"/>
<path d="M236 117H240V121H236V117Z" fill="#5DAFAA" fill-opacity="0.5"/>
<path d="M256 117H260V121H256V117Z" fill="#5DAFAA" fill-opacity="0.5"/>
<path d="M276 117H280V121H276V117Z" fill="#5DAFAA" fill-opacity="0.5"/>
<path d="M296 117H300V121H296V117Z" fill="#5DAFAA" fill-opacity="0.5"/>
<path d="M316 117H320V121H316V117Z" fill="#5DAFAA" fill-opacity="0.5"/>
<path d="M336 117H340V121H336V117Z" fill="#5DAFAA" fill-opacity="0.5"/>
<path d="M356 117H360V121H356V117Z" fill="#5DAFAA" fill-opacity="0.5"/>
<path d="M376 117H380V121H376V117Z" fill="#5DAFAA" fill-opacity="0.5"/>
<path d="M116 137H120V141H116V137Z" fill="#5DAFAA" fill-opacity="0.5"/>
<path d="M136 137H140V141H136V137Z" fill="#5DAFAA" fill-opacity="0.5"/>
<path d="M156 137H160V141H156V137Z" fill="#5DAFAA" fill-opacity="0.5"/>
<path d="M176 137H180V141H176V137Z" fill="#5DAFAA" fill-opacity="0.5"/>
<path d="M196 137H200V141H196V137Z" fill="#5DAFAA" fill-opacity="0.5"/>
<path d="M216 137H220V141H216V137Z" fill="#5DAFAA" fill-opacity="0.5"/>
<path d="M236 137H240V141H236V137Z" fill="#5DAFAA" fill-opacity="0.5"/>
<path d="M256 137H260V141H256V137Z" fill="#5DAFAA" fill-opacity="0.5"/>
<path d="M276 137H280V141H276V137Z" fill="#5DAFAA" fill-opacity="0.5"/>
<path d="M296 137H300V141H296V137Z" fill="#5DAFAA" fill-opacity="0.5"/>
<path d="M316 137H320V141H316V137Z" fill="#5DAFAA" fill-opacity="0.5"/>
<path d="M336 137H340V141H336V137Z" fill="#5DAFAA" fill-opacity="0.5"/>
<path d="M356 137H360V141H356V137Z" fill="#5DAFAA" fill-opacity="0.5"/>
<path d="M376 137H380V141H376V137Z" fill="#5DAFAA" fill-opacity="0.5"/>
<path d="M116 157H120V161H116V157Z" fill="#5DAFAA" fill-opacity="0.5"/>
<path d="M136 157H140V161H136V157Z" fill="#5DAFAA" fill-opacity="0.5"/>
<path d="M156 157H160V161H156V157Z" fill="#5DAFAA" fill-opacity="0.5"/>
<path d="M176 157H180V161H176V157Z" fill="#5DAFAA" fill-opacity="0.5"/>
<path d="M196 157H200V161H196V157Z" fill="#5DAFAA" fill-opacity="0.5"/>
<path d="M216 157H220V161H216V157Z" fill="#5DAFAA" fill-opacity="0.5"/>
<path d="M236 157H240V161H236V157Z" fill="#5DAFAA" fill-opacity="0.5"/>
<path d="M256 157H260V161H256V157Z" fill="#5DAFAA" fill-opacity="0.5"/>
<path d="M276 157H280V161H276V157Z" fill="#5DAFAA" fill-opacity="0.5"/>
<path d="M296 157H300V161H296V157Z" fill="#5DAFAA" fill-opacity="0.5"/>
<path d="M316 157H320V161H316V157Z" fill="#5DAFAA" fill-opacity="0.5"/>
<path d="M336 157H340V161H336V157Z" fill="#5DAFAA" fill-opacity="0.5"/>
<path d="M356 157H360V161H356V157Z" fill="#5DAFAA" fill-opacity="0.5"/>
<path d="M376 157H380V161H376V157Z" fill="#5DAFAA" fill-opacity="0.5"/>
<path d="M116 177H120V181H116V177Z" fill="#5DAFAA" fill-opacity="0.5"/>
<path d="M136 177H140V181H136V177Z" fill="#5DAFAA" fill-opacity="0.5"/>
<path d="M156 177H160V181H156V177Z" fill="#5DAFAA" fill-opacity="0.5"/>
<path d="M176 177H180V181H176V177Z" fill="#5DAFAA" fill-opacity="0.5"/>
<path d="M196 177H200V181H196V177Z" fill="#5DAFAA" fill-opacity="0.5"/>
<path d="M216 177H220V181H216V177Z" fill="#5DAFAA" fill-opacity="0.5"/>
<path d="M236 177H240V181H236V177Z" fill="#5DAFAA" fill-opacity="0.5"/>
<path d="M256 177H260V181H256V177Z" fill="#5DAFAA" fill-opacity="0.5"/>
<path d="M276 177H280V181H276V177Z" fill="#5DAFAA" fill-opacity="0.5"/>
<path d="M296 177H300V181H296V177Z" fill="#5DAFAA" fill-opacity="0.5"/>
<path d="M316 177H320V181H316V177Z" fill="#5DAFAA" fill-opacity="0.5"/>
<path d="M336 177H340V181H336V177Z" fill="#5DAFAA" fill-opacity="0.5"/>
<path d="M356 177H360V181H356V177Z" fill="#5DAFAA" fill-opacity="0.5"/>
<path d="M376 177H380V181H376V177Z" fill="#5DAFAA" fill-opacity="0.5"/>
<path d="M116 197H120V201H116V197Z" fill="#5DAFAA" fill-opacity="0.5"/>
<path d="M136 197H140V201H136V197Z" fill="#5DAFAA" fill-opacity="0.5"/>
<path d="M156 197H160V201H156V197Z" fill="#5DAFAA" fill-opacity="0.5"/>
<path d="M176 197H180V201H176V197Z" fill="#5DAFAA" fill-opacity="0.5"/>
<path d="M196 197H200V201H196V197Z" fill="#5DAFAA" fill-opacity="0.5"/>
<path d="M216 197H220V201H216V197Z" fill="#5DAFAA" fill-opacity="0.5"/>
<path d="M236 197H240V201H236V197Z" fill="#5DAFAA" fill-opacity="0.5"/>
<path d="M256 197H260V201H256V197Z" fill="#5DAFAA" fill-opacity="0.5"/>
<path d="M276 197H280V201H276V197Z" fill="#5DAFAA" fill-opacity="0.5"/>
<path d="M296 197H300V201H296V197Z" fill="#5DAFAA" fill-opacity="0.5"/>
<path d="M316 197H320V201H316V197Z" fill="#5DAFAA" fill-opacity="0.5"/>
<path d="M336 197H340V201H336V197Z" fill="#5DAFAA" fill-opacity="0.5"/>
<path d="M356 197H360V201H356V197Z" fill="#5DAFAA" fill-opacity="0.5"/>
<path d="M376 197H380V201H376V197Z" fill="#5DAFAA" fill-opacity="0.5"/>
<path d="M116 217H120V221H116V217Z" fill="#5DAFAA" fill-opacity="0.5"/>
<path d="M136 217H140V221H136V217Z" fill="#5DAFAA" fill-opacity="0.5"/>
<path d="M156 217H160V221H156V217Z" fill="#5DAFAA" fill-opacity="0.5"/>
<path d="M176 217H180V221H176V217Z" fill="#5DAFAA" fill-opacity="0.5"/>
<path d="M196 217H200V221H196V217Z" fill="#5DAFAA" fill-opacity="0.5"/>
<path d="M216 217H220V221H216V217Z" fill="#5DAFAA" fill-opacity="0.5"/>
<path d="M236 217H240V221H236V217Z" fill="#5DAFAA" fill-opacity="0.5"/>
<path d="M256 217H260V221H256V217Z" fill="#5DAFAA" fill-opacity="0.5"/>
<path d="M276 217H280V221H276V217Z" fill="#5DAFAA" fill-opacity="0.5"/>
<path d="M296 217H300V221H296V217Z" fill="#5DAFAA" fill-opacity="0.5"/>
<path d="M316 217H320V221H316V217Z" fill="#5DAFAA" fill-opacity="0.5"/>
<path d="M336 217H340V221H336V217Z" fill="#5DAFAA" fill-opacity="0.5"/>
<path d="M356 217H360V221H356V217Z" fill="#5DAFAA" fill-opacity="0.5"/>
<path d="M376 217H380V221H376V217Z" fill="#5DAFAA" fill-opacity="0.5"/>
<path d="M419 359H423V363H419V359Z" fill="#41A6AC"/>
<path d="M439 359H443V363H439V359Z" fill="#41A6AC"/>
<path d="M459 359H463V363H459V359Z" fill="#41A6AC"/>
<path d="M479 359H483V363H479V359Z" fill="#41A6AC"/>
<path d="M499 359H503V363H499V359Z" fill="#41A6AC"/>
<path d="M519 359H523V363H519V359Z" fill="#41A6AC"/>
<path d="M539 359H543V363H539V359Z" fill="#41A6AC"/>
<path d="M559 359H563V363H559V359Z" fill="#41A6AC"/>
<path d="M579 359H583V363H579V359Z" fill="#41A6AC"/>
<path d="M599 359H603V363H599V359Z" fill="#41A6AC"/>
<path d="M619 359H623V363H619V359Z" fill="#41A6AC"/>
<path d="M639 359H643V363H639V359Z" fill="#41A6AC"/>
<path d="M659 359H663V363H659V359Z" fill="#41A6AC"/>
<path d="M679 359H683V363H679V359Z" fill="#41A6AC"/>
<path d="M419 379H423V383H419V379Z" fill="#41A6AC"/>
<path d="M439 379H443V383H439V379Z" fill="#41A6AC"/>
<path d="M459 379H463V383H459V379Z" fill="#41A6AC"/>
<path d="M479 379H483V383H479V379Z" fill="#41A6AC"/>
<path d="M499 379H503V383H499V379Z" fill="#41A6AC"/>
<path d="M519 379H523V383H519V379Z" fill="#41A6AC"/>
<path d="M539 379H543V383H539V379Z" fill="#41A6AC"/>
<path d="M559 379H563V383H559V379Z" fill="#41A6AC"/>
<path d="M579 379H583V383H579V379Z" fill="#41A6AC"/>
<path d="M599 379H603V383H599V379Z" fill="#41A6AC"/>
<path d="M619 379H623V383H619V379Z" fill="#41A6AC"/>
<path d="M639 379H643V383H639V379Z" fill="#41A6AC"/>
<path d="M659 379H663V383H659V379Z" fill="#41A6AC"/>
<path d="M679 379H683V383H679V379Z" fill="#41A6AC"/>
<path d="M419 399H423V403H419V399Z" fill="#41A6AC"/>
<path d="M439 399H443V403H439V399Z" fill="#41A6AC"/>
<path d="M459 399H463V403H459V399Z" fill="#41A6AC"/>
<path d="M479 399H483V403H479V399Z" fill="#41A6AC"/>
<path d="M499 399H503V403H499V399Z" fill="#41A6AC"/>
<path d="M519 399H523V403H519V399Z" fill="#41A6AC"/>
<path d="M539 399H543V403H539V399Z" fill="#41A6AC"/>
<path d="M559 399H563V403H559V399Z" fill="#41A6AC"/>
<path d="M579 399H583V403H579V399Z" fill="#41A6AC"/>
<path d="M599 399H603V403H599V399Z" fill="#41A6AC"/>
<path d="M619 399H623V403H619V399Z" fill="#41A6AC"/>
<path d="M639 399H643V403H639V399Z" fill="#41A6AC"/>
<path d="M659 399H663V403H659V399Z" fill="#41A6AC"/>
<path d="M679 399H683V403H679V399Z" fill="#41A6AC"/>
<path d="M419 419H423V423H419V419Z" fill="#41A6AC"/>
<path d="M439 419H443V423H439V419Z" fill="#41A6AC"/>
<path d="M459 419H463V423H459V419Z" fill="#41A6AC"/>
<path d="M479 419H483V423H479V419Z" fill="#41A6AC"/>
<path d="M499 419H503V423H499V419Z" fill="#41A6AC"/>
<path d="M519 419H523V423H519V419Z" fill="#41A6AC"/>
<path d="M539 419H543V423H539V419Z" fill="#41A6AC"/>
<path d="M559 419H563V423H559V419Z" fill="#41A6AC"/>
<path d="M579 419H583V423H579V419Z" fill="#41A6AC"/>
<path d="M599 419H603V423H599V419Z" fill="#41A6AC"/>
<path d="M619 419H623V423H619V419Z" fill="#41A6AC"/>
<path d="M639 419H643V423H639V419Z" fill="#41A6AC"/>
<path d="M659 419H663V423H659V419Z" fill="#41A6AC"/>
<path d="M679 419H683V423H679V419Z" fill="#41A6AC"/>
<path d="M419 439H423V443H419V439Z" fill="#41A6AC"/>
<path d="M439 439H443V443H439V439Z" fill="#41A6AC"/>
<path d="M459 439H463V443H459V439Z" fill="#41A6AC"/>
<path d="M479 439H483V443H479V439Z" fill="#41A6AC"/>
<path d="M499 439H503V443H499V439Z" fill="#41A6AC"/>
<path d="M519 439H523V443H519V439Z" fill="#41A6AC"/>
<path d="M539 439H543V443H539V439Z" fill="#41A6AC"/>
<path d="M559 439H563V443H559V439Z" fill="#41A6AC"/>
<path d="M579 439H583V443H579V439Z" fill="#41A6AC"/>
<path d="M599 439H603V443H599V439Z" fill="#41A6AC"/>
<path d="M619 439H623V443H619V439Z" fill="#41A6AC"/>
<path d="M639 439H643V443H639V439Z" fill="#41A6AC"/>
<path d="M659 439H663V443H659V439Z" fill="#41A6AC"/>
<path d="M679 439H683V443H679V439Z" fill="#41A6AC"/>
<path d="M419 459H423V463H419V459Z" fill="#41A6AC"/>
<path d="M439 459H443V463H439V459Z" fill="#41A6AC"/>
<path d="M459 459H463V463H459V459Z" fill="#41A6AC"/>
<path d="M479 459H483V463H479V459Z" fill="#41A6AC"/>
<path d="M499 459H503V463H499V459Z" fill="#41A6AC"/>
<path d="M519 459H523V463H519V459Z" fill="#41A6AC"/>
<path d="M539 459H543V463H539V459Z" fill="#41A6AC"/>
<path d="M559 459H563V463H559V459Z" fill="#41A6AC"/>
<path d="M579 459H583V463H579V459Z" fill="#41A6AC"/>
<path d="M599 459H603V463H599V459Z" fill="#41A6AC"/>
<path d="M619 459H623V463H619V459Z" fill="#41A6AC"/>
<path d="M639 459H643V463H639V459Z" fill="#41A6AC"/>
<path d="M659 459H663V463H659V459Z" fill="#41A6AC"/>
<path d="M679 459H683V463H679V459Z" fill="#41A6AC"/>
<path d="M419 479H423V483H419V479Z" fill="#41A6AC"/>
<path d="M439 479H443V483H439V479Z" fill="#41A6AC"/>
<path d="M459 479H463V483H459V479Z" fill="#41A6AC"/>
<path d="M479 479H483V483H479V479Z" fill="#41A6AC"/>
<path d="M499 479H503V483H499V479Z" fill="#41A6AC"/>
<path d="M519 479H523V483H519V479Z" fill="#41A6AC"/>
<path d="M539 479H543V483H539V479Z" fill="#41A6AC"/>
<path d="M559 479H563V483H559V479Z" fill="#41A6AC"/>
<path d="M579 479H583V483H579V479Z" fill="#41A6AC"/>
<path d="M599 479H603V483H599V479Z" fill="#41A6AC"/>
<path d="M619 479H623V483H619V479Z" fill="#41A6AC"/>
<path d="M639 479H643V483H639V479Z" fill="#41A6AC"/>
<path d="M659 479H663V483H659V479Z" fill="#41A6AC"/>
<path d="M679 479H683V483H679V479Z" fill="#41A6AC"/>
<path d="M419 499H423V503H419V499Z" fill="#41A6AC"/>
<path d="M439 499H443V503H439V499Z" fill="#41A6AC"/>
<path d="M459 499H463V503H459V499Z" fill="#41A6AC"/>
<path d="M479 499H483V503H479V499Z" fill="#41A6AC"/>
<path d="M499 499H503V503H499V499Z" fill="#41A6AC"/>
<path d="M519 499H523V503H519V499Z" fill="#41A6AC"/>
<path d="M539 499H543V503H539V499Z" fill="#41A6AC"/>
<path d="M559 499H563V503H559V499Z" fill="#41A6AC"/>
<path d="M579 499H583V503H579V499Z" fill="#41A6AC"/>
<path d="M599 499H603V503H599V499Z" fill="#41A6AC"/>
<path d="M619 499H623V503H619V499Z" fill="#41A6AC"/>
<path d="M639 499H643V503H639V499Z" fill="#41A6AC"/>
<path d="M659 499H663V503H659V499Z" fill="#41A6AC"/>
<path d="M679 499H683V503H679V499Z" fill="#41A6AC"/>
<path d="M419 519H423V523H419V519Z" fill="#41A6AC"/>
<path d="M439 519H443V523H439V519Z" fill="#41A6AC"/>
<path d="M459 519H463V523H459V519Z" fill="#41A6AC"/>
<path d="M479 519H483V523H479V519Z" fill="#41A6AC"/>
<path d="M499 519H503V523H499V519Z" fill="#41A6AC"/>
<path d="M519 519H523V523H519V519Z" fill="#41A6AC"/>
<path d="M539 519H543V523H539V519Z" fill="#41A6AC"/>
<path d="M559 519H563V523H559V519Z" fill="#41A6AC"/>
<path d="M579 519H583V523H579V519Z" fill="#41A6AC"/>
<path d="M599 519H603V523H599V519Z" fill="#41A6AC"/>
<path d="M619 519H623V523H619V519Z" fill="#41A6AC"/>
<path d="M639 519H643V523H639V519Z" fill="#41A6AC"/>
<path d="M659 519H663V523H659V519Z" fill="#41A6AC"/>
<path d="M679 519H683V523H679V519Z" fill="#41A6AC"/>
<path d="M419 539H423V543H419V539Z" fill="#41A6AC"/>
<path d="M439 539H443V543H439V539Z" fill="#41A6AC"/>
<path d="M459 539H463V543H459V539Z" fill="#41A6AC"/>
<path d="M479 539H483V543H479V539Z" fill="#41A6AC"/>
<path d="M499 539H503V543H499V539Z" fill="#41A6AC"/>
<path d="M519 539H523V543H519V539Z" fill="#41A6AC"/>
<path d="M539 539H543V543H539V539Z" fill="#41A6AC"/>
<path d="M559 539H563V543H559V539Z" fill="#41A6AC"/>
<path d="M579 539H583V543H579V539Z" fill="#41A6AC"/>
<path d="M599 539H603V543H599V539Z" fill="#41A6AC"/>
<path d="M619 539H623V543H619V539Z" fill="#41A6AC"/>
<path d="M639 539H643V543H639V539Z" fill="#41A6AC"/>
<path d="M659 539H663V543H659V539Z" fill="#41A6AC"/>
<path d="M679 539H683V543H679V539Z" fill="#41A6AC"/>
<path d="M419 559H423V563H419V559Z" fill="#41A6AC"/>
<path d="M439 559H443V563H439V559Z" fill="#41A6AC"/>
<path d="M459 559H463V563H459V559Z" fill="#41A6AC"/>
<path d="M479 559H483V563H479V559Z" fill="#41A6AC"/>
<path d="M499 559H503V563H499V559Z" fill="#41A6AC"/>
<path d="M519 559H523V563H519V559Z" fill="#41A6AC"/>
<path d="M539 559H543V563H539V559Z" fill="#41A6AC"/>
<path d="M559 559H563V563H559V559Z" fill="#41A6AC"/>
<path d="M579 559H583V563H579V559Z" fill="#41A6AC"/>
<path d="M599 559H603V563H599V559Z" fill="#41A6AC"/>
<path d="M619 559H623V563H619V559Z" fill="#41A6AC"/>
<path d="M639 559H643V563H639V559Z" fill="#41A6AC"/>
<path d="M659 559H663V563H659V559Z" fill="#41A6AC"/>
<path d="M679 559H683V563H679V559Z" fill="#41A6AC"/>
<path d="M419 579H423V583H419V579Z" fill="#41A6AC"/>
<path d="M439 579H443V583H439V579Z" fill="#41A6AC"/>
<path d="M459 579H463V583H459V579Z" fill="#41A6AC"/>
<path d="M479 579H483V583H479V579Z" fill="#41A6AC"/>
<path d="M499 579H503V583H499V579Z" fill="#41A6AC"/>
<path d="M519 579H523V583H519V579Z" fill="#41A6AC"/>
<path d="M539 579H543V583H539V579Z" fill="#41A6AC"/>
<path d="M559 579H563V583H559V579Z" fill="#41A6AC"/>
<path d="M579 579H583V583H579V579Z" fill="#41A6AC"/>
<path d="M599 579H603V583H599V579Z" fill="#41A6AC"/>
<path d="M619 579H623V583H619V579Z" fill="#41A6AC"/>
<path d="M639 579H643V583H639V579Z" fill="#41A6AC"/>
<path d="M659 579H663V583H659V579Z" fill="#41A6AC"/>
<path d="M679 579H683V583H679V579Z" fill="#41A6AC"/>
<path d="M419 599H423V603H419V599Z" fill="#41A6AC"/>
<path d="M439 599H443V603H439V599Z" fill="#41A6AC"/>
<path d="M459 599H463V603H459V599Z" fill="#41A6AC"/>
<path d="M479 599H483V603H479V599Z" fill="#41A6AC"/>
<path d="M499 599H503V603H499V599Z" fill="#41A6AC"/>
<path d="M519 599H523V603H519V599Z" fill="#41A6AC"/>
<path d="M539 599H543V603H539V599Z" fill="#41A6AC"/>
<path d="M559 599H563V603H559V599Z" fill="#41A6AC"/>
<path d="M579 599H583V603H579V599Z" fill="#41A6AC"/>
<path d="M599 599H603V603H599V599Z" fill="#41A6AC"/>
<path d="M619 599H623V603H619V599Z" fill="#41A6AC"/>
<path d="M639 599H643V603H639V599Z" fill="#41A6AC"/>
<path d="M659 599H663V603H659V599Z" fill="#41A6AC"/>
<path d="M679 599H683V603H679V599Z" fill="#41A6AC"/>
<path d="M419 619H423V623H419V619Z" fill="#41A6AC"/>
<path d="M439 619H443V623H439V619Z" fill="#41A6AC"/>
<path d="M459 619H463V623H459V619Z" fill="#41A6AC"/>
<path d="M479 619H483V623H479V619Z" fill="#41A6AC"/>
<path d="M499 619H503V623H499V619Z" fill="#41A6AC"/>
<path d="M519 619H523V623H519V619Z" fill="#41A6AC"/>
<path d="M539 619H543V623H539V619Z" fill="#41A6AC"/>
<path d="M559 619H563V623H559V619Z" fill="#41A6AC"/>
<path d="M579 619H583V623H579V619Z" fill="#41A6AC"/>
<path d="M599 619H603V623H599V619Z" fill="#41A6AC"/>
<path d="M619 619H623V623H619V619Z" fill="#41A6AC"/>
<path d="M639 619H643V623H639V619Z" fill="#41A6AC"/>
<path d="M659 619H663V623H659V619Z" fill="#41A6AC"/>
<path d="M679 619H683V623H679V619Z" fill="#41A6AC"/>
<rect x="53" y="107" width="236" height="283" rx="6" fill="#C1E8E8"/>
<rect x="321" y="292" width="208" height="294" rx="6" fill="#C1E8E8"/>
<rect x="321" y="61" width="283" height="199" rx="6" fill="#C1E8E8"/>
<rect x="193" y="422" width="96" height="96" rx="6" fill="#53BFBF"/>
</svg>
