<svg width="20" height="20" viewBox="0 0 20 20" fill="none" xmlns="http://www.w3.org/2000/svg">
<path d="M2.09488 10.4934L2.2999 10.6984L2.09488 10.4934C1.82151 10.7668 1.37829 10.7668 1.10493 10.4934L0.751374 10.847L1.10493 10.4934C0.831561 10.22 0.831561 9.77683 1.10493 9.50346L9.50493 1.10346C9.7783 0.830096 10.2215 0.830096 10.4949 1.10346L18.8949 9.50346C19.1682 9.77683 19.1682 10.22 18.8949 10.4934C18.6215 10.7668 18.1783 10.7668 17.9049 10.4934L17.5535 10.1419L16.6999 9.28838V10.4955V18.3984C16.6999 18.785 16.3865 19.0984 15.9999 19.0984H13.5999C13.2133 19.0984 12.8999 18.785 12.8999 18.3984V15.9984C12.8999 15.0596 12.1388 14.2984 11.1999 14.2984H8.7999C7.86102 14.2984 7.0999 15.0596 7.0999 15.9984V18.3984C7.0999 18.785 6.7865 19.0984 6.3999 19.0984H3.9999C3.6133 19.0984 3.2999 18.785 3.2999 18.3984V10.4955V9.28839L2.44635 10.1419L2.09488 10.4934Z" fill="#41A6AC" stroke="#41A6AC"/>
</svg>
