<svg width="33" height="32" viewBox="0 0 33 32" fill="none" xmlns="http://www.w3.org/2000/svg">
<path d="M27.9843 27.1366H23.2654V19.7464C23.2654 17.9842 23.2339 15.7157 20.8111 15.7157C18.3533 15.7157 17.9772 17.6357 17.9772 19.6182V27.1361H13.2585V11.939H17.7885V14.0159H17.852C18.3053 13.2407 18.9604 12.603 19.7475 12.1707C20.5346 11.7384 21.4243 11.5277 22.3216 11.561C27.1045 11.561 27.9863 14.707 27.9863 18.7997L27.9843 27.1366ZM7.93386 9.86181C6.42145 9.86206 5.19517 8.63616 5.19492 7.12374C5.19467 5.61133 6.42045 4.38505 7.93287 4.3848C9.44528 4.38443 10.6716 5.61033 10.6718 7.12275C10.6719 7.84904 10.3836 8.54564 9.8701 9.05931C9.35664 9.57298 8.66016 9.86165 7.93386 9.86181ZM10.2934 27.1367H5.56951V11.939H10.2932V27.1366L10.2934 27.1367ZM30.3368 0.00231794H3.19832C1.91568 -0.0121133 0.86382 1.01536 0.848145 2.298V29.5497C0.863322 30.833 1.91506 31.8614 3.19819 31.848H30.3368C31.6227 31.8639 32.6785 30.8354 32.6963 29.5497V2.29588C32.678 1.01076 31.6221 -0.0165919 30.3368 0.000203019" fill="#0A66C2"/>
</svg>
