<svg width="17" height="17" viewBox="0 0 17 17" fill="none" xmlns="http://www.w3.org/2000/svg">
<path d="M11.0414 3.53445C11.8187 2.75711 13.0791 2.75711 13.8564 3.53445C14.6338 4.3118 14.6338 5.57212 13.8564 6.34946L10.8706 9.33523C10.0933 10.1126 8.83298 10.1126 8.05563 9.33523C7.66696 8.94656 7.0368 8.94656 6.64813 9.33523C6.25946 9.7239 6.25946 10.3541 6.64813 10.7427C8.20282 12.2974 10.7235 12.2974 12.2781 10.7427L15.2639 7.75696C16.8186 6.20228 16.8186 3.68164 15.2639 2.12695C13.7092 0.572266 11.1886 0.572266 9.6339 2.12695L8.14101 3.61983C7.75234 4.00851 7.75234 4.63867 8.14101 5.02734C8.52969 5.41601 9.15985 5.41601 9.54852 5.02734L11.0414 3.53445Z" fill="#2E65D5"/>
<path d="M6.06514 8.51073C6.84248 7.73339 8.10281 7.73339 8.88015 8.51073C9.26882 8.8994 9.89898 8.8994 10.2877 8.51073C10.6763 8.12206 10.6763 7.4919 10.2877 7.10323C8.73297 5.54854 6.21232 5.54854 4.65764 7.10323L1.67187 10.089C0.117188 11.6437 0.117188 14.1643 1.67187 15.719C3.22656 17.2737 5.7472 17.2737 7.30189 15.719L8.79477 14.2261C9.18344 13.8375 9.18344 13.2073 8.79477 12.8186C8.4061 12.4299 7.77594 12.4299 7.38727 12.8186L5.89438 14.3115C5.11704 15.0888 3.85672 15.0888 3.07938 14.3115C2.30203 13.5342 2.30203 12.2738 3.07938 11.4965L6.06514 8.51073Z" fill="#2E65D5"/>
</svg>
