<svg width="245" height="475" viewBox="0 0 245 475" fill="none" xmlns="http://www.w3.org/2000/svg">
<g opacity="0.2">
<path d="M185.675 331.775C264.776 252.674 264.776 124.427 185.675 45.3256C106.574 -33.7752 -21.6741 -33.7752 -100.775 45.3256C-179.876 124.427 -179.876 252.674 -100.775 331.775L42.4499 475L185.675 331.775Z" fill="#5DAFAA"/>
<path d="M38.1246 100.223C36.5036 100.677 35.2351 101.584 34.3753 102.874C34.1075 103.285 30.0904 111.406 25.425 120.916C20.7737 130.427 15.2907 141.624 13.247 145.791L9.52589 153.373L6.42501 153.827C-45.3317 161.466 -45.2612 161.452 -46.0364 161.722C-47.4459 162.218 -48.8413 163.465 -49.532 164.826C-50.6032 166.923 -50.5045 169.205 -49.2783 171.26C-48.9541 171.785 -42.9637 177.738 -28.8406 191.528C-10.94 209.004 -8.85392 211.088 -8.9244 211.413C-8.95259 211.612 -9.4741 214.574 -10.052 218.004C-10.644 221.434 -11.6165 227.146 -12.2367 230.689C-12.8428 234.233 -13.9845 240.866 -14.7738 245.43C-15.5631 249.993 -16.6766 256.457 -17.2545 259.816C-18.5231 267.072 -18.5513 267.639 -17.6774 269.453C-16.2397 272.515 -12.6314 273.989 -9.58686 272.756C-9.14992 272.572 2.19652 266.633 15.6149 259.56L40.0133 246.719L51.3456 252.672C57.5756 255.946 68.5838 261.743 75.7863 265.527C83.0029 269.326 89.2188 272.543 89.5993 272.671C90.6001 273.025 92.4888 273.011 93.5459 272.643C94.744 272.231 95.4628 271.764 96.2803 270.857C97.4361 269.581 97.9858 268.192 97.9858 266.52C97.9858 266.066 97.4079 262.381 96.7173 258.327C94.7722 247.06 93.0385 236.982 91.4881 227.925C90.6987 223.404 89.7403 217.777 89.3315 215.425L88.5986 211.13L108.642 191.401C122.243 178.021 128.826 171.445 129.122 170.963C129.728 169.956 129.995 169.12 130.08 167.972C130.306 165.024 128.304 162.118 125.513 161.339C125.062 161.211 120.171 160.474 114.66 159.681C109.135 158.901 100.086 157.626 94.5748 156.846C89.0496 156.052 82.3404 155.103 79.6624 154.72C76.9843 154.351 73.7566 153.898 72.474 153.714C71.1913 153.544 70.0778 153.331 69.9792 153.246C69.8946 153.161 64.3553 141.921 57.6743 128.287C51.0073 114.638 45.313 103.143 45.017 102.718C44.3968 101.797 43.1705 100.861 42.0571 100.436C41.014 100.025 39.1394 99.9257 38.1246 100.223Z" fill="#70C8C2"/>
</g>
</svg>
