<svg width="72" height="87" viewBox="0 0 72 87" fill="none" xmlns="http://www.w3.org/2000/svg">
<path d="M61.4558 61.4558C75.5147 47.397 75.5147 24.603 61.4558 10.5442C47.397 -3.51472 24.603 -3.51472 10.5442 10.5442C-3.51472 24.603 -3.51472 47.397 10.5442 61.4558L36 86.9117L61.4558 61.4558Z" fill="#5DAFAA"/>
<path d="M35.2314 20.3007C34.9433 20.3813 34.7178 20.5426 34.565 20.7718C34.5174 20.8449 33.8034 22.2883 32.9742 23.9786C32.1475 25.6689 31.173 27.659 30.8098 28.3996L30.1484 29.7473L29.5973 29.8279C20.3984 31.1857 20.4109 31.1832 20.2731 31.231C20.0226 31.3192 19.7746 31.5409 19.6519 31.7827C19.4615 32.1556 19.479 32.5611 19.697 32.9264C19.7546 33.0196 20.8193 34.0776 23.3294 36.5287C26.511 39.6347 26.8817 40.005 26.8692 40.063C26.8642 40.0982 26.7715 40.6247 26.6688 41.2343C26.5636 41.844 26.3907 42.8591 26.2805 43.4889C26.1728 44.1187 25.9698 45.2976 25.8296 46.1088C25.6893 46.9199 25.4914 48.0686 25.3887 48.6656C25.1632 49.9554 25.1582 50.0562 25.3135 50.3786C25.569 50.9227 26.2103 51.1847 26.7515 50.9656C26.8291 50.9328 28.8458 49.8773 31.2307 48.6203L35.5671 46.338L37.5812 47.396C38.6885 47.9779 40.645 49.0082 41.9251 49.6808C43.2078 50.3559 44.3125 50.9278 44.3802 50.9504C44.558 51.0134 44.8937 51.0109 45.0816 50.9454C45.2945 50.8724 45.4223 50.7892 45.5676 50.628C45.773 50.4013 45.8707 50.1544 45.8707 49.8572C45.8707 49.7766 45.768 49.1216 45.6453 48.4011C45.2996 46.3985 44.9914 44.6074 44.7159 42.9977C44.5756 42.1941 44.4052 41.194 44.3326 40.7759L44.2023 40.0126L47.7646 36.506C50.1821 34.128 51.352 32.9591 51.4046 32.8735C51.5123 32.6946 51.5599 32.546 51.5749 32.342C51.615 31.818 51.2593 31.3016 50.7633 31.163C50.6831 31.1404 49.8138 31.0094 48.8343 30.8683C47.8523 30.7298 46.244 30.503 45.2645 30.3645C44.2825 30.2234 43.09 30.0546 42.614 29.9866C42.1381 29.9211 41.5644 29.8405 41.3364 29.8078C41.1084 29.7775 40.9105 29.7397 40.893 29.7246C40.878 29.7095 39.8934 27.7119 38.706 25.2885C37.5211 22.8626 36.509 20.8197 36.4564 20.7441C36.3462 20.5804 36.1282 20.4141 35.9303 20.3385C35.7449 20.2655 35.4117 20.2478 35.2314 20.3007Z" fill="#70C8C2"/>
</svg>
