<svg width="18" height="21" viewBox="0 0 18 21" fill="none" xmlns="http://www.w3.org/2000/svg">
<mask id="path-1-inside-1_2647_5806" fill="white">
<path fill-rule="evenodd" clip-rule="evenodd" d="M3.05991 2.85874C6.34032 -0.421663 11.6589 -0.421664 14.9393 2.85874C18.2197 6.13914 18.2197 11.4577 14.9393 14.7381L8.99961 20.6778L3.05991 14.7381C-0.220492 11.4577 -0.220492 6.13914 3.05991 2.85874ZM8.99961 11.1984C10.3251 11.1984 11.3996 10.1239 11.3996 8.79844C11.3996 7.47295 10.3251 6.39844 8.99961 6.39844C7.67413 6.39844 6.59961 7.47295 6.59961 8.79844C6.59961 10.1239 7.67413 11.1984 8.99961 11.1984Z"/>
</mask>
<path fill-rule="evenodd" clip-rule="evenodd" d="M3.05991 2.85874C6.34032 -0.421663 11.6589 -0.421664 14.9393 2.85874C18.2197 6.13914 18.2197 11.4577 14.9393 14.7381L8.99961 20.6778L3.05991 14.7381C-0.220492 11.4577 -0.220492 6.13914 3.05991 2.85874ZM8.99961 11.1984C10.3251 11.1984 11.3996 10.1239 11.3996 8.79844C11.3996 7.47295 10.3251 6.39844 8.99961 6.39844C7.67413 6.39844 6.59961 7.47295 6.59961 8.79844C6.59961 10.1239 7.67413 11.1984 8.99961 11.1984Z" fill="#41A6AC"/>
<path d="M14.9393 14.7381L16.3535 16.1523L14.9393 14.7381ZM14.9393 2.85874L16.3535 1.44453V1.44453L14.9393 2.85874ZM8.99961 20.6778L7.5854 22.092L8.99961 23.5063L10.4138 22.092L8.99961 20.6778ZM3.05991 14.7381L1.6457 16.1523H1.6457L3.05991 14.7381ZM3.05991 2.85874L4.47413 4.27295L3.05991 2.85874ZM16.3535 16.1523C20.415 12.0909 20.415 5.50598 16.3535 1.44453L13.5251 4.27295C16.0244 6.77231 16.0244 10.8246 13.5251 13.3239L16.3535 16.1523ZM10.4138 22.092L16.3535 16.1523L13.5251 13.3239L7.5854 19.2636L10.4138 22.092ZM1.6457 16.1523L7.5854 22.092L10.4138 19.2636L4.47413 13.3239L1.6457 16.1523ZM1.6457 1.44453C-2.41575 5.50598 -2.41575 12.0909 1.6457 16.1523L4.47413 13.3239C1.97477 10.8246 1.97477 6.77231 4.47413 4.27295L1.6457 1.44453ZM16.3535 1.44453C12.2921 -2.61693 5.70715 -2.61693 1.6457 1.44453L4.47413 4.27295C6.97348 1.7736 11.0257 1.7736 13.5251 4.27295L16.3535 1.44453ZM9.39961 8.79844C9.39961 9.01935 9.22052 9.19844 8.99961 9.19844V13.1984C11.4297 13.1984 13.3996 11.2285 13.3996 8.79844H9.39961ZM8.99961 8.39844C9.22052 8.39844 9.39961 8.57752 9.39961 8.79844H13.3996C13.3996 6.36838 11.4297 4.39844 8.99961 4.39844V8.39844ZM8.59961 8.79844C8.59961 8.57752 8.7787 8.39844 8.99961 8.39844V4.39844C6.56956 4.39844 4.59961 6.36838 4.59961 8.79844H8.59961ZM8.99961 9.19844C8.7787 9.19844 8.59961 9.01935 8.59961 8.79844H4.59961C4.59961 11.2285 6.56956 13.1984 8.99961 13.1984V9.19844Z" fill="#41A6AC" mask="url(#path-1-inside-1_2647_5806)"/>
</svg>
