<svg width="20" height="20" viewBox="0 0 20 20" fill="none" xmlns="http://www.w3.org/2000/svg">
<path d="M11.8434 7.65538C12.2053 8.07252 12.8369 8.11726 13.254 7.7553C13.6712 7.39335 13.7159 6.76176 13.354 6.34462L11.8434 7.65538ZM8.15667 12.3446C7.79471 11.9275 7.16313 11.8827 6.74599 12.2447C6.32885 12.6067 6.28411 13.2382 6.64607 13.6554L8.15667 12.3446ZM11 5C11 4.44772 10.5523 4 10 4C9.44771 4 9 4.44772 9 5H11ZM9 15C8.99999 15.5523 9.44769 16 9.99998 16C10.5523 16 11 15.5523 11 15L9 15ZM18 10C18 14.4183 14.4183 18 10 18V20C15.5228 20 20 15.5228 20 10H18ZM10 18C5.58172 18 2 14.4183 2 10H0C0 15.5228 4.47715 20 10 20V18ZM2 10C2 5.58172 5.58172 2 10 2V0C4.47715 0 0 4.47715 0 10H2ZM10 2C14.4183 2 18 5.58172 18 10H20C20 4.47715 15.5228 0 10 0V2ZM10 9C9.34146 9 8.7905 8.82024 8.43338 8.58216C8.06927 8.33942 8 8.1139 8 8H6C6 8.99067 6.6023 9.76515 7.32398 10.2463C8.05265 10.732 9.00168 11 10 11V9ZM8 8C8 7.8861 8.06927 7.66058 8.43338 7.41784C8.7905 7.17976 9.34146 7 10 7V5C9.00168 5 8.05265 5.26796 7.32398 5.75374C6.6023 6.23485 6 7.00933 6 8H8ZM10 7C10.9038 7 11.563 7.33231 11.8434 7.65538L13.354 6.34462C12.5969 5.47209 11.3171 5 10 5V7ZM10 11C10.6585 11 11.2095 11.1798 11.5666 11.4178C11.9308 11.6606 12 11.8861 12 12H14C14 11.0093 13.3977 10.2348 12.676 9.75373C11.9474 9.26796 10.9983 9 10 9V11ZM9 5V6H11V5H9ZM9.00002 14L9 15L11 15L11 14L9.00002 14ZM10 13C9.09625 13 8.43699 12.6677 8.15667 12.3446L6.64607 13.6554C7.40317 14.5279 8.68296 15 10 15L10 13ZM12 12C12 12.1139 11.9308 12.3394 11.5666 12.5822C11.2095 12.8202 10.6586 13 10 13V15C10.9983 15 11.9474 14.732 12.676 14.2463C13.3977 13.7651 14 12.9907 14 12H12ZM9 6L9.00002 14L11 14L11 6L9 6Z" fill="white"/>
</svg>
