<svg width="644" height="571" viewBox="0 0 644 571" fill="none" xmlns="http://www.w3.org/2000/svg">
<path d="M0 370H4V374H0V370Z" fill="#C1E8E8"/>
<path d="M20 370H24V374H20V370Z" fill="#C1E8E8"/>
<path d="M40 370H44V374H40V370Z" fill="#C1E8E8"/>
<path d="M60 370H64V374H60V370Z" fill="#C1E8E8"/>
<path d="M80 370H84V374H80V370Z" fill="#C1E8E8"/>
<path d="M100 370H104V374H100V370Z" fill="#C1E8E8"/>
<path d="M120 370H124V374H120V370Z" fill="#C1E8E8"/>
<path d="M140 370H144V374H140V370Z" fill="#C1E8E8"/>
<path d="M160 370H164V374H160V370Z" fill="#C1E8E8"/>
<path d="M180 370H184V374H180V370Z" fill="#C1E8E8"/>
<path d="M200 370H204V374H200V370Z" fill="#C1E8E8"/>
<path d="M220 370H224V374H220V370Z" fill="#C1E8E8"/>
<path d="M240 370H244V374H240V370Z" fill="#C1E8E8"/>
<path d="M260 370H264V374H260V370Z" fill="#C1E8E8"/>
<path d="M280 370H284V374H280V370Z" fill="#C1E8E8"/>
<path d="M300 370H304V374H300V370Z" fill="#C1E8E8"/>
<path d="M320 370H324V374H320V370Z" fill="#C1E8E8"/>
<path d="M340 370H344V374H340V370Z" fill="#C1E8E8"/>
<path d="M360 370H364V374H360V370Z" fill="#C1E8E8"/>
<path d="M380 370H384V374H380V370Z" fill="#C1E8E8"/>
<path d="M400 370H404V374H400V370Z" fill="#C1E8E8"/>
<path d="M0 390H4V394H0V390Z" fill="#C1E8E8"/>
<path d="M20 390H24V394H20V390Z" fill="#C1E8E8"/>
<path d="M40 390H44V394H40V390Z" fill="#C1E8E8"/>
<path d="M60 390H64V394H60V390Z" fill="#C1E8E8"/>
<path d="M80 390H84V394H80V390Z" fill="#C1E8E8"/>
<path d="M100 390H104V394H100V390Z" fill="#C1E8E8"/>
<path d="M120 390H124V394H120V390Z" fill="#C1E8E8"/>
<path d="M140 390H144V394H140V390Z" fill="#C1E8E8"/>
<path d="M160 390H164V394H160V390Z" fill="#C1E8E8"/>
<path d="M180 390H184V394H180V390Z" fill="#C1E8E8"/>
<path d="M200 390H204V394H200V390Z" fill="#C1E8E8"/>
<path d="M220 390H224V394H220V390Z" fill="#C1E8E8"/>
<path d="M240 390H244V394H240V390Z" fill="#C1E8E8"/>
<path d="M260 390H264V394H260V390Z" fill="#C1E8E8"/>
<path d="M280 390H284V394H280V390Z" fill="#C1E8E8"/>
<path d="M300 390H304V394H300V390Z" fill="#C1E8E8"/>
<path d="M320 390H324V394H320V390Z" fill="#C1E8E8"/>
<path d="M340 390H344V394H340V390Z" fill="#C1E8E8"/>
<path d="M360 390H364V394H360V390Z" fill="#C1E8E8"/>
<path d="M380 390H384V394H380V390Z" fill="#C1E8E8"/>
<path d="M400 390H404V394H400V390Z" fill="#C1E8E8"/>
<path d="M0 410H4V414H0V410Z" fill="#C1E8E8"/>
<path d="M20 410H24V414H20V410Z" fill="#C1E8E8"/>
<path d="M40 410H44V414H40V410Z" fill="#C1E8E8"/>
<path d="M60 410H64V414H60V410Z" fill="#C1E8E8"/>
<path d="M80 410H84V414H80V410Z" fill="#C1E8E8"/>
<path d="M100 410H104V414H100V410Z" fill="#C1E8E8"/>
<path d="M120 410H124V414H120V410Z" fill="#C1E8E8"/>
<path d="M140 410H144V414H140V410Z" fill="#C1E8E8"/>
<path d="M160 410H164V414H160V410Z" fill="#C1E8E8"/>
<path d="M180 410H184V414H180V410Z" fill="#C1E8E8"/>
<path d="M200 410H204V414H200V410Z" fill="#C1E8E8"/>
<path d="M220 410H224V414H220V410Z" fill="#C1E8E8"/>
<path d="M240 410H244V414H240V410Z" fill="#C1E8E8"/>
<path d="M260 410H264V414H260V410Z" fill="#C1E8E8"/>
<path d="M280 410H284V414H280V410Z" fill="#C1E8E8"/>
<path d="M300 410H304V414H300V410Z" fill="#C1E8E8"/>
<path d="M320 410H324V414H320V410Z" fill="#C1E8E8"/>
<path d="M340 410H344V414H340V410Z" fill="#C1E8E8"/>
<path d="M360 410H364V414H360V410Z" fill="#C1E8E8"/>
<path d="M380 410H384V414H380V410Z" fill="#C1E8E8"/>
<path d="M400 410H404V414H400V410Z" fill="#C1E8E8"/>
<path d="M0 430H4V434H0V430Z" fill="#C1E8E8"/>
<path d="M20 430H24V434H20V430Z" fill="#C1E8E8"/>
<path d="M40 430H44V434H40V430Z" fill="#C1E8E8"/>
<path d="M60 430H64V434H60V430Z" fill="#C1E8E8"/>
<path d="M80 430H84V434H80V430Z" fill="#C1E8E8"/>
<path d="M100 430H104V434H100V430Z" fill="#C1E8E8"/>
<path d="M120 430H124V434H120V430Z" fill="#C1E8E8"/>
<path d="M140 430H144V434H140V430Z" fill="#C1E8E8"/>
<path d="M160 430H164V434H160V430Z" fill="#C1E8E8"/>
<path d="M180 430H184V434H180V430Z" fill="#C1E8E8"/>
<path d="M200 430H204V434H200V430Z" fill="#C1E8E8"/>
<path d="M220 430H224V434H220V430Z" fill="#C1E8E8"/>
<path d="M240 430H244V434H240V430Z" fill="#C1E8E8"/>
<path d="M260 430H264V434H260V430Z" fill="#C1E8E8"/>
<path d="M280 430H284V434H280V430Z" fill="#C1E8E8"/>
<path d="M300 430H304V434H300V430Z" fill="#C1E8E8"/>
<path d="M320 430H324V434H320V430Z" fill="#C1E8E8"/>
<path d="M340 430H344V434H340V430Z" fill="#C1E8E8"/>
<path d="M360 430H364V434H360V430Z" fill="#C1E8E8"/>
<path d="M380 430H384V434H380V430Z" fill="#C1E8E8"/>
<path d="M400 430H404V434H400V430Z" fill="#C1E8E8"/>
<path d="M0 450H4V454H0V450Z" fill="#C1E8E8"/>
<path d="M20 450H24V454H20V450Z" fill="#C1E8E8"/>
<path d="M40 450H44V454H40V450Z" fill="#C1E8E8"/>
<path d="M60 450H64V454H60V450Z" fill="#C1E8E8"/>
<path d="M80 450H84V454H80V450Z" fill="#C1E8E8"/>
<path d="M100 450H104V454H100V450Z" fill="#C1E8E8"/>
<path d="M120 450H124V454H120V450Z" fill="#C1E8E8"/>
<path d="M140 450H144V454H140V450Z" fill="#C1E8E8"/>
<path d="M160 450H164V454H160V450Z" fill="#C1E8E8"/>
<path d="M180 450H184V454H180V450Z" fill="#C1E8E8"/>
<path d="M200 450H204V454H200V450Z" fill="#C1E8E8"/>
<path d="M220 450H224V454H220V450Z" fill="#C1E8E8"/>
<path d="M240 450H244V454H240V450Z" fill="#C1E8E8"/>
<path d="M260 450H264V454H260V450Z" fill="#C1E8E8"/>
<path d="M280 450H284V454H280V450Z" fill="#C1E8E8"/>
<path d="M300 450H304V454H300V450Z" fill="#C1E8E8"/>
<path d="M320 450H324V454H320V450Z" fill="#C1E8E8"/>
<path d="M340 450H344V454H340V450Z" fill="#C1E8E8"/>
<path d="M360 450H364V454H360V450Z" fill="#C1E8E8"/>
<path d="M380 450H384V454H380V450Z" fill="#C1E8E8"/>
<path d="M400 450H404V454H400V450Z" fill="#C1E8E8"/>
<path d="M0 470H4V474H0V470Z" fill="#C1E8E8"/>
<path d="M20 470H24V474H20V470Z" fill="#C1E8E8"/>
<path d="M40 470H44V474H40V470Z" fill="#C1E8E8"/>
<path d="M60 470H64V474H60V470Z" fill="#C1E8E8"/>
<path d="M80 470H84V474H80V470Z" fill="#C1E8E8"/>
<path d="M100 470H104V474H100V470Z" fill="#C1E8E8"/>
<path d="M120 470H124V474H120V470Z" fill="#C1E8E8"/>
<path d="M140 470H144V474H140V470Z" fill="#C1E8E8"/>
<path d="M160 470H164V474H160V470Z" fill="#C1E8E8"/>
<path d="M180 470H184V474H180V470Z" fill="#C1E8E8"/>
<path d="M200 470H204V474H200V470Z" fill="#C1E8E8"/>
<path d="M220 470H224V474H220V470Z" fill="#C1E8E8"/>
<path d="M240 470H244V474H240V470Z" fill="#C1E8E8"/>
<path d="M260 470H264V474H260V470Z" fill="#C1E8E8"/>
<path d="M280 470H284V474H280V470Z" fill="#C1E8E8"/>
<path d="M300 470H304V474H300V470Z" fill="#C1E8E8"/>
<path d="M320 470H324V474H320V470Z" fill="#C1E8E8"/>
<path d="M340 470H344V474H340V470Z" fill="#C1E8E8"/>
<path d="M360 470H364V474H360V470Z" fill="#C1E8E8"/>
<path d="M380 470H384V474H380V470Z" fill="#C1E8E8"/>
<path d="M400 470H404V474H400V470Z" fill="#C1E8E8"/>
<path d="M0 490H4V494H0V490Z" fill="#C1E8E8"/>
<path d="M20 490H24V494H20V490Z" fill="#C1E8E8"/>
<path d="M40 490H44V494H40V490Z" fill="#C1E8E8"/>
<path d="M60 490H64V494H60V490Z" fill="#C1E8E8"/>
<path d="M80 490H84V494H80V490Z" fill="#C1E8E8"/>
<path d="M100 490H104V494H100V490Z" fill="#C1E8E8"/>
<path d="M120 490H124V494H120V490Z" fill="#C1E8E8"/>
<path d="M140 490H144V494H140V490Z" fill="#C1E8E8"/>
<path d="M160 490H164V494H160V490Z" fill="#C1E8E8"/>
<path d="M180 490H184V494H180V490Z" fill="#C1E8E8"/>
<path d="M200 490H204V494H200V490Z" fill="#C1E8E8"/>
<path d="M220 490H224V494H220V490Z" fill="#C1E8E8"/>
<path d="M240 490H244V494H240V490Z" fill="#C1E8E8"/>
<path d="M260 490H264V494H260V490Z" fill="#C1E8E8"/>
<path d="M280 490H284V494H280V490Z" fill="#C1E8E8"/>
<path d="M300 490H304V494H300V490Z" fill="#C1E8E8"/>
<path d="M320 490H324V494H320V490Z" fill="#C1E8E8"/>
<path d="M340 490H344V494H340V490Z" fill="#C1E8E8"/>
<path d="M360 490H364V494H360V490Z" fill="#C1E8E8"/>
<path d="M380 490H384V494H380V490Z" fill="#C1E8E8"/>
<path d="M400 490H404V494H400V490Z" fill="#C1E8E8"/>
<path d="M0 510H4V514H0V510Z" fill="#C1E8E8"/>
<path d="M20 510H24V514H20V510Z" fill="#C1E8E8"/>
<path d="M40 510H44V514H40V510Z" fill="#C1E8E8"/>
<path d="M60 510H64V514H60V510Z" fill="#C1E8E8"/>
<path d="M80 510H84V514H80V510Z" fill="#C1E8E8"/>
<path d="M100 510H104V514H100V510Z" fill="#C1E8E8"/>
<path d="M120 510H124V514H120V510Z" fill="#C1E8E8"/>
<path d="M140 510H144V514H140V510Z" fill="#C1E8E8"/>
<path d="M160 510H164V514H160V510Z" fill="#C1E8E8"/>
<path d="M180 510H184V514H180V510Z" fill="#C1E8E8"/>
<path d="M200 510H204V514H200V510Z" fill="#C1E8E8"/>
<path d="M220 510H224V514H220V510Z" fill="#C1E8E8"/>
<path d="M240 510H244V514H240V510Z" fill="#C1E8E8"/>
<path d="M260 510H264V514H260V510Z" fill="#C1E8E8"/>
<path d="M280 510H284V514H280V510Z" fill="#C1E8E8"/>
<path d="M300 510H304V514H300V510Z" fill="#C1E8E8"/>
<path d="M320 510H324V514H320V510Z" fill="#C1E8E8"/>
<path d="M340 510H344V514H340V510Z" fill="#C1E8E8"/>
<path d="M360 510H364V514H360V510Z" fill="#C1E8E8"/>
<path d="M380 510H384V514H380V510Z" fill="#C1E8E8"/>
<path d="M400 510H404V514H400V510Z" fill="#C1E8E8"/>
<path d="M0 530H4V534H0V530Z" fill="#C1E8E8"/>
<path d="M20 530H24V534H20V530Z" fill="#C1E8E8"/>
<path d="M40 530H44V534H40V530Z" fill="#C1E8E8"/>
<path d="M60 530H64V534H60V530Z" fill="#C1E8E8"/>
<path d="M80 530H84V534H80V530Z" fill="#C1E8E8"/>
<path d="M100 530H104V534H100V530Z" fill="#C1E8E8"/>
<path d="M120 530H124V534H120V530Z" fill="#C1E8E8"/>
<path d="M140 530H144V534H140V530Z" fill="#C1E8E8"/>
<path d="M160 530H164V534H160V530Z" fill="#C1E8E8"/>
<path d="M180 530H184V534H180V530Z" fill="#C1E8E8"/>
<path d="M200 530H204V534H200V530Z" fill="#C1E8E8"/>
<path d="M220 530H224V534H220V530Z" fill="#C1E8E8"/>
<path d="M240 530H244V534H240V530Z" fill="#C1E8E8"/>
<path d="M260 530H264V534H260V530Z" fill="#C1E8E8"/>
<path d="M280 530H284V534H280V530Z" fill="#C1E8E8"/>
<path d="M300 530H304V534H300V530Z" fill="#C1E8E8"/>
<path d="M320 530H324V534H320V530Z" fill="#C1E8E8"/>
<path d="M340 530H344V534H340V530Z" fill="#C1E8E8"/>
<path d="M360 530H364V534H360V530Z" fill="#C1E8E8"/>
<path d="M380 530H384V534H380V530Z" fill="#C1E8E8"/>
<path d="M400 530H404V534H400V530Z" fill="#C1E8E8"/>
<path d="M0 550H4V554H0V550Z" fill="#C1E8E8"/>
<path d="M20 550H24V554H20V550Z" fill="#C1E8E8"/>
<path d="M40 550H44V554H40V550Z" fill="#C1E8E8"/>
<path d="M60 550H64V554H60V550Z" fill="#C1E8E8"/>
<path d="M80 550H84V554H80V550Z" fill="#C1E8E8"/>
<path d="M100 550H104V554H100V550Z" fill="#C1E8E8"/>
<path d="M120 550H124V554H120V550Z" fill="#C1E8E8"/>
<path d="M140 550H144V554H140V550Z" fill="#C1E8E8"/>
<path d="M160 550H164V554H160V550Z" fill="#C1E8E8"/>
<path d="M180 550H184V554H180V550Z" fill="#C1E8E8"/>
<path d="M200 550H204V554H200V550Z" fill="#C1E8E8"/>
<path d="M220 550H224V554H220V550Z" fill="#C1E8E8"/>
<path d="M240 550H244V554H240V550Z" fill="#C1E8E8"/>
<path d="M260 550H264V554H260V550Z" fill="#C1E8E8"/>
<path d="M280 550H284V554H280V550Z" fill="#C1E8E8"/>
<path d="M300 550H304V554H300V550Z" fill="#C1E8E8"/>
<path d="M320 550H324V554H320V550Z" fill="#C1E8E8"/>
<path d="M340 550H344V554H340V550Z" fill="#C1E8E8"/>
<path d="M360 550H364V554H360V550Z" fill="#C1E8E8"/>
<path d="M380 550H384V554H380V550Z" fill="#C1E8E8"/>
<path d="M400 550H404V554H400V550Z" fill="#C1E8E8"/>
<path d="M0 570H4V574H0V570Z" fill="#C1E8E8"/>
<path d="M20 570H24V574H20V570Z" fill="#C1E8E8"/>
<path d="M40 570H44V574H40V570Z" fill="#C1E8E8"/>
<path d="M60 570H64V574H60V570Z" fill="#C1E8E8"/>
<path d="M80 570H84V574H80V570Z" fill="#C1E8E8"/>
<path d="M100 570H104V574H100V570Z" fill="#C1E8E8"/>
<path d="M120 570H124V574H120V570Z" fill="#C1E8E8"/>
<path d="M140 570H144V574H140V570Z" fill="#C1E8E8"/>
<path d="M160 570H164V574H160V570Z" fill="#C1E8E8"/>
<path d="M180 570H184V574H180V570Z" fill="#C1E8E8"/>
<path d="M200 570H204V574H200V570Z" fill="#C1E8E8"/>
<path d="M220 570H224V574H220V570Z" fill="#C1E8E8"/>
<path d="M240 570H244V574H240V570Z" fill="#C1E8E8"/>
<path d="M260 570H264V574H260V570Z" fill="#C1E8E8"/>
<path d="M280 570H284V574H280V570Z" fill="#C1E8E8"/>
<path d="M300 570H304V574H300V570Z" fill="#C1E8E8"/>
<path d="M320 570H324V574H320V570Z" fill="#C1E8E8"/>
<path d="M340 570H344V574H340V570Z" fill="#C1E8E8"/>
<path d="M360 570H364V574H360V570Z" fill="#C1E8E8"/>
<path d="M380 570H384V574H380V570Z" fill="#C1E8E8"/>
<path d="M400 570H404V574H400V570Z" fill="#C1E8E8"/>
<path d="M0 590H4V594H0V590Z" fill="#C1E8E8"/>
<path d="M20 590H24V594H20V590Z" fill="#C1E8E8"/>
<path d="M40 590H44V594H40V590Z" fill="#C1E8E8"/>
<path d="M60 590H64V594H60V590Z" fill="#C1E8E8"/>
<path d="M80 590H84V594H80V590Z" fill="#C1E8E8"/>
<path d="M100 590H104V594H100V590Z" fill="#C1E8E8"/>
<path d="M120 590H124V594H120V590Z" fill="#C1E8E8"/>
<path d="M140 590H144V594H140V590Z" fill="#C1E8E8"/>
<path d="M160 590H164V594H160V590Z" fill="#C1E8E8"/>
<path d="M180 590H184V594H180V590Z" fill="#C1E8E8"/>
<path d="M200 590H204V594H200V590Z" fill="#C1E8E8"/>
<path d="M220 590H224V594H220V590Z" fill="#C1E8E8"/>
<path d="M240 590H244V594H240V590Z" fill="#C1E8E8"/>
<path d="M260 590H264V594H260V590Z" fill="#C1E8E8"/>
<path d="M280 590H284V594H280V590Z" fill="#C1E8E8"/>
<path d="M300 590H304V594H300V590Z" fill="#C1E8E8"/>
<path d="M320 590H324V594H320V590Z" fill="#C1E8E8"/>
<path d="M340 590H344V594H340V590Z" fill="#C1E8E8"/>
<path d="M360 590H364V594H360V590Z" fill="#C1E8E8"/>
<path d="M380 590H384V594H380V590Z" fill="#C1E8E8"/>
<path d="M400 590H404V594H400V590Z" fill="#C1E8E8"/>
<path d="M0 610H4V614H0V610Z" fill="#C1E8E8"/>
<path d="M20 610H24V614H20V610Z" fill="#C1E8E8"/>
<path d="M40 610H44V614H40V610Z" fill="#C1E8E8"/>
<path d="M60 610H64V614H60V610Z" fill="#C1E8E8"/>
<path d="M80 610H84V614H80V610Z" fill="#C1E8E8"/>
<path d="M100 610H104V614H100V610Z" fill="#C1E8E8"/>
<path d="M120 610H124V614H120V610Z" fill="#C1E8E8"/>
<path d="M140 610H144V614H140V610Z" fill="#C1E8E8"/>
<path d="M160 610H164V614H160V610Z" fill="#C1E8E8"/>
<path d="M180 610H184V614H180V610Z" fill="#C1E8E8"/>
<path d="M200 610H204V614H200V610Z" fill="#C1E8E8"/>
<path d="M220 610H224V614H220V610Z" fill="#C1E8E8"/>
<path d="M240 610H244V614H240V610Z" fill="#C1E8E8"/>
<path d="M260 610H264V614H260V610Z" fill="#C1E8E8"/>
<path d="M280 610H284V614H280V610Z" fill="#C1E8E8"/>
<path d="M300 610H304V614H300V610Z" fill="#C1E8E8"/>
<path d="M320 610H324V614H320V610Z" fill="#C1E8E8"/>
<path d="M340 610H344V614H340V610Z" fill="#C1E8E8"/>
<path d="M360 610H364V614H360V610Z" fill="#C1E8E8"/>
<path d="M380 610H384V614H380V610Z" fill="#C1E8E8"/>
<path d="M400 610H404V614H400V610Z" fill="#C1E8E8"/>
<path d="M0 630H4V634H0V630Z" fill="#C1E8E8"/>
<path d="M20 630H24V634H20V630Z" fill="#C1E8E8"/>
<path d="M40 630H44V634H40V630Z" fill="#C1E8E8"/>
<path d="M60 630H64V634H60V630Z" fill="#C1E8E8"/>
<path d="M80 630H84V634H80V630Z" fill="#C1E8E8"/>
<path d="M100 630H104V634H100V630Z" fill="#C1E8E8"/>
<path d="M120 630H124V634H120V630Z" fill="#C1E8E8"/>
<path d="M140 630H144V634H140V630Z" fill="#C1E8E8"/>
<path d="M160 630H164V634H160V630Z" fill="#C1E8E8"/>
<path d="M180 630H184V634H180V630Z" fill="#C1E8E8"/>
<path d="M200 630H204V634H200V630Z" fill="#C1E8E8"/>
<path d="M220 630H224V634H220V630Z" fill="#C1E8E8"/>
<path d="M240 630H244V634H240V630Z" fill="#C1E8E8"/>
<path d="M260 630H264V634H260V630Z" fill="#C1E8E8"/>
<path d="M280 630H284V634H280V630Z" fill="#C1E8E8"/>
<path d="M300 630H304V634H300V630Z" fill="#C1E8E8"/>
<path d="M320 630H324V634H320V630Z" fill="#C1E8E8"/>
<path d="M340 630H344V634H340V630Z" fill="#C1E8E8"/>
<path d="M360 630H364V634H360V630Z" fill="#C1E8E8"/>
<path d="M380 630H384V634H380V630Z" fill="#C1E8E8"/>
<path d="M400 630H404V634H400V630Z" fill="#C1E8E8"/>
<path d="M0 650H4V654H0V650Z" fill="#C1E8E8"/>
<path d="M20 650H24V654H20V650Z" fill="#C1E8E8"/>
<path d="M40 650H44V654H40V650Z" fill="#C1E8E8"/>
<path d="M60 650H64V654H60V650Z" fill="#C1E8E8"/>
<path d="M80 650H84V654H80V650Z" fill="#C1E8E8"/>
<path d="M100 650H104V654H100V650Z" fill="#C1E8E8"/>
<path d="M120 650H124V654H120V650Z" fill="#C1E8E8"/>
<path d="M140 650H144V654H140V650Z" fill="#C1E8E8"/>
<path d="M160 650H164V654H160V650Z" fill="#C1E8E8"/>
<path d="M180 650H184V654H180V650Z" fill="#C1E8E8"/>
<path d="M200 650H204V654H200V650Z" fill="#C1E8E8"/>
<path d="M220 650H224V654H220V650Z" fill="#C1E8E8"/>
<path d="M240 650H244V654H240V650Z" fill="#C1E8E8"/>
<path d="M260 650H264V654H260V650Z" fill="#C1E8E8"/>
<path d="M280 650H284V654H280V650Z" fill="#C1E8E8"/>
<path d="M300 650H304V654H300V650Z" fill="#C1E8E8"/>
<path d="M320 650H324V654H320V650Z" fill="#C1E8E8"/>
<path d="M340 650H344V654H340V650Z" fill="#C1E8E8"/>
<path d="M360 650H364V654H360V650Z" fill="#C1E8E8"/>
<path d="M380 650H384V654H380V650Z" fill="#C1E8E8"/>
<path d="M400 650H404V654H400V650Z" fill="#C1E8E8"/>
<path d="M0 670H4V674H0V670Z" fill="#C1E8E8"/>
<path d="M20 670H24V674H20V670Z" fill="#C1E8E8"/>
<path d="M40 670H44V674H40V670Z" fill="#C1E8E8"/>
<path d="M60 670H64V674H60V670Z" fill="#C1E8E8"/>
<path d="M80 670H84V674H80V670Z" fill="#C1E8E8"/>
<path d="M100 670H104V674H100V670Z" fill="#C1E8E8"/>
<path d="M120 670H124V674H120V670Z" fill="#C1E8E8"/>
<path d="M140 670H144V674H140V670Z" fill="#C1E8E8"/>
<path d="M160 670H164V674H160V670Z" fill="#C1E8E8"/>
<path d="M180 670H184V674H180V670Z" fill="#C1E8E8"/>
<path d="M200 670H204V674H200V670Z" fill="#C1E8E8"/>
<path d="M220 670H224V674H220V670Z" fill="#C1E8E8"/>
<path d="M240 670H244V674H240V670Z" fill="#C1E8E8"/>
<path d="M260 670H264V674H260V670Z" fill="#C1E8E8"/>
<path d="M280 670H284V674H280V670Z" fill="#C1E8E8"/>
<path d="M300 670H304V674H300V670Z" fill="#C1E8E8"/>
<path d="M320 670H324V674H320V670Z" fill="#C1E8E8"/>
<path d="M340 670H344V674H340V670Z" fill="#C1E8E8"/>
<path d="M360 670H364V674H360V670Z" fill="#C1E8E8"/>
<path d="M380 670H384V674H380V670Z" fill="#C1E8E8"/>
<path d="M400 670H404V674H400V670Z" fill="#C1E8E8"/>
<path d="M0 690H4V694H0V690Z" fill="#C1E8E8"/>
<path d="M20 690H24V694H20V690Z" fill="#C1E8E8"/>
<path d="M40 690H44V694H40V690Z" fill="#C1E8E8"/>
<path d="M60 690H64V694H60V690Z" fill="#C1E8E8"/>
<path d="M80 690H84V694H80V690Z" fill="#C1E8E8"/>
<path d="M100 690H104V694H100V690Z" fill="#C1E8E8"/>
<path d="M120 690H124V694H120V690Z" fill="#C1E8E8"/>
<path d="M140 690H144V694H140V690Z" fill="#C1E8E8"/>
<path d="M160 690H164V694H160V690Z" fill="#C1E8E8"/>
<path d="M180 690H184V694H180V690Z" fill="#C1E8E8"/>
<path d="M200 690H204V694H200V690Z" fill="#C1E8E8"/>
<path d="M220 690H224V694H220V690Z" fill="#C1E8E8"/>
<path d="M240 690H244V694H240V690Z" fill="#C1E8E8"/>
<path d="M260 690H264V694H260V690Z" fill="#C1E8E8"/>
<path d="M280 690H284V694H280V690Z" fill="#C1E8E8"/>
<path d="M300 690H304V694H300V690Z" fill="#C1E8E8"/>
<path d="M320 690H324V694H320V690Z" fill="#C1E8E8"/>
<path d="M340 690H344V694H340V690Z" fill="#C1E8E8"/>
<path d="M360 690H364V694H360V690Z" fill="#C1E8E8"/>
<path d="M380 690H384V694H380V690Z" fill="#C1E8E8"/>
<path d="M400 690H404V694H400V690Z" fill="#C1E8E8"/>
<path d="M0 710H4V714H0V710Z" fill="#C1E8E8"/>
<path d="M20 710H24V714H20V710Z" fill="#C1E8E8"/>
<path d="M40 710H44V714H40V710Z" fill="#C1E8E8"/>
<path d="M60 710H64V714H60V710Z" fill="#C1E8E8"/>
<path d="M80 710H84V714H80V710Z" fill="#C1E8E8"/>
<path d="M100 710H104V714H100V710Z" fill="#C1E8E8"/>
<path d="M120 710H124V714H120V710Z" fill="#C1E8E8"/>
<path d="M140 710H144V714H140V710Z" fill="#C1E8E8"/>
<path d="M160 710H164V714H160V710Z" fill="#C1E8E8"/>
<path d="M180 710H184V714H180V710Z" fill="#C1E8E8"/>
<path d="M200 710H204V714H200V710Z" fill="#C1E8E8"/>
<path d="M220 710H224V714H220V710Z" fill="#C1E8E8"/>
<path d="M240 710H244V714H240V710Z" fill="#C1E8E8"/>
<path d="M260 710H264V714H260V710Z" fill="#C1E8E8"/>
<path d="M280 710H284V714H280V710Z" fill="#C1E8E8"/>
<path d="M300 710H304V714H300V710Z" fill="#C1E8E8"/>
<path d="M320 710H324V714H320V710Z" fill="#C1E8E8"/>
<path d="M340 710H344V714H340V710Z" fill="#C1E8E8"/>
<path d="M360 710H364V714H360V710Z" fill="#C1E8E8"/>
<path d="M380 710H384V714H380V710Z" fill="#C1E8E8"/>
<path d="M400 710H404V714H400V710Z" fill="#C1E8E8"/>
<path d="M0 730H4V734H0V730Z" fill="#C1E8E8"/>
<path d="M20 730H24V734H20V730Z" fill="#C1E8E8"/>
<path d="M40 730H44V734H40V730Z" fill="#C1E8E8"/>
<path d="M60 730H64V734H60V730Z" fill="#C1E8E8"/>
<path d="M80 730H84V734H80V730Z" fill="#C1E8E8"/>
<path d="M100 730H104V734H100V730Z" fill="#C1E8E8"/>
<path d="M120 730H124V734H120V730Z" fill="#C1E8E8"/>
<path d="M140 730H144V734H140V730Z" fill="#C1E8E8"/>
<path d="M160 730H164V734H160V730Z" fill="#C1E8E8"/>
<path d="M180 730H184V734H180V730Z" fill="#C1E8E8"/>
<path d="M200 730H204V734H200V730Z" fill="#C1E8E8"/>
<path d="M220 730H224V734H220V730Z" fill="#C1E8E8"/>
<path d="M240 730H244V734H240V730Z" fill="#C1E8E8"/>
<path d="M260 730H264V734H260V730Z" fill="#C1E8E8"/>
<path d="M280 730H284V734H280V730Z" fill="#C1E8E8"/>
<path d="M300 730H304V734H300V730Z" fill="#C1E8E8"/>
<path d="M320 730H324V734H320V730Z" fill="#C1E8E8"/>
<path d="M340 730H344V734H340V730Z" fill="#C1E8E8"/>
<path d="M360 730H364V734H360V730Z" fill="#C1E8E8"/>
<path d="M380 730H384V734H380V730Z" fill="#C1E8E8"/>
<path d="M400 730H404V734H400V730Z" fill="#C1E8E8"/>
<path d="M0 750H4V754H0V750Z" fill="#C1E8E8"/>
<path d="M20 750H24V754H20V750Z" fill="#C1E8E8"/>
<path d="M40 750H44V754H40V750Z" fill="#C1E8E8"/>
<path d="M60 750H64V754H60V750Z" fill="#C1E8E8"/>
<path d="M80 750H84V754H80V750Z" fill="#C1E8E8"/>
<path d="M100 750H104V754H100V750Z" fill="#C1E8E8"/>
<path d="M120 750H124V754H120V750Z" fill="#C1E8E8"/>
<path d="M140 750H144V754H140V750Z" fill="#C1E8E8"/>
<path d="M160 750H164V754H160V750Z" fill="#C1E8E8"/>
<path d="M180 750H184V754H180V750Z" fill="#C1E8E8"/>
<path d="M200 750H204V754H200V750Z" fill="#C1E8E8"/>
<path d="M220 750H224V754H220V750Z" fill="#C1E8E8"/>
<path d="M240 750H244V754H240V750Z" fill="#C1E8E8"/>
<path d="M260 750H264V754H260V750Z" fill="#C1E8E8"/>
<path d="M280 750H284V754H280V750Z" fill="#C1E8E8"/>
<path d="M300 750H304V754H300V750Z" fill="#C1E8E8"/>
<path d="M320 750H324V754H320V750Z" fill="#C1E8E8"/>
<path d="M340 750H344V754H340V750Z" fill="#C1E8E8"/>
<path d="M360 750H364V754H360V750Z" fill="#C1E8E8"/>
<path d="M380 750H384V754H380V750Z" fill="#C1E8E8"/>
<path d="M400 750H404V754H400V750Z" fill="#C1E8E8"/>
<path d="M0 770H4V774H0V770Z" fill="#C1E8E8"/>
<path d="M20 770H24V774H20V770Z" fill="#C1E8E8"/>
<path d="M40 770H44V774H40V770Z" fill="#C1E8E8"/>
<path d="M60 770H64V774H60V770Z" fill="#C1E8E8"/>
<path d="M80 770H84V774H80V770Z" fill="#C1E8E8"/>
<path d="M100 770H104V774H100V770Z" fill="#C1E8E8"/>
<path d="M120 770H124V774H120V770Z" fill="#C1E8E8"/>
<path d="M140 770H144V774H140V770Z" fill="#C1E8E8"/>
<path d="M160 770H164V774H160V770Z" fill="#C1E8E8"/>
<path d="M180 770H184V774H180V770Z" fill="#C1E8E8"/>
<path d="M200 770H204V774H200V770Z" fill="#C1E8E8"/>
<path d="M220 770H224V774H220V770Z" fill="#C1E8E8"/>
<path d="M240 770H244V774H240V770Z" fill="#C1E8E8"/>
<path d="M260 770H264V774H260V770Z" fill="#C1E8E8"/>
<path d="M280 770H284V774H280V770Z" fill="#C1E8E8"/>
<path d="M300 770H304V774H300V770Z" fill="#C1E8E8"/>
<path d="M320 770H324V774H320V770Z" fill="#C1E8E8"/>
<path d="M340 770H344V774H340V770Z" fill="#C1E8E8"/>
<path d="M360 770H364V774H360V770Z" fill="#C1E8E8"/>
<path d="M380 770H384V774H380V770Z" fill="#C1E8E8"/>
<path d="M400 770H404V774H400V770Z" fill="#C1E8E8"/>
<path d="M240 -240H244V-236H240V-240Z" fill="#C1E8E8"/>
<path d="M260 -240H264V-236H260V-240Z" fill="#C1E8E8"/>
<path d="M280 -240H284V-236H280V-240Z" fill="#C1E8E8"/>
<path d="M300 -240H304V-236H300V-240Z" fill="#C1E8E8"/>
<path d="M320 -240H324V-236H320V-240Z" fill="#C1E8E8"/>
<path d="M340 -240H344V-236H340V-240Z" fill="#C1E8E8"/>
<path d="M360 -240H364V-236H360V-240Z" fill="#C1E8E8"/>
<path d="M380 -240H384V-236H380V-240Z" fill="#C1E8E8"/>
<path d="M400 -240H404V-236H400V-240Z" fill="#C1E8E8"/>
<path d="M420 -240H424V-236H420V-240Z" fill="#C1E8E8"/>
<path d="M440 -240H444V-236H440V-240Z" fill="#C1E8E8"/>
<path d="M460 -240H464V-236H460V-240Z" fill="#C1E8E8"/>
<path d="M480 -240H484V-236H480V-240Z" fill="#C1E8E8"/>
<path d="M500 -240H504V-236H500V-240Z" fill="#C1E8E8"/>
<path d="M520 -240H524V-236H520V-240Z" fill="#C1E8E8"/>
<path d="M540 -240H544V-236H540V-240Z" fill="#C1E8E8"/>
<path d="M560 -240H564V-236H560V-240Z" fill="#C1E8E8"/>
<path d="M580 -240H584V-236H580V-240Z" fill="#C1E8E8"/>
<path d="M600 -240H604V-236H600V-240Z" fill="#C1E8E8"/>
<path d="M620 -240H624V-236H620V-240Z" fill="#C1E8E8"/>
<path d="M640 -240H644V-236H640V-240Z" fill="#C1E8E8"/>
<path d="M240 -220H244V-216H240V-220Z" fill="#C1E8E8"/>
<path d="M260 -220H264V-216H260V-220Z" fill="#C1E8E8"/>
<path d="M280 -220H284V-216H280V-220Z" fill="#C1E8E8"/>
<path d="M300 -220H304V-216H300V-220Z" fill="#C1E8E8"/>
<path d="M320 -220H324V-216H320V-220Z" fill="#C1E8E8"/>
<path d="M340 -220H344V-216H340V-220Z" fill="#C1E8E8"/>
<path d="M360 -220H364V-216H360V-220Z" fill="#C1E8E8"/>
<path d="M380 -220H384V-216H380V-220Z" fill="#C1E8E8"/>
<path d="M400 -220H404V-216H400V-220Z" fill="#C1E8E8"/>
<path d="M420 -220H424V-216H420V-220Z" fill="#C1E8E8"/>
<path d="M440 -220H444V-216H440V-220Z" fill="#C1E8E8"/>
<path d="M460 -220H464V-216H460V-220Z" fill="#C1E8E8"/>
<path d="M480 -220H484V-216H480V-220Z" fill="#C1E8E8"/>
<path d="M500 -220H504V-216H500V-220Z" fill="#C1E8E8"/>
<path d="M520 -220H524V-216H520V-220Z" fill="#C1E8E8"/>
<path d="M540 -220H544V-216H540V-220Z" fill="#C1E8E8"/>
<path d="M560 -220H564V-216H560V-220Z" fill="#C1E8E8"/>
<path d="M580 -220H584V-216H580V-220Z" fill="#C1E8E8"/>
<path d="M600 -220H604V-216H600V-220Z" fill="#C1E8E8"/>
<path d="M620 -220H624V-216H620V-220Z" fill="#C1E8E8"/>
<path d="M640 -220H644V-216H640V-220Z" fill="#C1E8E8"/>
<path d="M240 -200H244V-196H240V-200Z" fill="#C1E8E8"/>
<path d="M260 -200H264V-196H260V-200Z" fill="#C1E8E8"/>
<path d="M280 -200H284V-196H280V-200Z" fill="#C1E8E8"/>
<path d="M300 -200H304V-196H300V-200Z" fill="#C1E8E8"/>
<path d="M320 -200H324V-196H320V-200Z" fill="#C1E8E8"/>
<path d="M340 -200H344V-196H340V-200Z" fill="#C1E8E8"/>
<path d="M360 -200H364V-196H360V-200Z" fill="#C1E8E8"/>
<path d="M380 -200H384V-196H380V-200Z" fill="#C1E8E8"/>
<path d="M400 -200H404V-196H400V-200Z" fill="#C1E8E8"/>
<path d="M420 -200H424V-196H420V-200Z" fill="#C1E8E8"/>
<path d="M440 -200H444V-196H440V-200Z" fill="#C1E8E8"/>
<path d="M460 -200H464V-196H460V-200Z" fill="#C1E8E8"/>
<path d="M480 -200H484V-196H480V-200Z" fill="#C1E8E8"/>
<path d="M500 -200H504V-196H500V-200Z" fill="#C1E8E8"/>
<path d="M520 -200H524V-196H520V-200Z" fill="#C1E8E8"/>
<path d="M540 -200H544V-196H540V-200Z" fill="#C1E8E8"/>
<path d="M560 -200H564V-196H560V-200Z" fill="#C1E8E8"/>
<path d="M580 -200H584V-196H580V-200Z" fill="#C1E8E8"/>
<path d="M600 -200H604V-196H600V-200Z" fill="#C1E8E8"/>
<path d="M620 -200H624V-196H620V-200Z" fill="#C1E8E8"/>
<path d="M640 -200H644V-196H640V-200Z" fill="#C1E8E8"/>
<path d="M240 -180H244V-176H240V-180Z" fill="#C1E8E8"/>
<path d="M260 -180H264V-176H260V-180Z" fill="#C1E8E8"/>
<path d="M280 -180H284V-176H280V-180Z" fill="#C1E8E8"/>
<path d="M300 -180H304V-176H300V-180Z" fill="#C1E8E8"/>
<path d="M320 -180H324V-176H320V-180Z" fill="#C1E8E8"/>
<path d="M340 -180H344V-176H340V-180Z" fill="#C1E8E8"/>
<path d="M360 -180H364V-176H360V-180Z" fill="#C1E8E8"/>
<path d="M380 -180H384V-176H380V-180Z" fill="#C1E8E8"/>
<path d="M400 -180H404V-176H400V-180Z" fill="#C1E8E8"/>
<path d="M420 -180H424V-176H420V-180Z" fill="#C1E8E8"/>
<path d="M440 -180H444V-176H440V-180Z" fill="#C1E8E8"/>
<path d="M460 -180H464V-176H460V-180Z" fill="#C1E8E8"/>
<path d="M480 -180H484V-176H480V-180Z" fill="#C1E8E8"/>
<path d="M500 -180H504V-176H500V-180Z" fill="#C1E8E8"/>
<path d="M520 -180H524V-176H520V-180Z" fill="#C1E8E8"/>
<path d="M540 -180H544V-176H540V-180Z" fill="#C1E8E8"/>
<path d="M560 -180H564V-176H560V-180Z" fill="#C1E8E8"/>
<path d="M580 -180H584V-176H580V-180Z" fill="#C1E8E8"/>
<path d="M600 -180H604V-176H600V-180Z" fill="#C1E8E8"/>
<path d="M620 -180H624V-176H620V-180Z" fill="#C1E8E8"/>
<path d="M640 -180H644V-176H640V-180Z" fill="#C1E8E8"/>
<path d="M240 -160H244V-156H240V-160Z" fill="#C1E8E8"/>
<path d="M260 -160H264V-156H260V-160Z" fill="#C1E8E8"/>
<path d="M280 -160H284V-156H280V-160Z" fill="#C1E8E8"/>
<path d="M300 -160H304V-156H300V-160Z" fill="#C1E8E8"/>
<path d="M320 -160H324V-156H320V-160Z" fill="#C1E8E8"/>
<path d="M340 -160H344V-156H340V-160Z" fill="#C1E8E8"/>
<path d="M360 -160H364V-156H360V-160Z" fill="#C1E8E8"/>
<path d="M380 -160H384V-156H380V-160Z" fill="#C1E8E8"/>
<path d="M400 -160H404V-156H400V-160Z" fill="#C1E8E8"/>
<path d="M420 -160H424V-156H420V-160Z" fill="#C1E8E8"/>
<path d="M440 -160H444V-156H440V-160Z" fill="#C1E8E8"/>
<path d="M460 -160H464V-156H460V-160Z" fill="#C1E8E8"/>
<path d="M480 -160H484V-156H480V-160Z" fill="#C1E8E8"/>
<path d="M500 -160H504V-156H500V-160Z" fill="#C1E8E8"/>
<path d="M520 -160H524V-156H520V-160Z" fill="#C1E8E8"/>
<path d="M540 -160H544V-156H540V-160Z" fill="#C1E8E8"/>
<path d="M560 -160H564V-156H560V-160Z" fill="#C1E8E8"/>
<path d="M580 -160H584V-156H580V-160Z" fill="#C1E8E8"/>
<path d="M600 -160H604V-156H600V-160Z" fill="#C1E8E8"/>
<path d="M620 -160H624V-156H620V-160Z" fill="#C1E8E8"/>
<path d="M640 -160H644V-156H640V-160Z" fill="#C1E8E8"/>
<path d="M240 -140H244V-136H240V-140Z" fill="#C1E8E8"/>
<path d="M260 -140H264V-136H260V-140Z" fill="#C1E8E8"/>
<path d="M280 -140H284V-136H280V-140Z" fill="#C1E8E8"/>
<path d="M300 -140H304V-136H300V-140Z" fill="#C1E8E8"/>
<path d="M320 -140H324V-136H320V-140Z" fill="#C1E8E8"/>
<path d="M340 -140H344V-136H340V-140Z" fill="#C1E8E8"/>
<path d="M360 -140H364V-136H360V-140Z" fill="#C1E8E8"/>
<path d="M380 -140H384V-136H380V-140Z" fill="#C1E8E8"/>
<path d="M400 -140H404V-136H400V-140Z" fill="#C1E8E8"/>
<path d="M420 -140H424V-136H420V-140Z" fill="#C1E8E8"/>
<path d="M440 -140H444V-136H440V-140Z" fill="#C1E8E8"/>
<path d="M460 -140H464V-136H460V-140Z" fill="#C1E8E8"/>
<path d="M480 -140H484V-136H480V-140Z" fill="#C1E8E8"/>
<path d="M500 -140H504V-136H500V-140Z" fill="#C1E8E8"/>
<path d="M520 -140H524V-136H520V-140Z" fill="#C1E8E8"/>
<path d="M540 -140H544V-136H540V-140Z" fill="#C1E8E8"/>
<path d="M560 -140H564V-136H560V-140Z" fill="#C1E8E8"/>
<path d="M580 -140H584V-136H580V-140Z" fill="#C1E8E8"/>
<path d="M600 -140H604V-136H600V-140Z" fill="#C1E8E8"/>
<path d="M620 -140H624V-136H620V-140Z" fill="#C1E8E8"/>
<path d="M640 -140H644V-136H640V-140Z" fill="#C1E8E8"/>
<path d="M240 -120H244V-116H240V-120Z" fill="#C1E8E8"/>
<path d="M260 -120H264V-116H260V-120Z" fill="#C1E8E8"/>
<path d="M280 -120H284V-116H280V-120Z" fill="#C1E8E8"/>
<path d="M300 -120H304V-116H300V-120Z" fill="#C1E8E8"/>
<path d="M320 -120H324V-116H320V-120Z" fill="#C1E8E8"/>
<path d="M340 -120H344V-116H340V-120Z" fill="#C1E8E8"/>
<path d="M360 -120H364V-116H360V-120Z" fill="#C1E8E8"/>
<path d="M380 -120H384V-116H380V-120Z" fill="#C1E8E8"/>
<path d="M400 -120H404V-116H400V-120Z" fill="#C1E8E8"/>
<path d="M420 -120H424V-116H420V-120Z" fill="#C1E8E8"/>
<path d="M440 -120H444V-116H440V-120Z" fill="#C1E8E8"/>
<path d="M460 -120H464V-116H460V-120Z" fill="#C1E8E8"/>
<path d="M480 -120H484V-116H480V-120Z" fill="#C1E8E8"/>
<path d="M500 -120H504V-116H500V-120Z" fill="#C1E8E8"/>
<path d="M520 -120H524V-116H520V-120Z" fill="#C1E8E8"/>
<path d="M540 -120H544V-116H540V-120Z" fill="#C1E8E8"/>
<path d="M560 -120H564V-116H560V-120Z" fill="#C1E8E8"/>
<path d="M580 -120H584V-116H580V-120Z" fill="#C1E8E8"/>
<path d="M600 -120H604V-116H600V-120Z" fill="#C1E8E8"/>
<path d="M620 -120H624V-116H620V-120Z" fill="#C1E8E8"/>
<path d="M640 -120H644V-116H640V-120Z" fill="#C1E8E8"/>
<path d="M240 -100H244V-96H240V-100Z" fill="#C1E8E8"/>
<path d="M260 -100H264V-96H260V-100Z" fill="#C1E8E8"/>
<path d="M280 -100H284V-96H280V-100Z" fill="#C1E8E8"/>
<path d="M300 -100H304V-96H300V-100Z" fill="#C1E8E8"/>
<path d="M320 -100H324V-96H320V-100Z" fill="#C1E8E8"/>
<path d="M340 -100H344V-96H340V-100Z" fill="#C1E8E8"/>
<path d="M360 -100H364V-96H360V-100Z" fill="#C1E8E8"/>
<path d="M380 -100H384V-96H380V-100Z" fill="#C1E8E8"/>
<path d="M400 -100H404V-96H400V-100Z" fill="#C1E8E8"/>
<path d="M420 -100H424V-96H420V-100Z" fill="#C1E8E8"/>
<path d="M440 -100H444V-96H440V-100Z" fill="#C1E8E8"/>
<path d="M460 -100H464V-96H460V-100Z" fill="#C1E8E8"/>
<path d="M480 -100H484V-96H480V-100Z" fill="#C1E8E8"/>
<path d="M500 -100H504V-96H500V-100Z" fill="#C1E8E8"/>
<path d="M520 -100H524V-96H520V-100Z" fill="#C1E8E8"/>
<path d="M540 -100H544V-96H540V-100Z" fill="#C1E8E8"/>
<path d="M560 -100H564V-96H560V-100Z" fill="#C1E8E8"/>
<path d="M580 -100H584V-96H580V-100Z" fill="#C1E8E8"/>
<path d="M600 -100H604V-96H600V-100Z" fill="#C1E8E8"/>
<path d="M620 -100H624V-96H620V-100Z" fill="#C1E8E8"/>
<path d="M640 -100H644V-96H640V-100Z" fill="#C1E8E8"/>
<path d="M240 -80H244V-76H240V-80Z" fill="#C1E8E8"/>
<path d="M260 -80H264V-76H260V-80Z" fill="#C1E8E8"/>
<path d="M280 -80H284V-76H280V-80Z" fill="#C1E8E8"/>
<path d="M300 -80H304V-76H300V-80Z" fill="#C1E8E8"/>
<path d="M320 -80H324V-76H320V-80Z" fill="#C1E8E8"/>
<path d="M340 -80H344V-76H340V-80Z" fill="#C1E8E8"/>
<path d="M360 -80H364V-76H360V-80Z" fill="#C1E8E8"/>
<path d="M380 -80H384V-76H380V-80Z" fill="#C1E8E8"/>
<path d="M400 -80H404V-76H400V-80Z" fill="#C1E8E8"/>
<path d="M420 -80H424V-76H420V-80Z" fill="#C1E8E8"/>
<path d="M440 -80H444V-76H440V-80Z" fill="#C1E8E8"/>
<path d="M460 -80H464V-76H460V-80Z" fill="#C1E8E8"/>
<path d="M480 -80H484V-76H480V-80Z" fill="#C1E8E8"/>
<path d="M500 -80H504V-76H500V-80Z" fill="#C1E8E8"/>
<path d="M520 -80H524V-76H520V-80Z" fill="#C1E8E8"/>
<path d="M540 -80H544V-76H540V-80Z" fill="#C1E8E8"/>
<path d="M560 -80H564V-76H560V-80Z" fill="#C1E8E8"/>
<path d="M580 -80H584V-76H580V-80Z" fill="#C1E8E8"/>
<path d="M600 -80H604V-76H600V-80Z" fill="#C1E8E8"/>
<path d="M620 -80H624V-76H620V-80Z" fill="#C1E8E8"/>
<path d="M640 -80H644V-76H640V-80Z" fill="#C1E8E8"/>
<path d="M240 -60H244V-56H240V-60Z" fill="#C1E8E8"/>
<path d="M260 -60H264V-56H260V-60Z" fill="#C1E8E8"/>
<path d="M280 -60H284V-56H280V-60Z" fill="#C1E8E8"/>
<path d="M300 -60H304V-56H300V-60Z" fill="#C1E8E8"/>
<path d="M320 -60H324V-56H320V-60Z" fill="#C1E8E8"/>
<path d="M340 -60H344V-56H340V-60Z" fill="#C1E8E8"/>
<path d="M360 -60H364V-56H360V-60Z" fill="#C1E8E8"/>
<path d="M380 -60H384V-56H380V-60Z" fill="#C1E8E8"/>
<path d="M400 -60H404V-56H400V-60Z" fill="#C1E8E8"/>
<path d="M420 -60H424V-56H420V-60Z" fill="#C1E8E8"/>
<path d="M440 -60H444V-56H440V-60Z" fill="#C1E8E8"/>
<path d="M460 -60H464V-56H460V-60Z" fill="#C1E8E8"/>
<path d="M480 -60H484V-56H480V-60Z" fill="#C1E8E8"/>
<path d="M500 -60H504V-56H500V-60Z" fill="#C1E8E8"/>
<path d="M520 -60H524V-56H520V-60Z" fill="#C1E8E8"/>
<path d="M540 -60H544V-56H540V-60Z" fill="#C1E8E8"/>
<path d="M560 -60H564V-56H560V-60Z" fill="#C1E8E8"/>
<path d="M580 -60H584V-56H580V-60Z" fill="#C1E8E8"/>
<path d="M600 -60H604V-56H600V-60Z" fill="#C1E8E8"/>
<path d="M620 -60H624V-56H620V-60Z" fill="#C1E8E8"/>
<path d="M640 -60H644V-56H640V-60Z" fill="#C1E8E8"/>
<path d="M240 -40H244V-36H240V-40Z" fill="#C1E8E8"/>
<path d="M260 -40H264V-36H260V-40Z" fill="#C1E8E8"/>
<path d="M280 -40H284V-36H280V-40Z" fill="#C1E8E8"/>
<path d="M300 -40H304V-36H300V-40Z" fill="#C1E8E8"/>
<path d="M320 -40H324V-36H320V-40Z" fill="#C1E8E8"/>
<path d="M340 -40H344V-36H340V-40Z" fill="#C1E8E8"/>
<path d="M360 -40H364V-36H360V-40Z" fill="#C1E8E8"/>
<path d="M380 -40H384V-36H380V-40Z" fill="#C1E8E8"/>
<path d="M400 -40H404V-36H400V-40Z" fill="#C1E8E8"/>
<path d="M420 -40H424V-36H420V-40Z" fill="#C1E8E8"/>
<path d="M440 -40H444V-36H440V-40Z" fill="#C1E8E8"/>
<path d="M460 -40H464V-36H460V-40Z" fill="#C1E8E8"/>
<path d="M480 -40H484V-36H480V-40Z" fill="#C1E8E8"/>
<path d="M500 -40H504V-36H500V-40Z" fill="#C1E8E8"/>
<path d="M520 -40H524V-36H520V-40Z" fill="#C1E8E8"/>
<path d="M540 -40H544V-36H540V-40Z" fill="#C1E8E8"/>
<path d="M560 -40H564V-36H560V-40Z" fill="#C1E8E8"/>
<path d="M580 -40H584V-36H580V-40Z" fill="#C1E8E8"/>
<path d="M600 -40H604V-36H600V-40Z" fill="#C1E8E8"/>
<path d="M620 -40H624V-36H620V-40Z" fill="#C1E8E8"/>
<path d="M640 -40H644V-36H640V-40Z" fill="#C1E8E8"/>
<path d="M240 -20H244V-16H240V-20Z" fill="#C1E8E8"/>
<path d="M260 -20H264V-16H260V-20Z" fill="#C1E8E8"/>
<path d="M280 -20H284V-16H280V-20Z" fill="#C1E8E8"/>
<path d="M300 -20H304V-16H300V-20Z" fill="#C1E8E8"/>
<path d="M320 -20H324V-16H320V-20Z" fill="#C1E8E8"/>
<path d="M340 -20H344V-16H340V-20Z" fill="#C1E8E8"/>
<path d="M360 -20H364V-16H360V-20Z" fill="#C1E8E8"/>
<path d="M380 -20H384V-16H380V-20Z" fill="#C1E8E8"/>
<path d="M400 -20H404V-16H400V-20Z" fill="#C1E8E8"/>
<path d="M420 -20H424V-16H420V-20Z" fill="#C1E8E8"/>
<path d="M440 -20H444V-16H440V-20Z" fill="#C1E8E8"/>
<path d="M460 -20H464V-16H460V-20Z" fill="#C1E8E8"/>
<path d="M480 -20H484V-16H480V-20Z" fill="#C1E8E8"/>
<path d="M500 -20H504V-16H500V-20Z" fill="#C1E8E8"/>
<path d="M520 -20H524V-16H520V-20Z" fill="#C1E8E8"/>
<path d="M540 -20H544V-16H540V-20Z" fill="#C1E8E8"/>
<path d="M560 -20H564V-16H560V-20Z" fill="#C1E8E8"/>
<path d="M580 -20H584V-16H580V-20Z" fill="#C1E8E8"/>
<path d="M600 -20H604V-16H600V-20Z" fill="#C1E8E8"/>
<path d="M620 -20H624V-16H620V-20Z" fill="#C1E8E8"/>
<path d="M640 -20H644V-16H640V-20Z" fill="#C1E8E8"/>
<path d="M240 0H244V4H240V0Z" fill="#C1E8E8"/>
<path d="M260 0H264V4H260V0Z" fill="#C1E8E8"/>
<path d="M280 0H284V4H280V0Z" fill="#C1E8E8"/>
<path d="M300 0H304V4H300V0Z" fill="#C1E8E8"/>
<path d="M320 0H324V4H320V0Z" fill="#C1E8E8"/>
<path d="M340 0H344V4H340V0Z" fill="#C1E8E8"/>
<path d="M360 0H364V4H360V0Z" fill="#C1E8E8"/>
<path d="M380 0H384V4H380V0Z" fill="#C1E8E8"/>
<path d="M400 0H404V4H400V0Z" fill="#C1E8E8"/>
<path d="M420 0H424V4H420V0Z" fill="#C1E8E8"/>
<path d="M440 0H444V4H440V0Z" fill="#C1E8E8"/>
<path d="M460 0H464V4H460V0Z" fill="#C1E8E8"/>
<path d="M480 0H484V4H480V0Z" fill="#C1E8E8"/>
<path d="M500 0H504V4H500V0Z" fill="#C1E8E8"/>
<path d="M520 0H524V4H520V0Z" fill="#C1E8E8"/>
<path d="M540 0H544V4H540V0Z" fill="#C1E8E8"/>
<path d="M560 0H564V4H560V0Z" fill="#C1E8E8"/>
<path d="M580 0H584V4H580V0Z" fill="#C1E8E8"/>
<path d="M600 0H604V4H600V0Z" fill="#C1E8E8"/>
<path d="M620 0H624V4H620V0Z" fill="#C1E8E8"/>
<path d="M640 0H644V4H640V0Z" fill="#C1E8E8"/>
<path d="M240 20H244V24H240V20Z" fill="#C1E8E8"/>
<path d="M260 20H264V24H260V20Z" fill="#C1E8E8"/>
<path d="M280 20H284V24H280V20Z" fill="#C1E8E8"/>
<path d="M300 20H304V24H300V20Z" fill="#C1E8E8"/>
<path d="M320 20H324V24H320V20Z" fill="#C1E8E8"/>
<path d="M340 20H344V24H340V20Z" fill="#C1E8E8"/>
<path d="M360 20H364V24H360V20Z" fill="#C1E8E8"/>
<path d="M380 20H384V24H380V20Z" fill="#C1E8E8"/>
<path d="M400 20H404V24H400V20Z" fill="#C1E8E8"/>
<path d="M420 20H424V24H420V20Z" fill="#C1E8E8"/>
<path d="M440 20H444V24H440V20Z" fill="#C1E8E8"/>
<path d="M460 20H464V24H460V20Z" fill="#C1E8E8"/>
<path d="M480 20H484V24H480V20Z" fill="#C1E8E8"/>
<path d="M500 20H504V24H500V20Z" fill="#C1E8E8"/>
<path d="M520 20H524V24H520V20Z" fill="#C1E8E8"/>
<path d="M540 20H544V24H540V20Z" fill="#C1E8E8"/>
<path d="M560 20H564V24H560V20Z" fill="#C1E8E8"/>
<path d="M580 20H584V24H580V20Z" fill="#C1E8E8"/>
<path d="M600 20H604V24H600V20Z" fill="#C1E8E8"/>
<path d="M620 20H624V24H620V20Z" fill="#C1E8E8"/>
<path d="M640 20H644V24H640V20Z" fill="#C1E8E8"/>
<path d="M240 40H244V44H240V40Z" fill="#C1E8E8"/>
<path d="M260 40H264V44H260V40Z" fill="#C1E8E8"/>
<path d="M280 40H284V44H280V40Z" fill="#C1E8E8"/>
<path d="M300 40H304V44H300V40Z" fill="#C1E8E8"/>
<path d="M320 40H324V44H320V40Z" fill="#C1E8E8"/>
<path d="M340 40H344V44H340V40Z" fill="#C1E8E8"/>
<path d="M360 40H364V44H360V40Z" fill="#C1E8E8"/>
<path d="M380 40H384V44H380V40Z" fill="#C1E8E8"/>
<path d="M400 40H404V44H400V40Z" fill="#C1E8E8"/>
<path d="M420 40H424V44H420V40Z" fill="#C1E8E8"/>
<path d="M440 40H444V44H440V40Z" fill="#C1E8E8"/>
<path d="M460 40H464V44H460V40Z" fill="#C1E8E8"/>
<path d="M480 40H484V44H480V40Z" fill="#C1E8E8"/>
<path d="M500 40H504V44H500V40Z" fill="#C1E8E8"/>
<path d="M520 40H524V44H520V40Z" fill="#C1E8E8"/>
<path d="M540 40H544V44H540V40Z" fill="#C1E8E8"/>
<path d="M560 40H564V44H560V40Z" fill="#C1E8E8"/>
<path d="M580 40H584V44H580V40Z" fill="#C1E8E8"/>
<path d="M600 40H604V44H600V40Z" fill="#C1E8E8"/>
<path d="M620 40H624V44H620V40Z" fill="#C1E8E8"/>
<path d="M640 40H644V44H640V40Z" fill="#C1E8E8"/>
<path d="M240 60H244V64H240V60Z" fill="#C1E8E8"/>
<path d="M260 60H264V64H260V60Z" fill="#C1E8E8"/>
<path d="M280 60H284V64H280V60Z" fill="#C1E8E8"/>
<path d="M300 60H304V64H300V60Z" fill="#C1E8E8"/>
<path d="M320 60H324V64H320V60Z" fill="#C1E8E8"/>
<path d="M340 60H344V64H340V60Z" fill="#C1E8E8"/>
<path d="M360 60H364V64H360V60Z" fill="#C1E8E8"/>
<path d="M380 60H384V64H380V60Z" fill="#C1E8E8"/>
<path d="M400 60H404V64H400V60Z" fill="#C1E8E8"/>
<path d="M420 60H424V64H420V60Z" fill="#C1E8E8"/>
<path d="M440 60H444V64H440V60Z" fill="#C1E8E8"/>
<path d="M460 60H464V64H460V60Z" fill="#C1E8E8"/>
<path d="M480 60H484V64H480V60Z" fill="#C1E8E8"/>
<path d="M500 60H504V64H500V60Z" fill="#C1E8E8"/>
<path d="M520 60H524V64H520V60Z" fill="#C1E8E8"/>
<path d="M540 60H544V64H540V60Z" fill="#C1E8E8"/>
<path d="M560 60H564V64H560V60Z" fill="#C1E8E8"/>
<path d="M580 60H584V64H580V60Z" fill="#C1E8E8"/>
<path d="M600 60H604V64H600V60Z" fill="#C1E8E8"/>
<path d="M620 60H624V64H620V60Z" fill="#C1E8E8"/>
<path d="M640 60H644V64H640V60Z" fill="#C1E8E8"/>
<path d="M240 80H244V84H240V80Z" fill="#C1E8E8"/>
<path d="M260 80H264V84H260V80Z" fill="#C1E8E8"/>
<path d="M280 80H284V84H280V80Z" fill="#C1E8E8"/>
<path d="M300 80H304V84H300V80Z" fill="#C1E8E8"/>
<path d="M320 80H324V84H320V80Z" fill="#C1E8E8"/>
<path d="M340 80H344V84H340V80Z" fill="#C1E8E8"/>
<path d="M360 80H364V84H360V80Z" fill="#C1E8E8"/>
<path d="M380 80H384V84H380V80Z" fill="#C1E8E8"/>
<path d="M400 80H404V84H400V80Z" fill="#C1E8E8"/>
<path d="M420 80H424V84H420V80Z" fill="#C1E8E8"/>
<path d="M440 80H444V84H440V80Z" fill="#C1E8E8"/>
<path d="M460 80H464V84H460V80Z" fill="#C1E8E8"/>
<path d="M480 80H484V84H480V80Z" fill="#C1E8E8"/>
<path d="M500 80H504V84H500V80Z" fill="#C1E8E8"/>
<path d="M520 80H524V84H520V80Z" fill="#C1E8E8"/>
<path d="M540 80H544V84H540V80Z" fill="#C1E8E8"/>
<path d="M560 80H564V84H560V80Z" fill="#C1E8E8"/>
<path d="M580 80H584V84H580V80Z" fill="#C1E8E8"/>
<path d="M600 80H604V84H600V80Z" fill="#C1E8E8"/>
<path d="M620 80H624V84H620V80Z" fill="#C1E8E8"/>
<path d="M640 80H644V84H640V80Z" fill="#C1E8E8"/>
<path d="M240 100H244V104H240V100Z" fill="#C1E8E8"/>
<path d="M260 100H264V104H260V100Z" fill="#C1E8E8"/>
<path d="M280 100H284V104H280V100Z" fill="#C1E8E8"/>
<path d="M300 100H304V104H300V100Z" fill="#C1E8E8"/>
<path d="M320 100H324V104H320V100Z" fill="#C1E8E8"/>
<path d="M340 100H344V104H340V100Z" fill="#C1E8E8"/>
<path d="M360 100H364V104H360V100Z" fill="#C1E8E8"/>
<path d="M380 100H384V104H380V100Z" fill="#C1E8E8"/>
<path d="M400 100H404V104H400V100Z" fill="#C1E8E8"/>
<path d="M420 100H424V104H420V100Z" fill="#C1E8E8"/>
<path d="M440 100H444V104H440V100Z" fill="#C1E8E8"/>
<path d="M460 100H464V104H460V100Z" fill="#C1E8E8"/>
<path d="M480 100H484V104H480V100Z" fill="#C1E8E8"/>
<path d="M500 100H504V104H500V100Z" fill="#C1E8E8"/>
<path d="M520 100H524V104H520V100Z" fill="#C1E8E8"/>
<path d="M540 100H544V104H540V100Z" fill="#C1E8E8"/>
<path d="M560 100H564V104H560V100Z" fill="#C1E8E8"/>
<path d="M580 100H584V104H580V100Z" fill="#C1E8E8"/>
<path d="M600 100H604V104H600V100Z" fill="#C1E8E8"/>
<path d="M620 100H624V104H620V100Z" fill="#C1E8E8"/>
<path d="M640 100H644V104H640V100Z" fill="#C1E8E8"/>
<path d="M240 120H244V124H240V120Z" fill="#C1E8E8"/>
<path d="M260 120H264V124H260V120Z" fill="#C1E8E8"/>
<path d="M280 120H284V124H280V120Z" fill="#C1E8E8"/>
<path d="M300 120H304V124H300V120Z" fill="#C1E8E8"/>
<path d="M320 120H324V124H320V120Z" fill="#C1E8E8"/>
<path d="M340 120H344V124H340V120Z" fill="#C1E8E8"/>
<path d="M360 120H364V124H360V120Z" fill="#C1E8E8"/>
<path d="M380 120H384V124H380V120Z" fill="#C1E8E8"/>
<path d="M400 120H404V124H400V120Z" fill="#C1E8E8"/>
<path d="M420 120H424V124H420V120Z" fill="#C1E8E8"/>
<path d="M440 120H444V124H440V120Z" fill="#C1E8E8"/>
<path d="M460 120H464V124H460V120Z" fill="#C1E8E8"/>
<path d="M480 120H484V124H480V120Z" fill="#C1E8E8"/>
<path d="M500 120H504V124H500V120Z" fill="#C1E8E8"/>
<path d="M520 120H524V124H520V120Z" fill="#C1E8E8"/>
<path d="M540 120H544V124H540V120Z" fill="#C1E8E8"/>
<path d="M560 120H564V124H560V120Z" fill="#C1E8E8"/>
<path d="M580 120H584V124H580V120Z" fill="#C1E8E8"/>
<path d="M600 120H604V124H600V120Z" fill="#C1E8E8"/>
<path d="M620 120H624V124H620V120Z" fill="#C1E8E8"/>
<path d="M640 120H644V124H640V120Z" fill="#C1E8E8"/>
<path d="M240 140H244V144H240V140Z" fill="#C1E8E8"/>
<path d="M260 140H264V144H260V140Z" fill="#C1E8E8"/>
<path d="M280 140H284V144H280V140Z" fill="#C1E8E8"/>
<path d="M300 140H304V144H300V140Z" fill="#C1E8E8"/>
<path d="M320 140H324V144H320V140Z" fill="#C1E8E8"/>
<path d="M340 140H344V144H340V140Z" fill="#C1E8E8"/>
<path d="M360 140H364V144H360V140Z" fill="#C1E8E8"/>
<path d="M380 140H384V144H380V140Z" fill="#C1E8E8"/>
<path d="M400 140H404V144H400V140Z" fill="#C1E8E8"/>
<path d="M420 140H424V144H420V140Z" fill="#C1E8E8"/>
<path d="M440 140H444V144H440V140Z" fill="#C1E8E8"/>
<path d="M460 140H464V144H460V140Z" fill="#C1E8E8"/>
<path d="M480 140H484V144H480V140Z" fill="#C1E8E8"/>
<path d="M500 140H504V144H500V140Z" fill="#C1E8E8"/>
<path d="M520 140H524V144H520V140Z" fill="#C1E8E8"/>
<path d="M540 140H544V144H540V140Z" fill="#C1E8E8"/>
<path d="M560 140H564V144H560V140Z" fill="#C1E8E8"/>
<path d="M580 140H584V144H580V140Z" fill="#C1E8E8"/>
<path d="M600 140H604V144H600V140Z" fill="#C1E8E8"/>
<path d="M620 140H624V144H620V140Z" fill="#C1E8E8"/>
<path d="M640 140H644V144H640V140Z" fill="#C1E8E8"/>
<path d="M240 160H244V164H240V160Z" fill="#C1E8E8"/>
<path d="M260 160H264V164H260V160Z" fill="#C1E8E8"/>
<path d="M280 160H284V164H280V160Z" fill="#C1E8E8"/>
<path d="M300 160H304V164H300V160Z" fill="#C1E8E8"/>
<path d="M320 160H324V164H320V160Z" fill="#C1E8E8"/>
<path d="M340 160H344V164H340V160Z" fill="#C1E8E8"/>
<path d="M360 160H364V164H360V160Z" fill="#C1E8E8"/>
<path d="M380 160H384V164H380V160Z" fill="#C1E8E8"/>
<path d="M400 160H404V164H400V160Z" fill="#C1E8E8"/>
<path d="M420 160H424V164H420V160Z" fill="#C1E8E8"/>
<path d="M440 160H444V164H440V160Z" fill="#C1E8E8"/>
<path d="M460 160H464V164H460V160Z" fill="#C1E8E8"/>
<path d="M480 160H484V164H480V160Z" fill="#C1E8E8"/>
<path d="M500 160H504V164H500V160Z" fill="#C1E8E8"/>
<path d="M520 160H524V164H520V160Z" fill="#C1E8E8"/>
<path d="M540 160H544V164H540V160Z" fill="#C1E8E8"/>
<path d="M560 160H564V164H560V160Z" fill="#C1E8E8"/>
<path d="M580 160H584V164H580V160Z" fill="#C1E8E8"/>
<path d="M600 160H604V164H600V160Z" fill="#C1E8E8"/>
<path d="M620 160H624V164H620V160Z" fill="#C1E8E8"/>
<path d="M640 160H644V164H640V160Z" fill="#C1E8E8"/>
<rect x="330" y="242" width="280" height="280" rx="6" fill="#C1E8E8"/>
<rect x="60" y="30" width="280" height="280" rx="6" fill="#53BFBF"/>
</svg>
