<svg width="48" height="48" viewBox="0 0 48 48" fill="none" xmlns="http://www.w3.org/2000/svg">
<rect width="48" height="48" rx="12" fill="#C1E8E8" fill-opacity="0.25"/>
<path d="M29.9999 21.5984C31.9881 21.5984 33.5999 19.9867 33.5999 17.9984C33.5999 16.0102 31.9881 14.3984 29.9999 14.3984C28.0117 14.3984 26.3999 16.0102 26.3999 17.9984C26.3999 18.149 26.4091 18.2974 26.4271 18.4432L20.499 21.4072C19.8515 20.7826 18.9706 20.3984 17.9999 20.3984C16.0117 20.3984 14.3999 22.0102 14.3999 23.9984C14.3999 25.9867 16.0117 27.5984 17.9999 27.5984C18.9706 27.5984 19.8516 27.2142 20.4991 26.5896L26.4271 29.5537C26.4091 29.6994 26.3999 29.8478 26.3999 29.9984C26.3999 31.9867 28.0117 33.5984 29.9999 33.5984C31.9881 33.5984 33.5999 31.9867 33.5999 29.9984C33.5999 28.0102 31.9881 26.3984 29.9999 26.3984C29.0292 26.3984 28.1483 26.7826 27.5008 27.4072L21.5727 24.4432C21.5907 24.2974 21.5999 24.149 21.5999 23.9984C21.5999 23.8478 21.5906 23.6994 21.5727 23.5537L27.5007 20.5896C28.1482 21.2142 29.0292 21.5984 29.9999 21.5984Z" fill="#41A6AC"/>
</svg>
