<svg width="124" height="124" viewBox="0 0 124 124" fill="none" xmlns="http://www.w3.org/2000/svg">
<path d="M0 0H4V4H0V0Z" fill="#5DAFAA" fill-opacity="0.5"/>
<path d="M20 0H24V4H20V0Z" fill="#5DAFAA" fill-opacity="0.5"/>
<path d="M40 0H44V4H40V0Z" fill="#5DAFAA" fill-opacity="0.5"/>
<path d="M60 0H64V4H60V0Z" fill="#5DAFAA" fill-opacity="0.5"/>
<path d="M80 0H84V4H80V0Z" fill="#5DAFAA" fill-opacity="0.5"/>
<path d="M100 0H104V4H100V0Z" fill="#5DAFAA" fill-opacity="0.5"/>
<path d="M120 0H124V4H120V0Z" fill="#5DAFAA" fill-opacity="0.5"/>
<path d="M0 20H4V24H0V20Z" fill="#5DAFAA" fill-opacity="0.5"/>
<path d="M20 20H24V24H20V20Z" fill="#5DAFAA" fill-opacity="0.5"/>
<path d="M40 20H44V24H40V20Z" fill="#5DAFAA" fill-opacity="0.5"/>
<path d="M60 20H64V24H60V20Z" fill="#5DAFAA" fill-opacity="0.5"/>
<path d="M80 20H84V24H80V20Z" fill="#5DAFAA" fill-opacity="0.5"/>
<path d="M100 20H104V24H100V20Z" fill="#5DAFAA" fill-opacity="0.5"/>
<path d="M120 20H124V24H120V20Z" fill="#5DAFAA" fill-opacity="0.5"/>
<path d="M0 40H4V44H0V40Z" fill="#5DAFAA" fill-opacity="0.5"/>
<path d="M20 40H24V44H20V40Z" fill="#5DAFAA" fill-opacity="0.5"/>
<path d="M40 40H44V44H40V40Z" fill="#5DAFAA" fill-opacity="0.5"/>
<path d="M60 40H64V44H60V40Z" fill="#5DAFAA" fill-opacity="0.5"/>
<path d="M80 40H84V44H80V40Z" fill="#5DAFAA" fill-opacity="0.5"/>
<path d="M100 40H104V44H100V40Z" fill="#5DAFAA" fill-opacity="0.5"/>
<path d="M120 40H124V44H120V40Z" fill="#5DAFAA" fill-opacity="0.5"/>
<path d="M0 60H4V64H0V60Z" fill="#5DAFAA" fill-opacity="0.5"/>
<path d="M20 60H24V64H20V60Z" fill="#5DAFAA" fill-opacity="0.5"/>
<path d="M40 60H44V64H40V60Z" fill="#5DAFAA" fill-opacity="0.5"/>
<path d="M60 60H64V64H60V60Z" fill="#5DAFAA" fill-opacity="0.5"/>
<path d="M80 60H84V64H80V60Z" fill="#5DAFAA" fill-opacity="0.5"/>
<path d="M100 60H104V64H100V60Z" fill="#5DAFAA" fill-opacity="0.5"/>
<path d="M120 60H124V64H120V60Z" fill="#5DAFAA" fill-opacity="0.5"/>
<path d="M0 80H4V84H0V80Z" fill="#5DAFAA" fill-opacity="0.5"/>
<path d="M20 80H24V84H20V80Z" fill="#5DAFAA" fill-opacity="0.5"/>
<path d="M40 80H44V84H40V80Z" fill="#5DAFAA" fill-opacity="0.5"/>
<path d="M60 80H64V84H60V80Z" fill="#5DAFAA" fill-opacity="0.5"/>
<path d="M80 80H84V84H80V80Z" fill="#5DAFAA" fill-opacity="0.5"/>
<path d="M100 80H104V84H100V80Z" fill="#5DAFAA" fill-opacity="0.5"/>
<path d="M120 80H124V84H120V80Z" fill="#5DAFAA" fill-opacity="0.5"/>
<path d="M0 100H4V104H0V100Z" fill="#5DAFAA" fill-opacity="0.5"/>
<path d="M20 100H24V104H20V100Z" fill="#5DAFAA" fill-opacity="0.5"/>
<path d="M40 100H44V104H40V100Z" fill="#5DAFAA" fill-opacity="0.5"/>
<path d="M60 100H64V104H60V100Z" fill="#5DAFAA" fill-opacity="0.5"/>
<path d="M80 100H84V104H80V100Z" fill="#5DAFAA" fill-opacity="0.5"/>
<path d="M100 100H104V104H100V100Z" fill="#5DAFAA" fill-opacity="0.5"/>
<path d="M120 100H124V104H120V100Z" fill="#5DAFAA" fill-opacity="0.5"/>
<path d="M0 120H4V124H0V120Z" fill="#5DAFAA" fill-opacity="0.5"/>
<path d="M20 120H24V124H20V120Z" fill="#5DAFAA" fill-opacity="0.5"/>
<path d="M40 120H44V124H40V120Z" fill="#5DAFAA" fill-opacity="0.5"/>
<path d="M60 120H64V124H60V120Z" fill="#5DAFAA" fill-opacity="0.5"/>
<path d="M80 120H84V124H80V120Z" fill="#5DAFAA" fill-opacity="0.5"/>
<path d="M100 120H104V124H100V120Z" fill="#5DAFAA" fill-opacity="0.5"/>
<path d="M120 120H124V124H120V120Z" fill="#5DAFAA" fill-opacity="0.5"/>
</svg>
