<svg width="14" height="12" viewBox="0 0 14 12" fill="none" xmlns="http://www.w3.org/2000/svg">
<path fill-rule="evenodd" clip-rule="evenodd" d="M0 1C0 0.447715 0.447715 0 1 0H13C13.5523 0 14 0.447715 14 1C14 1.55228 13.5523 2 13 2H1C0.447715 2 0 1.55228 0 1Z" fill="#6B7280"/>
<path fill-rule="evenodd" clip-rule="evenodd" d="M0 6C0 5.44772 0.447715 5 1 5H7C7.55229 5 8 5.44772 8 6C8 6.55228 7.55229 7 7 7H1C0.447715 7 0 6.55228 0 6Z" fill="#6B7280"/>
<path fill-rule="evenodd" clip-rule="evenodd" d="M0 11C0 10.4477 0.447715 10 1 10H13C13.5523 10 14 10.4477 14 11C14 11.5523 13.5523 12 13 12H1C0.447715 12 0 11.5523 0 11Z" fill="#6B7280"/>
</svg>
