<svg width="20" height="21" viewBox="0 0 20 21" fill="none" xmlns="http://www.w3.org/2000/svg">
<path d="M9 3.91465V17.4231C9 18.406 8.2121 19.2028 7.24018 19.2028C6.49646 19.2028 5.83302 18.73 5.58288 18.0217L3.43647 11.8032M16 11.1126C17.6569 11.1126 19 9.75437 19 8.07885C19 6.40334 17.6569 5.04506 16 5.04506M3.43647 11.8032C2.0043 11.1876 1 9.75182 1 8.07885C1 5.84483 2.79086 4.03379 4.99999 4.03379H6.83208C10.9327 4.03379 14.4569 2.7858 16 1L16 15.1577C14.4569 13.3719 10.9327 12.1239 6.83208 12.1239L4.99998 12.1239C4.44518 12.1239 3.91677 12.0097 3.43647 11.8032Z" stroke="white" stroke-width="2" stroke-linecap="round" stroke-linejoin="round"/>
</svg>
