<svg width="40" height="40" viewBox="0 0 40 40" fill="none" xmlns="http://www.w3.org/2000/svg">
<path d="M19 14.9147V28.4231C19 29.406 18.2121 30.2028 17.2402 30.2028C16.4965 30.2028 15.833 29.73 15.5829 29.0217L13.4365 22.8032M26 22.1126C27.6569 22.1126 29 20.7544 29 19.0789C29 17.4033 27.6569 16.0451 26 16.0451M13.4365 22.8032C12.0043 22.1876 11 20.7518 11 19.0789C11 16.8448 12.7909 15.0338 15 15.0338H16.8321C20.9327 15.0338 24.4569 13.7858 26 12L26 26.1577C24.4569 24.3719 20.9327 23.1239 16.8321 23.1239L15 23.1239C14.4452 23.1239 13.9168 23.0097 13.4365 22.8032Z" stroke="white" stroke-width="2" stroke-linecap="round" stroke-linejoin="round"/>
<rect width="40" height="40" rx="6" fill="#F7F7F7" fill-opacity="0.5"/>
</svg>
