<svg width="16" height="17" viewBox="0 0 16 17" fill="none" xmlns="http://www.w3.org/2000/svg">
<path d="M12.4443 4.50008H11.5554V4.05564C11.5552 3.81996 11.4614 3.59401 11.2948 3.42736C11.1281 3.26071 10.9022 3.16698 10.6665 3.16675H5.33317C5.09749 3.16698 4.87154 3.26071 4.70489 3.42736C4.53824 3.59401 4.44452 3.81996 4.44428 4.05564V4.50008H3.55539C3.31972 4.50032 3.09376 4.59404 2.92711 4.76069C2.76047 4.92734 2.66674 5.15329 2.6665 5.38897V6.7223C2.66709 7.19362 2.85458 7.64546 3.18785 7.97873C3.52112 8.312 3.97297 8.49949 4.44428 8.50008H4.58739C4.7726 9.1804 5.15188 9.79207 5.67894 10.2604C6.206 10.7287 6.85802 11.0335 7.55539 11.1374V12.9445H5.33317V13.8334H10.6665V12.9445H8.44428V11.1361C9.15071 11.0488 9.81441 10.7505 10.3488 10.2803C10.8832 9.81005 11.2634 9.18967 11.4398 8.50008H11.5554C12.0267 8.49949 12.4786 8.312 12.8118 7.97873C13.1451 7.64546 13.3326 7.19362 13.3332 6.7223V5.38897C13.3329 5.15329 13.2392 4.92734 13.0726 4.76069C12.9059 4.59404 12.68 4.50032 12.4443 4.50008ZM4.44428 7.61119C4.20861 7.61096 3.98265 7.51723 3.816 7.35058C3.64935 7.18393 3.55563 6.95798 3.55539 6.7223V5.38897H4.44428V7.61119ZM12.4443 6.7223C12.444 6.95798 12.3503 7.18393 12.1837 7.35058C12.017 7.51723 11.7911 7.61096 11.5554 7.61119V5.38897H12.4443V6.7223Z" fill="white"/>
</svg>
