<svg width="23" height="18" viewBox="0 0 23 18" fill="none" xmlns="http://www.w3.org/2000/svg">
<path d="M16.5 17H21.5V15C21.5 13.3431 20.1569 12 18.5 12C17.5444 12 16.6931 12.4468 16.1438 13.1429M16.5 17H6.5M16.5 17V15C16.5 14.3438 16.3736 13.717 16.1438 13.1429M6.5 17H1.5V15C1.5 13.3431 2.84315 12 4.5 12C5.45561 12 6.30686 12.4468 6.85625 13.1429M6.5 17V15C6.5 14.3438 6.62642 13.717 6.85625 13.1429M6.85625 13.1429C7.5935 11.301 9.39482 10 11.5 10C13.6052 10 15.4065 11.301 16.1438 13.1429M14.5 4C14.5 5.65685 13.1569 7 11.5 7C9.84315 7 8.5 5.65685 8.5 4C8.5 2.34315 9.84315 1 11.5 1C13.1569 1 14.5 2.34315 14.5 4ZM20.5 7C20.5 8.10457 19.6046 9 18.5 9C17.3954 9 16.5 8.10457 16.5 7C16.5 5.89543 17.3954 5 18.5 5C19.6046 5 20.5 5.89543 20.5 7ZM6.5 7C6.5 8.10457 5.60457 9 4.5 9C3.39543 9 2.5 8.10457 2.5 7C2.5 5.89543 3.39543 5 4.5 5C5.60457 5 6.5 5.89543 6.5 7Z" stroke="white" stroke-width="2" stroke-linecap="round" stroke-linejoin="round"/>
</svg>
