<svg width="33" height="33" viewBox="0 0 33 33" fill="none" xmlns="http://www.w3.org/2000/svg">
<g clip-path="url(#clip0_1033_43891)">
<path d="M1.37521 15.8572C1.37446 18.554 2.0791 21.1872 3.41897 23.5081L1.24707 31.4381L9.36238 29.3102C11.607 30.5322 14.1219 31.1724 16.6775 31.1726H16.6842C25.1209 31.1726 31.9885 24.3075 31.9921 15.8693C31.9937 11.7804 30.4028 7.9355 27.5124 5.04279C24.6224 2.15033 20.7788 0.556554 16.6836 0.554688C8.24596 0.554688 1.37882 7.41946 1.37533 15.8572" fill="url(#paint0_linear_1033_43891)"/>
<path d="M0.829404 15.8514C0.828534 18.6452 1.55843 21.3726 2.94606 23.7766L0.696289 31.9909L9.10259 29.7867C11.4188 31.0496 14.0266 31.7154 16.6802 31.7164H16.6871C25.4264 31.7164 32.5407 24.6043 32.5445 15.8641C32.5459 11.6283 30.8978 7.64518 27.9041 4.64884C24.91 1.65287 20.929 0.0017417 16.6871 0C7.94623 0 0.833012 7.1111 0.829529 15.8514H0.829404ZM5.83554 23.3626L5.52166 22.8644C4.2022 20.7664 3.50577 18.3419 3.50677 15.8524C3.50963 8.58768 9.42194 2.67724 16.692 2.67724C20.2127 2.67873 23.5215 4.05119 26.0101 6.54132C28.4986 9.03169 29.868 12.3422 29.8671 15.8631C29.8639 23.1279 23.9514 29.0391 16.6871 29.0391H16.6818C14.3165 29.0378 11.9967 28.4026 9.97356 27.2022L9.49211 26.9167L4.50364 28.2246L5.83554 23.3625V23.3626Z" fill="url(#paint1_linear_1033_43891)"/>
<path d="M12.7241 9.22508C12.4273 8.56535 12.1149 8.55204 11.8326 8.54047C11.6015 8.53052 11.3372 8.53126 11.0732 8.53126C10.809 8.53126 10.3797 8.63066 10.0168 9.0269C9.6535 9.42351 8.62988 10.3819 8.62988 12.3313C8.62988 14.2807 10.0497 16.1646 10.2477 16.4292C10.4459 16.6934 12.9887 20.8217 17.016 22.4098C20.3631 23.7297 21.0442 23.4672 21.7706 23.401C22.4971 23.3351 24.1149 22.4428 24.445 21.5176C24.7753 20.5925 24.7753 19.7995 24.6763 19.6338C24.5772 19.4687 24.313 19.3696 23.9168 19.1715C23.5204 18.9734 21.5724 18.0148 21.2093 17.8826C20.846 17.7504 20.5819 17.6845 20.3177 18.0812C20.0534 18.4773 19.2947 19.3696 19.0634 19.6338C18.8324 19.8987 18.6011 19.9317 18.205 19.7335C17.8085 19.5347 16.5325 19.1168 15.0186 17.7671C13.8407 16.7169 13.0455 15.4199 12.8143 15.0232C12.5832 14.6271 12.7896 14.4124 12.9882 14.2149C13.1663 14.0374 13.3846 13.7522 13.5829 13.521C13.7805 13.2896 13.8464 13.1245 13.9785 12.8602C14.1108 12.5958 14.0446 12.3644 13.9457 12.1662C13.8464 11.968 13.0764 10.0086 12.7241 9.2252" fill="white"/>
</g>
<defs>
<linearGradient id="paint0_linear_1033_43891" x1="16.6196" y1="31.4381" x2="16.6196" y2="0.554688" gradientUnits="userSpaceOnUse">
<stop stop-color="#1FAF38"/>
<stop offset="1" stop-color="#60D669"/>
</linearGradient>
<linearGradient id="paint1_linear_1033_43891" x1="16.6204" y1="31.9909" x2="16.6204" y2="0" gradientUnits="userSpaceOnUse">
<stop stop-color="#F9F9F9"/>
<stop offset="1" stop-color="white"/>
</linearGradient>
<clipPath id="clip0_1033_43891">
<rect width="31.8482" height="32.097" fill="white" transform="translate(0.696289)"/>
</clipPath>
</defs>
</svg>
