<svg xmlns="http://www.w3.org/2000/svg" viewBox="0 0 683 672"><path d="m0,408h4v4H0v-4Zm20,0h4v4h-4v-4Zm20,0h4v4h-4v-4Zm20,0h4v4h-4v-4Zm20,0h4v4h-4v-4Zm20,0h4v4h-4v-4Zm20,0h4v4h-4v-4Zm20,0h4v4h-4v-4Zm20,0h4v4h-4v-4Zm20,0h4v4h-4v-4Zm20,0h4v4h-4v-4Zm20,0h4v4h-4v-4Zm20,0h4v4h-4v-4Zm20,0h4v4h-4v-4ZM0,428h4v4H0v-4Zm20,0h4v4h-4v-4Zm20,0h4v4h-4v-4Zm20,0h4v4h-4v-4Zm20,0h4v4h-4v-4Zm20,0h4v4h-4v-4Zm20,0h4v4h-4v-4Zm20,0h4v4h-4v-4Zm20,0h4v4h-4v-4Zm20,0h4v4h-4v-4ZM0,448h4v4H0v-4Zm20,0h4v4h-4v-4Zm20,0h4v4h-4v-4Zm20,0h4v4h-4v-4Zm20,0h4v4h-4v-4Zm20,0h4v4h-4v-4Zm20,0h4v4h-4v-4Zm20,0h4v4h-4v-4Zm20,0h4v4h-4v-4Zm20,0h4v4h-4v-4ZM0,468h4v4H0v-4Zm20,0h4v4h-4v-4Zm20,0h4v4h-4v-4Zm20,0h4v4h-4v-4Zm20,0h4v4h-4v-4Zm20,0h4v4h-4v-4Zm20,0h4v4h-4v-4Zm20,0h4v4h-4v-4Zm20,0h4v4h-4v-4Zm20,0h4v4h-4v-4ZM0,488h4v4H0v-4Zm20,0h4v4h-4v-4Zm20,0h4v4h-4v-4Zm20,0h4v4h-4v-4Zm20,0h4v4h-4v-4Zm20,0h4v4h-4v-4Zm20,0h4v4h-4v-4Zm20,0h4v4h-4v-4Zm20,0h4v4h-4v-4Zm20,0h4v4h-4v-4ZM0,508h4v4H0v-4Zm20,0h4v4h-4v-4Zm20,0h4v4h-4v-4Zm20,0h4v4h-4v-4Zm20,0h4v4h-4v-4Zm20,0h4v4h-4v-4Zm20,0h4v4h-4v-4Zm20,0h4v4h-4v-4Zm20,0h4v4h-4v-4Zm20,0h4v4h-4v-4ZM0,528h4v4H0v-4Zm20,0h4v4h-4v-4Zm20,0h4v4h-4v-4Zm20,0h4v4h-4v-4Zm20,0h4v4h-4v-4Zm20,0h4v4h-4v-4Zm20,0h4v4h-4v-4Zm20,0h4v4h-4v-4Zm20,0h4v4h-4v-4Zm20,0h4v4h-4v-4Zm20,0h4v4h-4v-4Zm20,0h4v4h-4v-4Zm20,0h4v4h-4v-4Zm20,0h4v4h-4v-4ZM0,548h4v4H0v-4Zm20,0h4v4h-4v-4Zm20,0h4v4h-4v-4Zm20,0h4v4h-4v-4Zm20,0h4v4h-4v-4Zm20,0h4v4h-4v-4Zm20,0h4v4h-4v-4Zm20,0h4v4h-4v-4Zm20,0h4v4h-4v-4Zm20,0h4v4h-4v-4Zm20,0h4v4h-4v-4Zm20,0h4v4h-4v-4Zm20,0h4v4h-4v-4Zm20,0h4v4h-4v-4ZM0,568h4v4H0v-4Zm20,0h4v4h-4v-4Zm20,0h4v4h-4v-4Zm20,0h4v4h-4v-4Zm20,0h4v4h-4v-4Zm20,0h4v4h-4v-4Zm20,0h4v4h-4v-4Zm20,0h4v4h-4v-4Zm20,0h4v4h-4v-4Zm20,0h4v4h-4v-4Zm20,0h4v4h-4v-4Zm20,0h4v4h-4v-4Zm20,0h4v4h-4v-4Zm20,0h4v4h-4v-4ZM0,588h4v4H0v-4Zm20,0h4v4h-4v-4Zm20,0h4v4h-4v-4Zm20,0h4v4h-4v-4Zm20,0h4v4h-4v-4Zm20,0h4v4h-4v-4Zm20,0h4v4h-4v-4Zm20,0h4v4h-4v-4Zm20,0h4v4h-4v-4Zm20,0h4v4h-4v-4Zm20,0h4v4h-4v-4Zm20,0h4v4h-4v-4Zm20,0h4v4h-4v-4Zm20,0h4v4h-4v-4ZM0,608h4v4H0v-4Zm20,0h4v4h-4v-4Zm20,0h4v4h-4v-4Zm20,0h4v4h-4v-4Zm20,0h4v4h-4v-4Zm20,0h4v4h-4v-4Zm20,0h4v4h-4v-4Zm20,0h4v4h-4v-4Zm20,0h4v4h-4v-4Zm20,0h4v4h-4v-4Zm20,0h4v4h-4v-4Zm20,0h4v4h-4v-4Zm20,0h4v4h-4v-4Zm20,0h4v4h-4v-4ZM0,628h4v4H0v-4Zm20,0h4v4h-4v-4Zm20,0h4v4h-4v-4Zm20,0h4v4h-4v-4Zm20,0h4v4h-4v-4Zm20,0h4v4h-4v-4Zm20,0h4v4h-4v-4Zm20,0h4v4h-4v-4Zm20,0h4v4h-4v-4Zm20,0h4v4h-4v-4Zm20,0h4v4h-4v-4Zm20,0h4v4h-4v-4Zm20,0h4v4h-4v-4Zm20,0h4v4h-4v-4ZM0,648h4v4H0v-4Zm20,0h4v4h-4v-4Zm20,0h4v4h-4v-4Zm20,0h4v4h-4v-4Zm20,0h4v4h-4v-4Zm20,0h4v4h-4v-4Zm20,0h4v4h-4v-4Zm20,0h4v4h-4v-4Zm20,0h4v4h-4v-4Zm20,0h4v4h-4v-4Zm20,0h4v4h-4v-4Zm20,0h4v4h-4v-4Zm20,0h4v4h-4v-4Zm20,0h4v4h-4v-4ZM0,668h4v4H0v-4Zm20,0h4v4h-4v-4Zm20,0h4v4h-4v-4Zm20,0h4v4h-4v-4Zm20,0h4v4h-4v-4Zm20,0h4v4h-4v-4Zm20,0h4v4h-4v-4Zm20,0h4v4h-4v-4Zm20,0h4v4h-4v-4Zm20,0h4v4h-4v-4Zm20,0h4v4h-4v-4Zm20,0h4v4h-4v-4Zm20,0h4v4h-4v-4Zm20,0h4v4h-4v-4Z" fill="rgba(93,175,170,.5)" stroke-width="0"/><path d="m116-3h4V1h-4V-3Zm20,0h4V1h-4V-3Zm20,0h4V1h-4V-3Zm20,0h4V1h-4V-3Zm20,0h4V1h-4V-3Zm20,0h4V1h-4V-3Zm20,0h4V1h-4V-3Zm20,0h4V1h-4V-3Zm20,0h4V1h-4V-3Zm20,0h4V1h-4V-3Zm20,0h4V1h-4V-3Zm20,0h4V1h-4V-3Zm20,0h4V1h-4V-3Zm20,0h4V1h-4V-3ZM116,17h4v4h-4v-4Zm20,0h4v4h-4v-4Zm20,0h4v4h-4v-4Zm20,0h4v4h-4v-4Zm20,0h4v4h-4v-4Zm20,0h4v4h-4v-4Zm20,0h4v4h-4v-4Zm20,0h4v4h-4v-4Zm20,0h4v4h-4v-4Zm20,0h4v4h-4v-4Zm20,0h4v4h-4v-4Zm20,0h4v4h-4v-4Zm20,0h4v4h-4v-4Zm20,0h4v4h-4v-4ZM116,37h4v4h-4v-4Zm20,0h4v4h-4v-4Zm20,0h4v4h-4v-4Zm20,0h4v4h-4v-4Zm20,0h4v4h-4v-4Zm20,0h4v4h-4v-4Zm20,0h4v4h-4v-4Zm20,0h4v4h-4v-4Zm20,0h4v4h-4v-4Zm20,0h4v4h-4v-4Zm20,0h4v4h-4v-4Zm20,0h4v4h-4v-4Zm20,0h4v4h-4v-4Zm20,0h4v4h-4v-4ZM116,57h4v4h-4v-4Zm20,0h4v4h-4v-4Zm20,0h4v4h-4v-4Zm20,0h4v4h-4v-4Zm20,0h4v4h-4v-4Zm20,0h4v4h-4v-4Zm20,0h4v4h-4v-4Zm20,0h4v4h-4v-4Zm20,0h4v4h-4v-4Zm20,0h4v4h-4v-4Zm20,0h4v4h-4v-4Zm20,0h4v4h-4v-4Zm20,0h4v4h-4v-4Zm20,0h4v4h-4v-4Zm-260,20h4v4h-4v-4Zm20,0h4v4h-4v-4Zm20,0h4v4h-4v-4Zm20,0h4v4h-4v-4Zm20,0h4v4h-4v-4Zm20,0h4v4h-4v-4Zm20,0h4v4h-4v-4Zm20,0h4v4h-4v-4Zm20,0h4v4h-4v-4Zm20,0h4v4h-4v-4Zm20,0h4v4h-4v-4Zm-200,20h4v4h-4v-4Zm20,0h4v4h-4v-4Zm20,0h4v4h-4v-4Zm20,0h4v4h-4v-4Zm20,0h4v4h-4v-4Zm20,0h4v4h-4v-4Zm20,0h4v4h-4v-4Zm20,0h4v4h-4v-4Zm20,0h4v4h-4v-4Zm20,0h4v4h-4v-4Zm20,0h4v4h-4v-4Zm-20,20h4v4h-4v-4Zm20,0h4v4h-4v-4Zm-20,20h4v4h-4v-4Zm20,0h4v4h-4v-4Zm-20,20h4v4h-4v-4Zm20,0h4v4h-4v-4Zm-20,20h4v4h-4v-4Zm20,0h4v4h-4v-4Zm-20,20h4v4h-4v-4Zm20,0h4v4h-4v-4Zm-20,20h4v4h-4v-4Zm20,0h4v4h-4v-4Z" fill="rgba(93,175,170,.5)" stroke-width="0"/><path d="m539,359h4v4h-4v-4Zm20,0h4v4h-4v-4Zm20,0h4v4h-4v-4Zm20,0h4v4h-4v-4Zm20,0h4v4h-4v-4Zm20,0h4v4h-4v-4Zm20,0h4v4h-4v-4Zm20,0h4v4h-4v-4Zm-140,20h4v4h-4v-4Zm20,0h4v4h-4v-4Zm20,0h4v4h-4v-4Zm20,0h4v4h-4v-4Zm20,0h4v4h-4v-4Zm20,0h4v4h-4v-4Zm20,0h4v4h-4v-4Zm20,0h4v4h-4v-4Zm-140,20h4v4h-4v-4Zm20,0h4v4h-4v-4Zm20,0h4v4h-4v-4Zm20,0h4v4h-4v-4Zm20,0h4v4h-4v-4Zm20,0h4v4h-4v-4Zm20,0h4v4h-4v-4Zm20,0h4v4h-4v-4Zm-140,20h4v4h-4v-4Zm20,0h4v4h-4v-4Zm20,0h4v4h-4v-4Zm20,0h4v4h-4v-4Zm20,0h4v4h-4v-4Zm20,0h4v4h-4v-4Zm20,0h4v4h-4v-4Zm20,0h4v4h-4v-4Zm-140,20h4v4h-4v-4Zm20,0h4v4h-4v-4Zm20,0h4v4h-4v-4Zm20,0h4v4h-4v-4Zm20,0h4v4h-4v-4Zm20,0h4v4h-4v-4Zm20,0h4v4h-4v-4Zm20,0h4v4h-4v-4Zm-140,20h4v4h-4v-4Zm20,0h4v4h-4v-4Zm20,0h4v4h-4v-4Zm20,0h4v4h-4v-4Zm20,0h4v4h-4v-4Zm20,0h4v4h-4v-4Zm20,0h4v4h-4v-4Zm20,0h4v4h-4v-4Zm-140,20h4v4h-4v-4Zm20,0h4v4h-4v-4Zm20,0h4v4h-4v-4Zm20,0h4v4h-4v-4Zm20,0h4v4h-4v-4Zm20,0h4v4h-4v-4Zm20,0h4v4h-4v-4Zm20,0h4v4h-4v-4Zm-140,20h4v4h-4v-4Zm20,0h4v4h-4v-4Zm20,0h4v4h-4v-4Zm20,0h4v4h-4v-4Zm20,0h4v4h-4v-4Zm20,0h4v4h-4v-4Zm20,0h4v4h-4v-4Zm20,0h4v4h-4v-4Zm-140,20h4v4h-4v-4Zm20,0h4v4h-4v-4Zm20,0h4v4h-4v-4Zm20,0h4v4h-4v-4Zm20,0h4v4h-4v-4Zm20,0h4v4h-4v-4Zm20,0h4v4h-4v-4Zm20,0h4v4h-4v-4Zm-140,20h4v4h-4v-4Zm20,0h4v4h-4v-4Zm20,0h4v4h-4v-4Zm20,0h4v4h-4v-4Zm20,0h4v4h-4v-4Zm20,0h4v4h-4v-4Zm20,0h4v4h-4v-4Zm20,0h4v4h-4v-4Zm-140,20h4v4h-4v-4Zm20,0h4v4h-4v-4Zm20,0h4v4h-4v-4Zm20,0h4v4h-4v-4Zm20,0h4v4h-4v-4Zm20,0h4v4h-4v-4Zm20,0h4v4h-4v-4Zm20,0h4v4h-4v-4Zm-140,20h4v4h-4v-4Zm20,0h4v4h-4v-4Zm20,0h4v4h-4v-4Zm20,0h4v4h-4v-4Zm20,0h4v4h-4v-4Zm20,0h4v4h-4v-4Zm20,0h4v4h-4v-4Zm20,0h4v4h-4v-4Zm-260,20h4v4h-4v-4Zm20,0h4v4h-4v-4Zm20,0h4v4h-4v-4Zm20,0h4v4h-4v-4Zm20,0h4v4h-4v-4Zm20,0h4v4h-4v-4Zm20,0h4v4h-4v-4Zm20,0h4v4h-4v-4Zm20,0h4v4h-4v-4Zm20,0h4v4h-4v-4Zm20,0h4v4h-4v-4Zm20,0h4v4h-4v-4Zm20,0h4v4h-4v-4Zm20,0h4v4h-4v-4Zm-260,20h4v4h-4v-4Zm20,0h4v4h-4v-4Zm20,0h4v4h-4v-4Zm20,0h4v4h-4v-4Zm20,0h4v4h-4v-4Zm20,0h4v4h-4v-4Zm20,0h4v4h-4v-4Zm20,0h4v4h-4v-4Zm20,0h4v4h-4v-4Zm20,0h4v4h-4v-4Zm20,0h4v4h-4v-4Zm20,0h4v4h-4v-4Zm20,0h4v4h-4v-4Zm20,0h4v4h-4v-4Z" fill="#41a6ac" stroke-width="0"/><path d="m59,107h224c3.3,0,6,2.7,6,6v271c0,3.3-2.7,6-6,6H59c-3.3,0-6-2.7-6-6V113c0-3.3,2.7-6,6-6Zm268,185h196c3.3,0,6,2.7,6,6v282c0,3.3-2.7,6-6,6h-196c-3.3,0-6-2.7-6-6v-282c0-3.3,2.7-6,6-6Zm0-231h271c3.3,0,6,2.7,6,6v187c0,3.3-2.7,6-6,6h-271c-3.3,0-6-2.7-6-6V67c0-3.3,2.7-6,6-6Z" fill="#c1e8e8" stroke-width="0"/><path d="m199,422h84c3.3,0,6,2.7,6,6v84c0,3.3-2.7,6-6,6h-84c-3.3,0-6-2.7-6-6v-84c0-3.3,2.7-6,6-6Z" fill="#53bfbf" stroke-width="0"/></svg>