<svg viewBox="0 0 683 672" xmlns="http://www.w3.org/2000/svg"><path d="m0 408h4v4h-4zm20 0h4v4h-4zm20 0h4v4h-4zm20 0h4v4h-4zm20 0h4v4h-4zm20 0h4v4h-4zm20 0h4v4h-4zm20 0h4v4h-4zm20 0h4v4h-4zm20 0h4v4h-4zm20 0h4v4h-4zm20 0h4v4h-4zm20 0h4v4h-4zm20 0h4v4h-4zm-260 20h4v4h-4zm20 0h4v4h-4zm20 0h4v4h-4zm20 0h4v4h-4zm20 0h4v4h-4zm20 0h4v4h-4zm20 0h4v4h-4zm20 0h4v4h-4zm20 0h4v4h-4zm20 0h4v4h-4zm-180 20h4v4h-4zm20 0h4v4h-4zm20 0h4v4h-4zm20 0h4v4h-4zm20 0h4v4h-4zm20 0h4v4h-4zm20 0h4v4h-4zm20 0h4v4h-4zm20 0h4v4h-4zm20 0h4v4h-4zm-180 20h4v4h-4zm20 0h4v4h-4zm20 0h4v4h-4zm20 0h4v4h-4zm20 0h4v4h-4zm20 0h4v4h-4zm20 0h4v4h-4zm20 0h4v4h-4zm20 0h4v4h-4zm20 0h4v4h-4zm-180 20h4v4h-4zm20 0h4v4h-4zm20 0h4v4h-4zm20 0h4v4h-4zm20 0h4v4h-4zm20 0h4v4h-4zm20 0h4v4h-4zm20 0h4v4h-4zm20 0h4v4h-4zm20 0h4v4h-4zm-180 20h4v4h-4zm20 0h4v4h-4zm20 0h4v4h-4zm20 0h4v4h-4zm20 0h4v4h-4zm20 0h4v4h-4zm20 0h4v4h-4zm20 0h4v4h-4zm20 0h4v4h-4zm20 0h4v4h-4zm-180 20h4v4h-4zm20 0h4v4h-4zm20 0h4v4h-4zm20 0h4v4h-4zm20 0h4v4h-4zm20 0h4v4h-4zm20 0h4v4h-4zm20 0h4v4h-4zm20 0h4v4h-4zm20 0h4v4h-4zm20 0h4v4h-4zm20 0h4v4h-4zm20 0h4v4h-4zm20 0h4v4h-4zm-260 20h4v4h-4zm20 0h4v4h-4zm20 0h4v4h-4zm20 0h4v4h-4zm20 0h4v4h-4zm20 0h4v4h-4zm20 0h4v4h-4zm20 0h4v4h-4zm20 0h4v4h-4zm20 0h4v4h-4zm20 0h4v4h-4zm20 0h4v4h-4zm20 0h4v4h-4zm20 0h4v4h-4zm-260 20h4v4h-4zm20 0h4v4h-4zm20 0h4v4h-4zm20 0h4v4h-4zm20 0h4v4h-4zm20 0h4v4h-4zm20 0h4v4h-4zm20 0h4v4h-4zm20 0h4v4h-4zm20 0h4v4h-4zm20 0h4v4h-4zm20 0h4v4h-4zm20 0h4v4h-4zm20 0h4v4h-4zm-260 20h4v4h-4zm20 0h4v4h-4zm20 0h4v4h-4zm20 0h4v4h-4zm20 0h4v4h-4zm20 0h4v4h-4zm20 0h4v4h-4zm20 0h4v4h-4zm20 0h4v4h-4zm20 0h4v4h-4zm20 0h4v4h-4zm20 0h4v4h-4zm20 0h4v4h-4zm20 0h4v4h-4zm-260 20h4v4h-4zm20 0h4v4h-4zm20 0h4v4h-4zm20 0h4v4h-4zm20 0h4v4h-4zm20 0h4v4h-4zm20 0h4v4h-4zm20 0h4v4h-4zm20 0h4v4h-4zm20 0h4v4h-4zm20 0h4v4h-4zm20 0h4v4h-4zm20 0h4v4h-4zm20 0h4v4h-4zm-260 20h4v4h-4zm20 0h4v4h-4zm20 0h4v4h-4zm20 0h4v4h-4zm20 0h4v4h-4zm20 0h4v4h-4zm20 0h4v4h-4zm20 0h4v4h-4zm20 0h4v4h-4zm20 0h4v4h-4zm20 0h4v4h-4zm20 0h4v4h-4zm20 0h4v4h-4zm20 0h4v4h-4zm-260 20h4v4h-4zm20 0h4v4h-4zm20 0h4v4h-4zm20 0h4v4h-4zm20 0h4v4h-4zm20 0h4v4h-4zm20 0h4v4h-4zm20 0h4v4h-4zm20 0h4v4h-4zm20 0h4v4h-4zm20 0h4v4h-4zm20 0h4v4h-4zm20 0h4v4h-4zm20 0h4v4h-4zm-260 20h4v4h-4zm20 0h4v4h-4zm20 0h4v4h-4zm20 0h4v4h-4zm20 0h4v4h-4zm20 0h4v4h-4zm20 0h4v4h-4zm20 0h4v4h-4zm20 0h4v4h-4zm20 0h4v4h-4zm20 0h4v4h-4zm20 0h4v4h-4zm20 0h4v4h-4zm20 0h4v4h-4z" fill="#a8d2ff"/><path d="m116-3h4v4h-4zm20 0h4v4h-4zm20 0h4v4h-4zm20 0h4v4h-4zm20 0h4v4h-4zm20 0h4v4h-4zm20 0h4v4h-4zm20 0h4v4h-4zm20 0h4v4h-4zm20 0h4v4h-4zm20 0h4v4h-4zm20 0h4v4h-4zm20 0h4v4h-4zm20 0h4v4h-4zm-260 20h4v4h-4zm20 0h4v4h-4zm20 0h4v4h-4zm20 0h4v4h-4zm20 0h4v4h-4zm20 0h4v4h-4zm20 0h4v4h-4zm20 0h4v4h-4zm20 0h4v4h-4zm20 0h4v4h-4zm20 0h4v4h-4zm20 0h4v4h-4zm20 0h4v4h-4zm20 0h4v4h-4zm-260 20h4v4h-4zm20 0h4v4h-4zm20 0h4v4h-4zm20 0h4v4h-4zm20 0h4v4h-4zm20 0h4v4h-4zm20 0h4v4h-4zm20 0h4v4h-4zm20 0h4v4h-4zm20 0h4v4h-4zm20 0h4v4h-4zm20 0h4v4h-4zm20 0h4v4h-4zm20 0h4v4h-4zm-260 20h4v4h-4zm20 0h4v4h-4zm20 0h4v4h-4zm20 0h4v4h-4zm20 0h4v4h-4zm20 0h4v4h-4zm20 0h4v4h-4zm20 0h4v4h-4zm20 0h4v4h-4zm20 0h4v4h-4zm20 0h4v4h-4zm20 0h4v4h-4zm20 0h4v4h-4zm20 0h4v4h-4zm-260 20h4v4h-4zm20 0h4v4h-4zm20 0h4v4h-4zm20 0h4v4h-4zm20 0h4v4h-4zm20 0h4v4h-4zm20 0h4v4h-4zm20 0h4v4h-4zm20 0h4v4h-4zm20 0h4v4h-4zm20 0h4v4h-4zm-200 20h4v4h-4zm20 0h4v4h-4zm20 0h4v4h-4zm20 0h4v4h-4zm20 0h4v4h-4zm20 0h4v4h-4zm20 0h4v4h-4zm20 0h4v4h-4zm20 0h4v4h-4zm20 0h4v4h-4zm20 0h4v4h-4zm-20 20h4v4h-4zm20 0h4v4h-4zm-20 20h4v4h-4zm20 0h4v4h-4zm-20 20h4v4h-4zm20 0h4v4h-4zm-20 20h4v4h-4zm20 0h4v4h-4zm-20 20h4v4h-4zm20 0h4v4h-4zm-20 20h4v4h-4zm20 0h4v4h-4z" fill="#a8d2ff"/><path d="m539 359h4v4h-4zm20 0h4v4h-4zm20 0h4v4h-4zm20 0h4v4h-4zm20 0h4v4h-4zm20 0h4v4h-4zm20 0h4v4h-4zm20 0h4v4h-4zm-140 20h4v4h-4zm20 0h4v4h-4zm20 0h4v4h-4zm20 0h4v4h-4zm20 0h4v4h-4zm20 0h4v4h-4zm20 0h4v4h-4zm20 0h4v4h-4zm-140 20h4v4h-4zm20 0h4v4h-4zm20 0h4v4h-4zm20 0h4v4h-4zm20 0h4v4h-4zm20 0h4v4h-4zm20 0h4v4h-4zm20 0h4v4h-4zm-140 20h4v4h-4zm20 0h4v4h-4zm20 0h4v4h-4zm20 0h4v4h-4zm20 0h4v4h-4zm20 0h4v4h-4zm20 0h4v4h-4zm20 0h4v4h-4zm-140 20h4v4h-4zm20 0h4v4h-4zm20 0h4v4h-4zm20 0h4v4h-4zm20 0h4v4h-4zm20 0h4v4h-4zm20 0h4v4h-4zm20 0h4v4h-4zm-140 20h4v4h-4zm20 0h4v4h-4zm20 0h4v4h-4zm20 0h4v4h-4zm20 0h4v4h-4zm20 0h4v4h-4zm20 0h4v4h-4zm20 0h4v4h-4zm-140 20h4v4h-4zm20 0h4v4h-4zm20 0h4v4h-4zm20 0h4v4h-4zm20 0h4v4h-4zm20 0h4v4h-4zm20 0h4v4h-4zm20 0h4v4h-4zm-140 20h4v4h-4zm20 0h4v4h-4zm20 0h4v4h-4zm20 0h4v4h-4zm20 0h4v4h-4zm20 0h4v4h-4zm20 0h4v4h-4zm20 0h4v4h-4zm-140 20h4v4h-4zm20 0h4v4h-4zm20 0h4v4h-4zm20 0h4v4h-4zm20 0h4v4h-4zm20 0h4v4h-4zm20 0h4v4h-4zm20 0h4v4h-4zm-140 20h4v4h-4zm20 0h4v4h-4zm20 0h4v4h-4zm20 0h4v4h-4zm20 0h4v4h-4zm20 0h4v4h-4zm20 0h4v4h-4zm20 0h4v4h-4zm-140 20h4v4h-4zm20 0h4v4h-4zm20 0h4v4h-4zm20 0h4v4h-4zm20 0h4v4h-4zm20 0h4v4h-4zm20 0h4v4h-4zm20 0h4v4h-4zm-140 20h4v4h-4zm20 0h4v4h-4zm20 0h4v4h-4zm20 0h4v4h-4zm20 0h4v4h-4zm20 0h4v4h-4zm20 0h4v4h-4zm20 0h4v4h-4zm-260 20h4v4h-4zm20 0h4v4h-4zm20 0h4v4h-4zm20 0h4v4h-4zm20 0h4v4h-4zm20 0h4v4h-4zm20 0h4v4h-4zm20 0h4v4h-4zm20 0h4v4h-4zm20 0h4v4h-4zm20 0h4v4h-4zm20 0h4v4h-4zm20 0h4v4h-4zm20 0h4v4h-4zm-260 20h4v4h-4zm20 0h4v4h-4zm20 0h4v4h-4zm20 0h4v4h-4zm20 0h4v4h-4zm20 0h4v4h-4zm20 0h4v4h-4zm20 0h4v4h-4zm20 0h4v4h-4zm20 0h4v4h-4zm20 0h4v4h-4zm20 0h4v4h-4zm20 0h4v4h-4zm20 0h4v4h-4z" fill="#3592fc"/><path d="m59 107h224c3.3 0 6 2.7 6 6v271c0 3.3-2.7 6-6 6h-224c-3.3 0-6-2.7-6-6v-271c0-3.3 2.7-6 6-6zm268 185h196c3.3 0 6 2.7 6 6v282c0 3.3-2.7 6-6 6h-196c-3.3 0-6-2.7-6-6v-282c0-3.3 2.7-6 6-6zm0-231h271c3.3 0 6 2.7 6 6v187c0 3.3-2.7 6-6 6h-271c-3.3 0-6-2.7-6-6v-187c0-3.3 2.7-6 6-6z" fill="#f0f7ff"/><path d="m199 422h84c3.3 0 6 2.7 6 6v84c0 3.3-2.7 6-6 6h-84c-3.3 0-6-2.7-6-6v-84c0-3.3 2.7-6 6-6z" fill="#0051a5"/></svg>