<svg xmlns="http://www.w3.org/2000/svg" viewBox="0 0 124 124"><path d="m0,0h4v4H0V0Zm20,0h4v4h-4V0Zm20,0h4v4h-4V0Zm20,0h4v4h-4V0Zm20,0h4v4h-4V0Zm20,0h4v4h-4V0Zm20,0h4v4h-4V0ZM0,20h4v4H0v-4Zm20,0h4v4h-4v-4Zm20,0h4v4h-4v-4Zm20,0h4v4h-4v-4Zm20,0h4v4h-4v-4Zm20,0h4v4h-4v-4Zm20,0h4v4h-4v-4ZM0,40h4v4H0v-4Zm20,0h4v4h-4v-4Zm20,0h4v4h-4v-4Zm20,0h4v4h-4v-4Zm20,0h4v4h-4v-4Zm20,0h4v4h-4v-4Zm20,0h4v4h-4v-4ZM0,60h4v4H0v-4Zm20,0h4v4h-4v-4Zm20,0h4v4h-4v-4Zm20,0h4v4h-4v-4Zm20,0h4v4h-4v-4Zm20,0h4v4h-4v-4Zm20,0h4v4h-4v-4ZM0,80h4v4H0v-4Zm20,0h4v4h-4v-4Zm20,0h4v4h-4v-4Zm20,0h4v4h-4v-4Zm20,0h4v4h-4v-4Zm20,0h4v4h-4v-4Zm20,0h4v4h-4v-4ZM0,100h4v4H0v-4Zm20,0h4v4h-4v-4Zm20,0h4v4h-4v-4Zm20,0h4v4h-4v-4Zm20,0h4v4h-4v-4Zm20,0h4v4h-4v-4Zm20,0h4v4h-4v-4ZM0,120h4v4H0v-4Zm20,0h4v4h-4v-4Zm20,0h4v4h-4v-4Zm20,0h4v4h-4v-4Zm20,0h4v4h-4v-4Zm20,0h4v4h-4v-4Zm20,0h4v4h-4v-4Z"/></svg>