<svg viewBox="0 0 264 264" xmlns="http://www.w3.org/2000/svg"><path d="m0 0h4v4h-4zm20 0h4v4h-4zm20 0h4v4h-4zm20 0h4v4h-4zm20 0h4v4h-4zm20 0h4v4h-4zm20 0h4v4h-4zm20 0h4v4h-4zm20 0h4v4h-4zm20 0h4v4h-4zm20 0h4v4h-4zm20 0h4v4h-4zm20 0h4v4h-4zm20 0h4v4h-4zm-260 20h4v4h-4zm20 0h4v4h-4zm20 0h4v4h-4zm20 0h4v4h-4zm20 0h4v4h-4zm20 0h4v4h-4zm20 0h4v4h-4zm20 0h4v4h-4zm20 0h4v4h-4zm20 0h4v4h-4zm20 0h4v4h-4zm20 0h4v4h-4zm20 0h4v4h-4zm20 0h4v4h-4zm-260 20h4v4h-4zm20 0h4v4h-4zm20 0h4v4h-4zm20 0h4v4h-4zm20 0h4v4h-4zm20 0h4v4h-4zm20 0h4v4h-4zm20 0h4v4h-4zm20 0h4v4h-4zm20 0h4v4h-4zm20 0h4v4h-4zm20 0h4v4h-4zm20 0h4v4h-4zm20 0h4v4h-4zm-260 20h4v4h-4zm20 0h4v4h-4zm20 0h4v4h-4zm20 0h4v4h-4zm20 0h4v4h-4zm20 0h4v4h-4zm20 0h4v4h-4zm20 0h4v4h-4zm20 0h4v4h-4zm20 0h4v4h-4zm20 0h4v4h-4zm20 0h4v4h-4zm20 0h4v4h-4zm20 0h4v4h-4zm-260 20h4v4h-4zm20 0h4v4h-4zm20 0h4v4h-4zm20 0h4v4h-4zm20 0h4v4h-4zm20 0h4v4h-4zm20 0h4v4h-4zm20 0h4v4h-4zm20 0h4v4h-4zm20 0h4v4h-4zm20 0h4v4h-4zm20 0h4v4h-4zm20 0h4v4h-4zm20 0h4v4h-4zm-260 20h4v4h-4zm20 0h4v4h-4zm20 0h4v4h-4zm20 0h4v4h-4zm20 0h4v4h-4zm20 0h4v4h-4zm20 0h4v4h-4zm20 0h4v4h-4zm20 0h4v4h-4zm20 0h4v4h-4zm20 0h4v4h-4zm20 0h4v4h-4zm20 0h4v4h-4zm20 0h4v4h-4zm-260 20h4v4h-4zm20 0h4v4h-4zm20 0h4v4h-4zm20 0h4v4h-4zm20 0h4v4h-4zm20 0h4v4h-4zm20 0h4v4h-4zm20 0h4v4h-4zm20 0h4v4h-4zm20 0h4v4h-4zm20 0h4v4h-4zm20 0h4v4h-4zm20 0h4v4h-4zm20 0h4v4h-4zm-260 20h4v4h-4zm20 0h4v4h-4zm20 0h4v4h-4zm20 0h4v4h-4zm20 0h4v4h-4zm20 0h4v4h-4zm20 0h4v4h-4zm20 0h4v4h-4zm20 0h4v4h-4zm20 0h4v4h-4zm20 0h4v4h-4zm20 0h4v4h-4zm20 0h4v4h-4zm20 0h4v4h-4zm-260 20h4v4h-4zm20 0h4v4h-4zm20 0h4v4h-4zm20 0h4v4h-4zm20 0h4v4h-4zm20 0h4v4h-4zm20 0h4v4h-4zm20 0h4v4h-4zm20 0h4v4h-4zm20 0h4v4h-4zm20 0h4v4h-4zm20 0h4v4h-4zm20 0h4v4h-4zm20 0h4v4h-4zm-260 20h4v4h-4zm20 0h4v4h-4zm20 0h4v4h-4zm20 0h4v4h-4zm20 0h4v4h-4zm20 0h4v4h-4zm20 0h4v4h-4zm20 0h4v4h-4zm20 0h4v4h-4zm20 0h4v4h-4zm20 0h4v4h-4zm20 0h4v4h-4zm20 0h4v4h-4zm20 0h4v4h-4zm-260 20h4v4h-4zm20 0h4v4h-4zm20 0h4v4h-4zm20 0h4v4h-4zm20 0h4v4h-4zm20 0h4v4h-4zm20 0h4v4h-4zm20 0h4v4h-4zm20 0h4v4h-4zm20 0h4v4h-4zm20 0h4v4h-4zm20 0h4v4h-4zm20 0h4v4h-4zm20 0h4v4h-4zm-260 20h4v4h-4zm20 0h4v4h-4zm20 0h4v4h-4zm20 0h4v4h-4zm20 0h4v4h-4zm20 0h4v4h-4zm20 0h4v4h-4zm20 0h4v4h-4zm20 0h4v4h-4zm20 0h4v4h-4zm20 0h4v4h-4zm20 0h4v4h-4zm20 0h4v4h-4zm20 0h4v4h-4zm-260 20h4v4h-4zm20 0h4v4h-4zm20 0h4v4h-4zm20 0h4v4h-4zm20 0h4v4h-4zm20 0h4v4h-4zm20 0h4v4h-4zm20 0h4v4h-4zm20 0h4v4h-4zm20 0h4v4h-4zm20 0h4v4h-4zm20 0h4v4h-4zm20 0h4v4h-4zm20 0h4v4h-4zm-260 20h4v4h-4zm20 0h4v4h-4zm20 0h4v4h-4zm20 0h4v4h-4zm20 0h4v4h-4zm20 0h4v4h-4zm20 0h4v4h-4zm20 0h4v4h-4zm20 0h4v4h-4zm20 0h4v4h-4zm20 0h4v4h-4zm20 0h4v4h-4zm20 0h4v4h-4zm20 0h4v4h-4z"/></svg>