<svg viewBox="0 0 124 124" xmlns="http://www.w3.org/2000/svg"><path d="m0 0h4v4h-4zm20 0h4v4h-4zm20 0h4v4h-4zm20 0h4v4h-4zm20 0h4v4h-4zm20 0h4v4h-4zm20 0h4v4h-4zm-120 20h4v4h-4zm20 0h4v4h-4zm20 0h4v4h-4zm20 0h4v4h-4zm20 0h4v4h-4zm20 0h4v4h-4zm20 0h4v4h-4zm-120 20h4v4h-4zm20 0h4v4h-4zm20 0h4v4h-4zm20 0h4v4h-4zm20 0h4v4h-4zm20 0h4v4h-4zm20 0h4v4h-4zm-120 20h4v4h-4zm20 0h4v4h-4zm20 0h4v4h-4zm20 0h4v4h-4zm20 0h4v4h-4zm20 0h4v4h-4zm20 0h4v4h-4zm-120 20h4v4h-4zm20 0h4v4h-4zm20 0h4v4h-4zm20 0h4v4h-4zm20 0h4v4h-4zm20 0h4v4h-4zm20 0h4v4h-4zm-120 20h4v4h-4zm20 0h4v4h-4zm20 0h4v4h-4zm20 0h4v4h-4zm20 0h4v4h-4zm20 0h4v4h-4zm20 0h4v4h-4zm-120 20h4v4h-4zm20 0h4v4h-4zm20 0h4v4h-4zm20 0h4v4h-4zm20 0h4v4h-4zm20 0h4v4h-4zm20 0h4v4h-4z"/></svg>