<svg xmlns="http://www.w3.org/2000/svg" viewBox="0 0 32 32"><defs><linearGradient id="a" x1="15.9" y1="-31.3" x2="15.9" y2="-.5" gradientTransform="scale(1 -1)" gradientUnits="userSpaceOnUse"><stop offset="0" stop-color="#1faf38"/><stop offset="1" stop-color="#60d669"/></linearGradient><linearGradient id="b" x1="15.9" y1="-31.9" x2="15.9" gradientTransform="scale(1 -1)" gradientUnits="userSpaceOnUse"><stop offset="0" stop-color="#f9f9f9"/><stop offset="1" stop-color="#fff"/></linearGradient></defs><path d="M.7 15.9c0 2.7.7 5.3 2 7.7L.5 31.5l8.1-2.1c2.2 1.2 4.8 1.9 7.3 1.9 8.4 0 15.3-6.9 15.3-15.3 0-4.1-1.6-8-4.5-10.8C24 2.2 20.1.5 16 .6 7.6.6.7 7.4.7 15.9" fill="url(#a)"/><path d="M.1 15.9c0 2.8.7 5.5 2.1 7.9L0 32l8.4-2.2c2.3 1.3 4.9 1.9 7.6 1.9 8.7 0 15.9-7.1 15.9-15.9 0-4.2-1.7-8.2-4.6-11.2C24.2 1.7 20.2 0 16 0 7.3 0 .1 7.1.1 15.9zm5 7.5l-.3-.5c-1.3-2.1-2-4.5-2-7C2.8 8.6 8.7 2.7 16 2.7c3.5 0 6.8 1.4 9.3 3.9 2.5 2.5 3.9 5.8 3.9 9.3 0 7.3-5.9 13.2-13.2 13.2-2.4 0-4.7-.6-6.7-1.8l-.5-.3-5 1.3 1.3-4.9z" fill="url(#b)"/><path d="M12 9.2c-.3-.7-.6-.7-.9-.7h-.8c-.3 0-.7.1-1.1.5-.4.4-1.4 1.4-1.4 3.3s1.4 3.8 1.6 4.1 2.7 4.4 6.8 6c3.3 1.3 4 1.1 4.8 1 .7 0 2.3-1 2.7-1.9s.3-1.7.2-1.9c0-.2-.4-.3-.8-.5s-2.3-1.2-2.7-1.3c-.4-.1-.6-.2-.9.2-.3.4-1 1.3-1.3 1.6-.2.3-.5.3-.9.1-.4-.2-1.7-.6-3.2-2-1.2-1-2-2.3-2.2-2.7-.2-.4 0-.6.2-.8s.4-.5.6-.7c.2-.2.3-.4.4-.7.1-.3 0-.5 0-.7-.1-.2-.9-2.2-1.2-2.9" fill="#fff"/></svg>