<svg xmlns="http://www.w3.org/2000/svg" viewBox="0 0 32 32"><path d="M16 31.9C7.2 31.9 0 24.8 0 16S7.2 0 16 0s15.9 7.1 15.9 15.9S24.8 31.8 16 31.8zm0-30.6C7.9 1.4 1.4 7.9 1.4 16S8 30.6 16 30.6 30.6 24 30.6 16 24.1 1.4 16 1.4zm-1.7 22.4H14c-.5-.1-.9-.7-.7-1.2l3.5-13.3c.1-.5.7-.9 1.2-.7.5.1.9.7.7 1.2L15.2 23c-.1.4-.5.7-1 .7zm7-3.3c-.3 0-.5-.1-.7-.3-.4-.4-.4-1 0-1.4l2.7-2.6-2.7-2.6c-.4-.4-.4-1 0-1.4s1-.4 1.4 0l3.5 3.3c.2.2.3.5.3.7s-.1.5-.3.7L22 20.1c-.2.2-.4.3-.7.3zm-10.5 0c-.2 0-.5 0-.7-.3l-3.5-3.3c-.2-.2-.3-.5-.3-.7s0-.5.3-.7l3.5-3.3c.4-.4 1-.4 1.4 0s.4 1 0 1.4l-2.7 2.6 2.7 2.6c.4.4.4 1 0 1.4-.2.2-.5.3-.7.3z"/></svg>