<svg viewBox="0 0 32 32" xmlns="http://www.w3.org/2000/svg"><path d="m18.6 10.6c.8-.8 2-.8 2.8 0s.8 2 0 2.8l-3 3c-.8.8-2 .8-2.8 0-.4-.4-1-.4-1.4 0s-.4 1 0 1.4c1.6 1.6 4.1 1.6 5.6 0l3-3c1.6-1.6 1.6-4.1 0-5.6-1.6-1.6-4.1-1.6-5.6 0l-1.5 1.5c-.4.4-.4 1 0 1.4s1 .4 1.4 0zm-5 5c.8-.8 2-.8 2.8 0 .4.4 1 .4 1.4 0s.4-1 0-1.4c-1.6-1.6-4.1-1.6-5.6 0l-3 3c-1.6 1.6-1.6 4.1 0 5.6 1.6 1.6 4.1 1.6 5.6 0l1.5-1.5c.4-.4.4-1 0-1.4s-1-.4-1.4 0l-1.5 1.5c-.8.8-2 .8-2.8 0s-.8-2 0-2.8zm2.4 16.3c-8.8 0-16-7.1-16-15.9s7.2-16 16-16 15.9 7.1 15.9 15.9-7.1 15.9-15.9 15.9zm0-30.6c-8.1.1-14.6 6.6-14.6 14.7s6.6 14.6 14.6 14.6 14.6-6.6 14.6-14.6-6.5-14.6-14.6-14.6z"/></svg>