<svg xmlns="http://www.w3.org/2000/svg" viewBox="0 0 24 24"><path d="M19 20h-2c-.8 0-1.5-.3-2-.8-.5.5-1.2.8-2 .8h-2c-.8 0-1.5-.3-2-.8-.5.5-1.2.8-2 .8H5c-1.7 0-3-1.3-3-3V7c0-1.7 1.3-3 3-3h2c.8 0 1.5.3 2 .8.5-.5 1.2-.8 2-.8h2c.8 0 1.5.3 2 .8.5-.5 1.2-.8 2-.8h2c1.7 0 3 1.3 3 3v10c0 1.7-1.3 3-3 3zm-3-3c0 .6.4 1 1 1h2c.6 0 1-.4 1-1V7c0-.6-.4-1-1-1h-2c-.6 0-1 .4-1 1v10zm-6 0c0 .6.4 1 1 1h2c.6 0 1-.4 1-1V7c0-.6-.4-1-1-1h-2c-.6 0-1 .4-1 1v10zM5 6c-.6 0-1 .4-1 1v10c0 .6.4 1 1 1h2c.6 0 1-.4 1-1V7c0-.6-.4-1-1-1H5z"/></svg>