<svg xmlns="http://www.w3.org/2000/svg" viewBox="0 0 1155.3 305.3"><path d="M94.3,262c0,22.7-13.2,38-38.4,38H0v-127.8h50.7c25.8,0,37.6,17.9,37.6,35.2s-4.8,20.5-12.8,25.3c12.2,5.2,18.7,16.5,18.7,29.4h0ZM21.6,192.1v31.1h28.8c9.1,0,16.1-5.3,16.1-15.5s-6-15.5-16.1-15.5h-28.8ZM53.2,279.8c11.2,0,19.5-7.1,19.5-18.5s-6.9-18.2-18.9-18.2H21.6v36.7h31.5ZM167.8,204.1h21.5v95.9h-18.9v-10.7c-7,8.3-17.5,13.4-31.3,13.4-35.3,0-37.7-33.7-37.7-45.1v-53.5h21.7v46.2c0,11.8,2,32.3,22.4,32.3s22.5-6,22.5-29.2v-49.3h0ZM256.1,204.1v20c-5.8-1.6-13.8-1.2-19.8,2.3-8.8,4.8-12.7,13.8-12.7,24.8v48.7h-21.5v-95.9h18.9v15.4c2.4-4.2,5.6-7.8,9.6-10.3,7.1-4.9,16.9-6.4,25.5-5.1h0ZM258.4,272.2l21.8-3.4c2.1,9.5,10.3,15.3,22,15.3s16.2-4.3,16.2-11.5-2.8-8.1-24.4-13.8c-24-6.3-32.5-13.5-32.5-27.9s14.9-29.5,37.7-29.5,38,11.1,40.4,28.3l-21.8,3.9c-1.2-8.2-7.8-13-18.2-13.7-10-.4-16.8,3.5-16.8,9.8s3.7,7.7,26.2,13.4c23,6,31.3,13.5,31.3,28.4s-14.9,31-39.6,31-39.1-11.1-42.3-30.5h0ZM430.1,241.1v58.8h-18.7v-12.9c-8.2,10.7-18.4,15.5-33.6,15.5s-32.1-13.1-32.1-28.9,6.7-23.4,21.8-28.7c10.1-3.3,24.9-5.3,41.7-7.8-.8-11-6.6-16.2-19.6-16.2s-17.8,3.6-21,13.4l-19.5-6.1c4.7-16.2,17.9-26.9,40.5-26.9s30.6,5.2,36.9,17.8c3.4,6.8,3.6,13.6,3.6,21.8h0ZM408.9,254.8c-15.3,2.4-24,3.7-30.7,6-7.4,2.8-11.6,6.4-11.6,12.6s5.3,12.2,15.4,12.2c14.6,0,22.6-9.2,24.8-15.9,1.8-4.3,2-10.5,2.1-14.9h0ZM570.5,264.6c0,22.7-13.2,38-38.4,38h-55.8v-127.8h50.7c25.8,0,37.6,17.9,37.6,35.2s-4.8,20.5-12.8,25.3c12.2,5.2,18.7,16.5,18.7,29.4h0ZM497.9,194.7v31.1h28.8c9.1,0,16.2-5.3,16.2-15.5s-6-15.5-16.2-15.5h-28.8ZM529.4,282.4c11.2,0,19.5-7.1,19.5-18.5s-6.9-18.2-18.9-18.2h-32.1v36.7h31.5,0ZM579.7,182.4c0-7.2,5.5-12.8,12.8-12.8s12.9,5.6,12.9,12.8-5.4,12.8-12.9,12.8-12.8-5.6-12.8-12.8ZM581.9,302.5v-95.9h21.4v95.9h-21.4ZM708.4,249v53.5h-21.7v-46.2c0-11.8-1.9-32.3-22.4-32.3s-22.5,6-22.5,29.2v49.3h-21.7v-95.9h19.1v10.7c7-8.3,17.5-13.4,31.3-13.4,35.3,0,37.7,33.7,37.7,45.1h0ZM740.8,260.6c1.7,15.8,10.2,24.6,24.8,24.6s18.3-4.8,22.5-13.7l21.1,6.4c-7.4,17.4-23.9,27.3-42.3,27.3-29.1,0-48.9-20.4-48.9-49.5s19.4-51.7,47.7-51.7,47.1,22,44.7,56.5h-69.4ZM741.4,244.4h47.1c-1.8-15-8.8-21.7-22-21.7s-22.6,7.5-25.1,21.7ZM823.2,302.5v-130.5h21.4v130.5h-21.4ZM927,206.7h21.5v95.9h-18.9v-10.7c-7,8.3-17.5,13.4-31.3,13.4-35.3,0-37.7-33.7-37.7-45.1v-53.5h21.7v46.2c0,11.8,1.9,32.3,22.4,32.3s22.5-6,22.5-29.2v-49.3h0ZM962.2,182.4c0-7.2,5.5-12.8,12.8-12.8s12.9,5.6,12.9,12.8-5.4,12.8-12.9,12.8-12.8-5.6-12.8-12.8ZM964.4,302.5v-95.9h21.4v95.9h-21.4ZM1068,117.6c-1.4,2.8-3.3,5.4-5.6,7.7-5.9,5.9-13.7,9.1-22,9.1h-87.2V47.2c0-17.1,13.9-31.1,31.1-31.1s16.1,3.2,22,9.1c5.9,5.9,9.1,13.7,9.1,22v25h25c8.3,0,16.1,3.2,22,9.1.2.2.4.5.7.7,8.6,1.8,16.7,5.6,23.5,11.3-1.9-8.8-6.3-16.9-12.8-23.4-8.9-8.9-20.8-13.8-33.4-13.8h-8.8v-8.8c0-12.6-4.9-24.5-13.8-33.4-8.9-8.9-20.8-13.8-33.4-13.8h0c-26,0-47.2,21.2-47.2,47.2v103.3h103.3c12.6,0,24.5-4.9,33.4-13.8.7-.7,1.4-1.5,2.1-2.2-.2-6.1-2.7-11.7-7-16-.3-.3-.6-.6-.9-.8h0ZM1108.1,144.2h-8.8v-8.8c0-12.6-4.9-24.5-13.8-33.4-1.1-1.1-2.2-2.1-3.4-3.1-1.1-.9-2.3-1.8-3.5-2.6-.3-.2-.6-.4-.9-.6-.1,0-.2-.2-.4-.2-.3-.2-.7-.4-1.1-.7-.9-.5-1.8-1-2.7-1.5-1.1-.6-2.2-1.1-3.4-1.6-.1,0-.2,0-.3-.1l-2.7-1c-.4-.1-.8-.3-1.3-.4l-1.6-.5c-.3-.1-.7-.2-1.1-.3l-1.9-.4c-3-.6-6.1-.9-9.2-.9-12.6,0-24.5,4.9-33.4,13.8-7,7-11.5,15.7-13.1,25.3h16.5c1.4-5.2,4.1-9.9,8-13.8,5.9-5.9,13.7-9.1,22-9.1s9.2,1,13.3,3c2.6,1.2,5.1,2.9,7.3,4.9.1.1.3.2.4.3.3.3.7.6,1,.9.7.7,1.4,1.5,2.1,2.3.3.4.6.8.9,1.2.3.4.6.8.8,1.2.3.4.5.8.7,1.2.2.4.5.8.7,1.2,1.4,2.5,2.4,5.3,3.1,8.1h0c.1.5.2,1,.3,1.4,0,0,0,0,0,.1,0,.4.1.9.2,1.3,0,.3,0,.6.1.9,0,.2,0,.5,0,.8,0,.4,0,.8,0,1.1,0,.1,0,.3,0,.4v25.8h25c17.1,0,31.1,13.9,31.1,31.1s-13.9,31.1-31.1,31.1h-87.2v-64.7h-16.2v80.9h103.3c26,0,47.2-21.2,47.2-47.2s-21.2-47.2-47.2-47.2h0Z" stroke-width="0"/></svg>