<svg viewBox="0 0 879.6 397.4" xmlns="http://www.w3.org/2000/svg"><g fill="#2870ed"><path d="m115.9 169.9c0 27.9-16.3 46.7-47.2 46.7h-68.7v-157.1h62.3c31.8 0 46.3 22 46.3 43.2s-5.9 25.2-15.7 31.1c15.1 6.3 23 20.3 23 36.1zm-89.3-85.9v38.2h35.3c11.2 0 19.9-6.5 19.9-19.1s-7.4-19.1-19.9-19.1zm38.7 107.8c13.8 0 24-8.7 24-22.7s-8.5-22.4-23.2-22.4h-39.5v45.1z"/><path d="m206.3 98.8h26.4v117.8h-23.2v-13.1c-8.6 10.2-21.5 16.5-38.5 16.5-43.4 0-46.4-41.5-46.4-55.4v-65.8h26.6v56.7c0 14.5 2.4 39.7 27.5 39.7s27.6-7.3 27.6-35.9z"/><path d="m314.8 98.8v24.5c-7.1-2-17-1.4-24.3 2.8-10.8 5.9-15.6 16.9-15.6 30.5v59.9h-26.4v-117.8h23.2v18.9c3-5.1 6.9-9.6 11.8-12.7 8.7-6 20.7-7.9 31.3-6.2z"/><path d="m317.6 182.5 26.8-4.2c2.6 11.7 12.7 18.8 27.1 18.8s19.9-5.3 19.9-14.1-3.4-9.9-30-17c-29.6-7.8-39.9-16.6-39.9-34.3s18.3-36.2 46.4-36.2 46.7 13.6 49.6 34.8l-26.8 4.8c-1.4-10-9.6-16-22.4-16.8-12.3-.5-20.6 4.3-20.6 12.1s4.6 9.5 32.2 16.5c28.3 7.3 38.5 16.6 38.5 34.9s-18.3 38.1-48.7 38.1-48.1-13.6-52-37.4z"/><path d="m528.7 144.3v72.3h-23v-15.8c-10 13.1-22.6 19.1-41.3 19.1s-39.5-16.2-39.5-35.6 8.2-28.8 26.8-35.2c12.4-4 30.7-6.5 51.3-9.6-1-13.5-8.1-19.9-24.1-19.9s-21.8 4.5-25.8 16.5l-24-7.5c5.8-19.9 22-33.1 49.8-33.1s37.6 6.3 45.4 21.9c4.2 8.3 4.5 16.7 4.5 26.8zm-26 16.8c-18.8 3-29.5 4.6-37.8 7.4-9.1 3.4-14.3 7.9-14.3 15.5s6.5 15 19 15c17.9 0 27.8-11.3 30.4-19.5 2.2-5.3 2.5-12.9 2.6-18.3z"/><path d="m115.9 347.4c0 27.9-16.3 46.7-47.2 46.7h-68.7v-157.1h62.3c31.8 0 46.3 22 46.3 43.2s-5.9 25.2-15.7 31.1c15.1 6.3 23 20.3 23 36.1zm-89.3-85.9v38.2h35.3c11.2 0 19.9-6.5 19.9-19.1s-7.4-19.1-19.9-19.1zm38.7 107.8c13.8 0 24-8.7 24-22.7s-8.5-22.4-23.2-22.4h-39.5v45.1z"/><path d="m127.2 246.3c0-8.8 6.8-15.7 15.7-15.7s15.8 6.9 15.8 15.7-6.7 15.7-15.8 15.7-15.7-6.9-15.7-15.7zm2.6 147.8v-117.8h26.3v117.8z"/><path d="m285.3 328.3v65.8h-26.6v-56.7c0-14.5-2.4-39.7-27.5-39.7s-27.6 7.3-27.6 35.9v60.5h-26.6v-117.8h23.5v13.1c8.6-10.2 21.5-16.5 38.5-16.5 43.4 0 46.4 41.5 46.4 55.4z"/><path d="m325.2 342.4c2.1 19.4 12.5 30.2 30.4 30.2s22.5-5.9 27.6-16.8l26 7.9c-9.1 21.4-29.3 33.6-52 33.6-35.8 0-60.1-25.1-60.1-60.9s23.9-63.5 58.6-63.5 57.9 27.1 54.9 69.5h-85.3zm.7-19.8h57.9c-2.2-18.4-10.8-26.6-27.1-26.6s-27.8 9.2-30.9 26.6z"/><path d="m426.5 394.1v-160.4h26.3v160.4z"/><path d="m554 276.2h26.4v117.8h-23.2v-13.1c-8.6 10.2-21.5 16.5-38.5 16.5-43.4 0-46.4-41.5-46.4-55.4v-65.8h26.6v56.7c0 14.5 2.4 39.7 27.5 39.7s27.6-7.3 27.6-35.9z"/><path d="m597.4 246.3c0-8.8 6.8-15.7 15.7-15.7s15.8 6.9 15.8 15.7-6.7 15.7-15.8 15.7-15.7-6.9-15.7-15.7zm2.6 147.8v-117.8h26.3v117.8z"/><path d="m753.6 169.7c-2.1 4-4.8 7.8-8.1 11.1-8.5 8.5-19.7 13.1-31.7 13.1h-125.8v-125.8c0-24.7 20.1-44.8 44.9-44.8s23.2 4.7 31.7 13.1c8.5 8.5 13.1 19.7 13.1 31.7v36.1h36.1c12 0 23.2 4.7 31.7 13.1.3.3.7.7 1 1 12.5 2.5 24.1 8.1 34 16.2-2.7-12.7-9.1-24.4-18.4-33.8-12.9-12.9-30-20-48.2-20h-12.8v-12.7c0-18.2-7.1-35.3-20-48.2-12.9-12.9-30-20-48.2-20-37.6 0-68.2 30.6-68.2 68.2v149.1h149.1c18.2 0 35.3-7.1 48.2-20 1-1 2-2.1 3-3.2-.3-8.8-3.8-16.9-10.1-23.2-.4-.4-.9-.8-1.3-1.2z"/><path d="m811.4 208.1h-12.8v-12.8c0-18.2-7.1-35.3-20-48.2-1.6-1.6-3.2-3.1-4.9-4.5-1.6-1.4-3.3-2.6-5.1-3.8-.4-.3-.8-.6-1.3-.8-.2-.1-.4-.2-.6-.4-.5-.3-1-.6-1.5-1-1.3-.8-2.5-1.5-3.8-2.1-1.6-.8-3.2-1.6-4.9-2.3-.2 0-.3-.1-.5-.2l-3.9-1.4c-.6-.2-1.2-.4-1.8-.6l-2.3-.7c-.5-.1-1-.3-1.5-.4l-2.8-.6c-4.3-.9-8.8-1.3-13.3-1.3-18.2 0-35.3 7.1-48.2 20-10.1 10.1-16.6 22.7-19 36.5h23.9c2-7.5 5.9-14.4 11.6-20 8.5-8.5 19.7-13.1 31.7-13.1s13.2 1.5 19.2 4.3c3.8 1.8 7.3 4.2 10.6 7 .2.2.4.3.6.5.5.4 1 .9 1.4 1.4 1.1 1.1 2.1 2.2 3 3.3.5.6.9 1.1 1.4 1.7.4.6.8 1.1 1.2 1.7.4.5.7 1.1 1.1 1.7.3.5.7 1.1 1 1.7 2 3.7 3.5 7.6 4.4 11.7.2.7.3 1.3.4 2v.1c.1.6.2 1.3.3 1.9 0 .5.1.9.2 1.3v1.1 1.7.6 1.1 36.1h36.1c24.7 0 44.8 20.1 44.9 44.8 0 24.7-20.1 44.9-44.8 44.9h-125.8v-93.5h-23.3v116.8h149.1c37.6 0 68.2-30.6 68.2-68.2s-30.6-68.2-68.2-68.2z"/></g></svg>