<svg viewBox="0 0 340.2 86.2" xmlns="http://www.w3.org/2000/svg"><path d="m80.7 2.4h-74c-2.1 0-3.7 1.7-3.7 3.8v74c0 2.1 1.7 3.7 3.7 3.7h74c2.1 0 3.7-1.7 3.7-3.7v-74.1c0-2.1-1.7-3.8-3.7-3.8zm-30.8 50h-13.5v14.1h-9v-47.9h22.6c23.4 0 23.5 33.9 0 33.9z"/><path d="m49.9 27.2h-13.5v17h13.5c11.6 0 11.5-17 0-17z"/><path d="m164.9 2.4h-74c-2.1 0-3.7 1.7-3.7 3.8v74c0 2.1 1.7 3.7 3.7 3.7h74c2.1 0 3.8-1.7 3.8-3.7v-74.1c0-2.1-1.7-3.8-3.8-3.8zm-36.4 64.1c-16.2 0-23.6-11.6-23.6-23.7s7.8-24.2 23.6-24.2 23.7 12.2 23.6 24.2c-.1 11.9-7.4 23.8-23.6 23.8z"/><path d="m128.5 26.4c-10.8 0-15.3 8.7-15.1 16.5.2 7.6 4.3 15.6 15.1 15.6s14.9-8.1 15-15.7c.1-7.8-4.2-16.4-15-16.4z"/><path d="m249.2 2.4h-74c-2.1 0-3.8 1.7-3.8 3.8v74c0 2.1 1.7 3.7 3.8 3.7h74c2.1 0 3.7-1.7 3.7-3.7v-74.1c0-2.1-1.7-3.8-3.7-3.8zm-16.3 64h-5.6s-25.2-32.3-25.2-32.3v32.3h-9v-47.8h7.3l23.5 29.7v-29.8h9v48z"/><path d="m333.5 2.4h-74c-2.1 0-3.8 1.7-3.8 3.8v74c0 2.1 1.7 3.7 3.8 3.7h74c2.1 0 3.7-1.7 3.7-3.7v-74.1c0-2.1-1.7-3.8-3.7-3.8zm-16.3 24.4h-15.2v39.7h-9v-39.7h-15.2v-8.2h39.4z"/></svg>