<svg xmlns="http://www.w3.org/2000/svg" viewBox="0 0 20 20"><path d="M10 0C4.5 0 0 4.5 0 10s2.9 8.2 6.8 9.5c.5 0 .7-.2.7-.5v-1.7c-2.8.6-3.4-1.3-3.4-1.3-.5-1.2-1.1-1.5-1.1-1.5-.9-.6 0-.6 0-.6 1 0 1.5 1 1.5 1 .9 1.5 2.3 1.1 2.9.8 0-.6.3-1.1.6-1.3-2.2-.3-4.6-1.1-4.6-5s.4-2 1-2.7c-.1-.3-.4-1.3 0-2.6 0 0 .8-.3 2.8 1 .8-.2 1.7-.3 2.5-.3.9 0 1.7.1 2.5.3 1.9-1.3 2.7-1 2.7-1 .5 1.4.2 2.4 0 2.7.6.7 1 1.6 1 2.7 0 3.8-2.3 4.7-4.6 4.9.4.3.7.9.7 1.9V19c0 .3.2.6.7.5 2-.7 3.7-1.9 4.9-3.7 1.2-1.7 1.9-3.8 1.9-5.9C20 4.5 15.5 0 10 0z" fill-rule="evenodd"/></svg>