<svg xmlns="http://www.w3.org/2000/svg" viewBox="0 0 20 20"><path d="m10.3,0c2.4,0,2.8,0,3.8,0,1.1,0,1.8.2,2.4.5.7.3,1.3.6,1.8,1.2.5.5.9,1.1,1.2,1.8.2.6.4,1.4.5,2.4,0,1.1,0,1.4,0,4.1h0c0,2.7,0,3.1,0,4.1,0,1.1-.2,1.8-.5,2.4-.3.7-.6,1.3-1.2,1.8-.5.5-1.1.9-1.8,1.2-.6.2-1.4.4-2.4.5-1.1,0-1.4,0-4.1,0h0c-2.6,0-3,0-4,0-1.1,0-1.8-.2-2.4-.5-.7-.3-1.3-.6-1.8-1.2-.5-.5-.9-1.1-1.2-1.8-.2-.6-.4-1.4-.5-2.4,0-1,0-1.4,0-3.8v-.6c0-2.4,0-2.8,0-3.8,0-1.1.2-1.8.5-2.4.3-.7.6-1.3,1.2-1.8.5-.5,1.1-.9,1.8-1.2.6-.2,1.4-.4,2.4-.5,1,0,1.4,0,3.8,0h.6Zm0,1.8h-.5c-2.5,0-2.8,0-3.8,0-1,0-1.5.2-1.9.3-.5.2-.8.4-1.2.7-.3.4-.6.7-.7,1.2-.1.4-.3.9-.3,1.9,0,1,0,1.4,0,3.8v.5c0,2.5,0,2.8,0,3.8,0,1,.2,1.5.3,1.9.2.5.4.8.7,1.2.4.4.7.6,1.2.7.4.1.9.3,1.9.3,1.1,0,1.4,0,4,0h0c2.6,0,2.9,0,4,0,1,0,1.5-.2,1.9-.3.5-.2.8-.4,1.2-.7s.6-.7.7-1.2c.1-.4.3-.9.3-1.9,0-1.1,0-1.4,0-4h0c0-2.7,0-3,0-4,0-1-.2-1.5-.3-1.9-.2-.4-.4-.8-.7-1.2-.3-.3-.7-.6-1.2-.7-.4-.1-.9-.3-1.9-.3-1,0-1.4,0-3.8,0Zm-.2,3.1c.7,0,1.3.1,2,.4s1.2.6,1.7,1.1.9,1,1.1,1.7c.3.6.4,1.3.4,2s-.1,1.3-.4,2c-.3.6-.6,1.2-1.1,1.7s-1,.9-1.7,1.1c-.6.3-1.3.4-2,.4-1.4,0-2.7-.5-3.6-1.5-1-1-1.5-2.3-1.5-3.6s.5-2.7,1.5-3.6,2.3-1.5,3.6-1.5Zm0,1.8c-.9,0-1.7.4-2.4,1-.6.6-1,1.5-1,2.4s.4,1.7,1,2.4c.6.6,1.5,1,2.4,1s1.7-.4,2.4-1c.6-.6,1-1.5,1-2.4s-.4-1.7-1-2.4c-.6-.6-1.5-1-2.4-1Zm5.3-3.2c.3,0,.6.1.8.4.2.2.4.5.4.8s-.1.6-.4.8c-.2.2-.5.4-.8.4s-.6-.1-.8-.4c-.2-.2-.4-.5-.4-.8s.1-.6.4-.8c.2-.2.5-.4.8-.4Z" fill-rule="evenodd"/></svg>