<svg xmlns="http://www.w3.org/2000/svg" viewBox="0 0 20 20"><path d="M10.3 0h3.8c1.1 0 1.8.2 2.4.5.7.3 1.3.6 1.8 1.2.5.5.9 1.1 1.2 1.8.2.6.4 1.4.5 2.4v8.2c0 1.1-.2 1.8-.5 2.4-.3.7-.6 1.3-1.2 1.8-.5.5-1.1.9-1.8 1.2-.6.2-1.4.4-2.4.5H6c-1.1 0-1.8-.2-2.4-.5-.7-.3-1.3-.6-1.8-1.2-.5-.5-.9-1.1-1.2-1.8-.2-.6-.4-1.4-.5-2.4V9.7 5.9c0-1.1.2-1.8.5-2.4.3-.7.6-1.3 1.2-1.8.5-.5 1.1-.9 1.8-1.2C4.2.3 5 .1 6 0H10.4zm0 1.8H6c-1 0-1.5.2-1.9.3-.5.2-.8.4-1.2.7-.3.4-.6.7-.7 1.2-.1.4-.3.9-.3 1.9V14c0 1 .2 1.5.3 1.9.2.5.4.8.7 1.2.4.4.7.6 1.2.7.4.1.9.3 1.9.3h8c1 0 1.5-.2 1.9-.3.5-.2.8-.4 1.2-.7s.6-.7.7-1.2c.1-.4.3-.9.3-1.9v-4-4c0-1-.2-1.5-.3-1.9-.2-.4-.4-.8-.7-1.2-.3-.3-.7-.6-1.2-.7-.4-.1-.9-.3-1.9-.3h-3.8zm-.2 3.1c.7 0 1.3.1 2 .4s1.2.6 1.7 1.1.9 1 1.1 1.7c.3.6.4 1.3.4 2s-.1 1.3-.4 2c-.3.6-.6 1.2-1.1 1.7s-1 .9-1.7 1.1c-.6.3-1.3.4-2 .4-1.4 0-2.7-.5-3.6-1.5-1-1-1.5-2.3-1.5-3.6s.5-2.7 1.5-3.6 2.3-1.5 3.6-1.5zm0 1.8c-.9 0-1.7.4-2.4 1-.6.6-1 1.5-1 2.4s.4 1.7 1 2.4c.6.6 1.5 1 2.4 1s1.7-.4 2.4-1c.6-.6 1-1.5 1-2.4s-.4-1.7-1-2.4c-.6-.6-1.5-1-2.4-1zm5.3-3.2c.3 0 .6.1.8.4.2.2.4.5.4.8s-.1.6-.4.8c-.2.2-.5.4-.8.4s-.6-.1-.8-.4c-.2-.2-.4-.5-.4-.8s.1-.6.4-.8c.2-.2.5-.4.8-.4z" fill-rule="evenodd"/></svg>