<svg xmlns="http://www.w3.org/2000/svg" viewBox="0 0 20 20"><path d="m6.3,18.1c7.5,0,11.7-6.3,11.7-11.7s0-.4,0-.5c.8-.6,1.5-1.3,2-2.1-.7.3-1.5.5-2.4.6.9-.5,1.5-1.3,1.8-2.3-.8.5-1.7.8-2.6,1-.6-.7-1.4-1.1-2.3-1.2-.9-.1-1.8,0-2.6.4-.8.4-1.4,1.1-1.8,1.9-.4.8-.5,1.7-.3,2.6-1.6,0-3.2-.5-4.7-1.2-1.5-.7-2.7-1.8-3.8-3-.5.9-.7,2-.4,3,.2,1,.9,1.9,1.7,2.5-.7,0-1.3-.2-1.9-.5h0c0,1,.3,1.9.9,2.7.6.7,1.4,1.2,2.4,1.4-.6.2-1.2.2-1.9,0,.3.8.8,1.5,1.5,2,.7.5,1.5.8,2.4.8-.9.7-1.8,1.2-2.9,1.5-1,.3-2.1.4-3.2.2,1.9,1.2,4.1,1.8,6.3,1.8"/></svg>