<?xml version="1.0" standalone="no"?>
<!DOCTYPE svg PUBLIC "-//W3C//DTD SVG 20010904//EN"
 "http://www.w3.org/TR/2001/REC-SVG-20010904/DTD/svg10.dtd">
<svg version="1.0" xmlns="http://www.w3.org/2000/svg"
 width="700.000000pt" height="700.000000pt" viewBox="0 0 700.000000 700.000000"
 preserveAspectRatio="xMidYMid meet">
<metadata>
Created by potrace 1.14, written by Peter Selinger 2001-2017
</metadata>
<g transform="translate(0.000000,700.000000) scale(0.100000,-0.100000)"
fill="#000000" stroke="none">
<path d="M1600 6992 c-87 -6 -243 -37 -330 -64 -217 -70 -385 -173 -556 -343
-185 -183 -308 -398 -368 -640 -40 -164 -40 -156 -41 -1770 0 -858 1 -1567 3
-1575 3 -13 184 -15 1560 -14 856 0 1582 4 1612 8 318 42 575 161 797 371 88
82 92 88 88 123 -16 153 -75 290 -174 404 l-49 58 -55 -83 c-47 -69 -108 -139
-177 -199 -115 -102 -312 -185 -475 -202 -64 -6 -2645 -9 -2652 -3 -6 6 -4
2608 3 2662 34 299 238 576 520 710 123 59 220 79 374 80 139 0 175 -4 268
-31 256 -75 485 -284 585 -535 58 -145 59 -159 62 -627 2 -239 5 -436 8 -438
2 -3 199 -6 438 -8 363 -3 444 -6 498 -20 149 -38 287 -110 392 -205 56 -51
70 -58 173 -87 163 -47 313 -116 453 -210 139 -93 133 -97 86 51 -64 201 -175
379 -337 540 -125 124 -232 201 -387 274 -204 97 -373 131 -660 131 l-185 0
-1 176 c-1 177 -6 248 -24 339 -6 28 -13 63 -16 79 -7 43 -61 193 -93 261
-131 275 -366 513 -637 645 -115 57 -237 97 -378 125 -66 13 -249 23 -325 17z"/>
<path d="M3569 4415 c-2 -2 -31 -6 -64 -9 -33 -3 -71 -7 -85 -10 -14 -3 -38
-8 -55 -12 -46 -9 -169 -46 -180 -54 -5 -3 -32 -15 -58 -24 -55 -21 -136 -63
-193 -101 -22 -14 -47 -31 -58 -38 -10 -6 -50 -38 -89 -70 -189 -156 -338
-369 -419 -597 -18 -50 -58 -201 -58 -219 0 -5 452 -8 482 -2 3 0 10 16 13 34
11 51 83 192 132 258 179 244 461 381 763 373 406 -12 750 -291 855 -694 21
-83 24 -142 24 -561 l1 -386 388 1 c408 1 492 -5 617 -44 293 -92 519 -329
605 -631 27 -95 36 -261 21 -367 -28 -189 -117 -367 -251 -502 -144 -145 -279
-218 -495 -266 -16 -3 -632 -7 -1367 -8 l-1338 -2 0 948 0 948 -234 0 -234 0
-3 -23 c-3 -18 -3 -2315 0 -2340 1 -11 3135 -8 3201 4 190 32 286 62 435 135
229 112 435 302 568 521 99 163 168 362 193 558 6 47 6 297 0 325 -4 14 -11
54 -16 89 -16 93 -73 263 -121 356 -165 324 -451 575 -780 689 -80 27 -175 51
-244 61 -23 3 -52 8 -65 10 -14 3 -111 6 -216 6 l-191 1 -1 184 c-1 101 -4
205 -7 231 -53 410 -269 764 -610 997 -134 92 -373 190 -515 212 -25 3 -54 8
-65 11 -26 5 -282 13 -286 8z"/>
</g>
</svg>
